SplineFontDB: 3.0
FontName: Sahel-Black
FullName: Sahel Black
FamilyName: Sahel Black
Weight: Black
Copyright: Copyright (c) 2016 by Saber Rastikerdar. All Rights Reserved.\nBased on DejaVu font.\nNon-Arabic(Latin) glyphs and data are imported from Open Sans font under the Apache License, Version 2.0.
Version: 1.0.0-alpha12
ItalicAngle: 0
UnderlinePosition: -500
UnderlineWidth: 100
Ascent: 1638
Descent: 410
InvalidEm: 0
LayerCount: 2
Layer: 0 1 "Back" 1
Layer: 1 1 "Fore" 0
XUID: [1021 502 1027637223 8586941]
UniqueID: 4158718
UseUniqueID: 1
FSType: 0
OS2Version: 1
OS2_WeightWidthSlopeOnly: 0
OS2_UseTypoMetrics: 1
CreationTime: 1431850356
ModificationTime: 1513621718
PfmFamily: 33
TTFWeight: 900
TTFWidth: 5
LineGap: 0
VLineGap: 0
Panose: 2 11 6 3 3 8 4 2 2 4
OS2TypoAscent: 2200
OS2TypoAOffset: 0
OS2TypoDescent: -1000
OS2TypoDOffset: 0
OS2TypoLinegap: 0
OS2WinAscent: 2200
OS2WinAOffset: 0
OS2WinDescent: 1000
OS2WinDOffset: 0
HheadAscent: 2200
HheadAOffset: 0
HheadDescent: -1000
HheadDOffset: 0
OS2SubXSize: 1331
OS2SubYSize: 1433
OS2SubXOff: 0
OS2SubYOff: 286
OS2SupXSize: 1331
OS2SupYSize: 1433
OS2SupXOff: 0
OS2SupYOff: 983
OS2StrikeYSize: 102
OS2StrikeYPos: 530
OS2CapHeight: 1638
OS2XHeight: 1082
OS2Vendor: '    '
OS2CodePages: 00000041.20080000
OS2UnicodeRanges: 8000200f.80000000.00000008.00000000
Lookup: 1 9 0 "'fina' Terminal Forms in Arabic lookup 9" { "'fina' Terminal Forms in Arabic lookup 9 subtable"  } ['fina' ('arab' <'KUR ' 'SND ' 'URD ' 'dflt' > ) ]
Lookup: 1 9 0 "'medi' Medial Forms in Arabic lookup 11" { "'medi' Medial Forms in Arabic lookup 11 subtable"  } ['medi' ('arab' <'KUR ' 'SND ' 'URD ' 'dflt' > ) ]
Lookup: 1 9 0 "'init' Initial Forms in Arabic lookup 13" { "'init' Initial Forms in Arabic lookup 13 subtable"  } ['init' ('arab' <'KUR ' 'SND ' 'URD ' 'dflt' > ) ]
Lookup: 4 1 1 "'rlig' Required Ligatures in Arabic lookup 14" { "'rlig' Required Ligatures in Arabic lookup 14 subtable"  } ['rlig' ('arab' <'KUR ' 'dflt' > ) ]

StartChar: afii57388
Encoding: 1548 1548 2
Width: 805
VWidth: 3395
GlyphClass: 2
Flags: W
LayerCount: 2
Fore
SplineSet
417.251953125 404.2265625 m 1,0,1
 518.795898438 398.930664062 518.795898438 398.930664062 562.166992188 326.361328125 c 0,2,3
 598.7890625 268.87109375 598.7890625 268.87109375 599.15234375 208.252929688 c 0,4,5
 599.862304688 102.399414062 599.862304688 102.399414062 541.478515625 42.0771484375 c 0,6,7
 482.529296875 -19.2001953125 482.529296875 -19.2001953125 359.193359375 -8.5361328125 c 0,8,9
 148.665039062 8.533203125 148.665039062 8.533203125 170.424804688 268.506835938 c 0,10,11
 195.59765625 570.663085938 195.59765625 570.663085938 510.161132812 759.361328125 c 0,12,13
 547.595703125 781.861328125 547.595703125 781.861328125 579.400390625 781.211914062 c 0,14,15
 613.728515625 779.728515625 613.728515625 779.728515625 634.712890625 750.4921875 c 0,16,17
 659.595703125 715.728515625 659.595703125 715.728515625 579.130859375 642.149414062 c 0,18,19
 456.9296875 532.263671875 456.9296875 532.263671875 417.251953125 404.2265625 c 1,0,1
EndSplineSet
EndChar

StartChar: uni0615
Encoding: 1557 1557 3
Width: 0
VWidth: 3443
GlyphClass: 4
Flags: W
AnchorPoint: "Anchor-10" 770.381 1882.78 mark 0
AnchorPoint: "Anchor-9" 770.381 1882.78 mark 0
AnchorPoint: "Anchor-1" 770.381 2975.96 basemark 0
AnchorPoint: "Anchor-1" 770.381 1882.78 mark 0
LayerCount: 2
Fore
SplineSet
792.641601562 2199.6953125 m 1,0,1
 981 2203 981 2203 1018 2268.92856606 c 0,2,3
 1026 2283 1026 2283 1025.99316406 2298.8203125 c 0,4,5
 1026 2333 1026 2333 990 2333.22005814 c 0,6,7
 924 2333 924 2333 792.641601562 2199.6953125 c 1,0,1
1200.61035156 2196.57421875 m 0,8,9
 1123.03411434 1995.08860379 1123.03411434 1995.08860379 727.290039062 1994.84375 c 2,10,-1
 387.94140625 1994.63378906 l 1,11,-1
 300.638317403 2162 l 2,12,13
 281.040039062 2199.57128906 281.040039062 2199.57128906 321 2199.57128906 c 2,14,-1
 451.905273438 2199.57128906 l 1,15,-1
 451.905273438 2870.609375 l 1,16,-1
 658.31640625 2870.609375 l 1,17,-1
 658.31640625 2351.63964844 l 1,18,19
 837.598727859 2556.25936379 837.598727859 2556.25936379 995.480615907 2556.25936379 c 0,20,21
 997.595254852 2556.25936379 997.595254852 2556.25936379 999.706054688 2556.22265625 c 0,22,23
 1168.31248388 2553.03193469 1168.31248388 2553.03193469 1214.26953125 2401.38769531 c 0,24,25
 1225.87580901 2362.44985638 1225.87580901 2362.44985638 1225.87580901 2321.54749075 c 0,26,27
 1225.87580901 2261.19912279 1225.87580901 2261.19912279 1200.61035156 2196.57421875 c 0,8,9
EndSplineSet
EndChar

StartChar: uni061B
Encoding: 1563 1563 4
Width: 808
VWidth: 3395
GlyphClass: 2
Flags: W
LayerCount: 2
Fore
SplineSet
427.408203125 994.98828125 m 1,0,1
 526 990 526 990 572.323242188 917.123046875 c 0,2,3
 609 860 609 860 609.307617188 799.014648438 c 0,4,5
 610 693 610 693 551.634765625 632.838867188 c 0,6,7
 493 572 493 572 369.348632812 582.225585938 c 0,8,9
 159 599 159 599 180.580078125 859.268554688 c 0,10,11
 202.720461519 1120.33029779 202.720461519 1120.33029779 444.023006954 1299 c 0,12,13
 544.540837808 1373.42727499 544.540837808 1373.42727499 589.5 1372 c 0,14,15
 621 1371 621 1371 638 1347 c 0,16,17
 667 1304 667 1304 589.287109375 1232.91113281 c 0,18,19
 467 1123 467 1123 427.408203125 994.98828125 c 1,0,1
170.46484375 233.598632812 m 128,-1,21
 170.46484375 330.665039062 170.46484375 330.665039062 238.731445312 398.930664062 c 128,-1,22
 306.997070312 467.197265625 306.997070312 467.197265625 404.063476562 467.197265625 c 128,-1,23
 501.129882812 467.197265625 501.129882812 467.197265625 569.395507812 398.930664062 c 128,-1,24
 637.662109375 330.665039062 637.662109375 330.665039062 637.662109375 233.598632812 c 128,-1,25
 637.662109375 136.532226562 637.662109375 136.532226562 569.395507812 68.2666015625 c 128,-1,26
 501.129882812 0 501.129882812 0 404.063476562 0 c 128,-1,27
 306.997070312 0 306.997070312 0 238.731445312 68.2666015625 c 128,-1,20
 170.46484375 136.532226562 170.46484375 136.532226562 170.46484375 233.598632812 c 128,-1,21
EndSplineSet
EndChar

StartChar: uni061F
Encoding: 1567 1567 5
Width: 1099
VWidth: 3386
GlyphClass: 2
Flags: W
LayerCount: 2
Fore
SplineSet
420.130859375 233.598632812 m 128,-1,1
 420.130859375 330.665039062 420.130859375 330.665039062 488.396484375 398.930664062 c 128,-1,2
 556.663085938 467.197265625 556.663085938 467.197265625 653.729492188 467.197265625 c 128,-1,3
 750.794921875 467.197265625 750.794921875 467.197265625 819.061523438 398.930664062 c 128,-1,4
 887.327148438 330.665039062 887.327148438 330.665039062 887.327148438 233.598632812 c 128,-1,5
 887.327148438 136.532226562 887.327148438 136.532226562 819.061523438 68.2666015625 c 128,-1,6
 750.794921875 0 750.794921875 0 653.729492188 0 c 128,-1,7
 556.663085938 0 556.663085938 0 488.396484375 68.2666015625 c 128,-1,0
 420.130859375 136.532226562 420.130859375 136.532226562 420.130859375 233.598632812 c 128,-1,1
509.530273438 651.241210938 m 2,8,-1
 509.530273438 661.204101562 l 2,9,10
 509.992694143 706.287716867 509.992694143 706.287716867 384.09375 784.217773438 c 2,11,-1
 280.240234375 848.501953125 l 2,12,13
 90 966 90 966 89.9462890625 1151.66503906 c 0,14,15
 89 1403 89 1403 325.834960938 1526.17578125 c 0,16,17
 420 1575 420 1575 570.321289062 1575.49902344 c 0,18,19
 806 1575 806 1575 931.166992188 1399.85644531 c 0,20,21
 1005 1296 1005 1296 1006.43652344 1148.53710938 c 0,22,23
 1007 1075 1007 1075 998.958984375 1031.32226562 c 1,24,-1
 813.189453125 1029.97558594 l 1,25,26
 808 1171 808 1171 719.059570312 1218.43847656 c 0,27,28
 680 1239 680 1239 611.9296875 1239.16015625 c 0,29,30
 514 1239 514 1239 475.227539062 1178.56152344 c 0,31,32
 459 1152 459 1152 457.209960938 1115.45898438 c 4,33,34
 455.999538678 1053.97656753 455.999538678 1053.97656753 571.321289062 968.135742188 c 2,35,-1
 623.99609375 928.926757812 l 2,36,37
 788.461914062 806.656595472 788.461914062 806.656595472 788.461914062 667.0625 c 2,38,-1
 788.461914062 652.486328125 l 2,39,40
 787.995683813 624.743164062 787.995683813 624.743164062 731.12890625 624.743164062 c 2,41,-1
 575.620117188 624.743164062 l 2,42,43
 510 625 510 625 509.530273438 651.241210938 c 2,8,-1
EndSplineSet
EndChar

StartChar: uni0621
Encoding: 1569 1569 6
Width: 891
VWidth: 3747
GlyphClass: 2
Flags: W
AnchorPoint: "Anchor-7" 474.756 -43.488 basechar 0
AnchorPoint: "Anchor-10" 436.642 1235.47 basechar 0
LayerCount: 2
Fore
SplineSet
538.663085938 711.862304688 m 0,0,1
 375 712 375 712 347.248046875 606.561523438 c 0,2,3
 341 582 341 582 408.711914062 535.482421875 c 0,4,5
 433 519 433 519 488.544921875 489.829101562 c 1,6,7
 529.371494908 493.029118041 529.371494908 493.029118041 620.060546875 516.067382812 c 2,8,-1
 723.807617188 542.422851562 l 2,9,10
 785 558 785 558 802.127929688 549.330078125 c 0,11,12
 819.411266256 539.772574069 819.411266256 539.772574069 814.2578125 468.616210938 c 2,13,-1
 795.532226562 210.0625 l 1,14,15
 449 186 449 186 84.2666015625 13.8662109375 c 1,16,-1
 85.1328125 370.797851562 l 1,17,-1
 213.447265625 407.6171875 l 1,18,19
 138 495 138 495 138.384995965 612 c 0,20,21
 139 779 139 779 229 874 c 0,22,23
 331 981 331 981 475 983.455078125 c 0,24,25
 574 985 574 985 667.873046875 943.552734375 c 0,26,27
 733 915 733 915 755.359375 892.53515625 c 1,28,-1
 701.525390625 673.025390625 l 1,29,30
 623 712 623 712 538.663085938 711.862304688 c 0,0,1
EndSplineSet
EndChar

StartChar: uni0627
Encoding: 1575 1575 12
Width: 599
VWidth: 3713
GlyphClass: 2
Flags: W
AnchorPoint: "Anchor-10" 288.382 1654.85 basechar 0
AnchorPoint: "Anchor-7" 290.029 -201.043 basechar 0
LayerCount: 2
Fore
SplineSet
162.131835938 484.262695312 m 24,0,1
 147 980 147 980 76.890625 1397.53320312 c 1,2,-1
 401.73046875 1600.20703125 l 2,3,4
 450 1630 450 1630 455.703125 1553 c 0,5,6
 486 1122 486 1122 486.455078125 693 c 0,7,8
 487 168 487 168 417.16796875 70.576171875 c 0,9,10
 351.043531219 -20.9397529884 351.043531219 -20.9397529884 194.516601562 -14.86328125 c 2,11,-1
 174.014648438 -14.0673828125 l 1,12,-1
 162.131835938 484.262695312 l 24,0,1
EndSplineSet
Substitution2: "'fina' Terminal Forms in Arabic lookup 9 subtable" uniFE8E
EndChar

StartChar: uni062D
Encoding: 1581 1581 18
Width: 1362
VWidth: 3747
GlyphClass: 2
Flags: W
AnchorPoint: "Anchor-7" 637.069 -849.641 basechar 0
AnchorPoint: "Anchor-10" 680.639 1414.02 basechar 0
LayerCount: 2
Fore
SplineSet
422.965820312 739.239257812 m 0,0,1
 327 739 327 739 223.229492188 614.515625 c 1,2,-1
 69.0341796875 662.51953125 l 1,3,4
 135 895 135 895 196.786132812 975.567382812 c 0,5,6
 296 1107 296 1107 432.878316934 1106.58730547 c 0,7,8
 515 1107 515 1107 1017.93554688 957.670898438 c 0,9,10
 1118 928 1118 928 1249.2421875 928.001953125 c 0,11,12
 1258.36997721 927.999917489 1258.36997721 927.999917489 1267.93066406 928.150390625 c 2,13,-1
 1277.85839844 928.306640625 l 2,14,15
 1296.53268302 929.020358774 1296.53268302 929.020358774 1291.61425781 907.727539062 c 2,16,-1
 1207.77148438 544.755859375 l 1,17,18
 874 471 874 471 689.989257812 379.810546875 c 0,19,20
 350 212 350 212 350.491210938 -14.4912109375 c 0,21,22
 350 -252 350 -252 780.212096005 -251.816137892 c 0,23,24
 1027 -252 1027 -252 1241.23242188 -213.712890625 c 0,25,26
 1277 -207 1277 -207 1262.60546875 -242.649414062 c 0,27,28
 1151 -515 1151 -515 1049.32617188 -618.404296875 c 0,29,30
 1021 -647 1021 -647 816.908161723 -647.468681003 c 0,31,32
 422 -647 422 -647 282.359375 -517.043945312 c 0,33,34
 122 -366 122 -366 121.922851562 -39.9970703125 c 0,35,36
 122 392 122 392 483.4375 616.014648438 c 0,37,38
 564 666 564 666 664.129882812 699.313476562 c 1,39,40
 492 739 492 739 422.965820312 739.239257812 c 0,0,1
EndSplineSet
Substitution2: "'fina' Terminal Forms in Arabic lookup 9 subtable" uniFEA2
Substitution2: "'medi' Medial Forms in Arabic lookup 11 subtable" uniFEA4
Substitution2: "'init' Initial Forms in Arabic lookup 13 subtable" uniFEA3
EndChar

StartChar: uni062F
Encoding: 1583 1583 20
Width: 1058
VWidth: 3745
GlyphClass: 2
Flags: W
AnchorPoint: "Anchor-10" 428.728 1486.38 basechar 0
AnchorPoint: "Anchor-7" 431.616 -195.827 basechar 0
LayerCount: 2
Fore
SplineSet
261.962890625 568.719726562 m 0,0,1
 261 495 261 495 497.852539062 495.565429688 c 0,2,3
 653 496 653 496 723.728515625 544.549804688 c 0,4,5
 739 555 739 555 737.010742188 563.927734375 c 0,6,7
 734 587 734 587 688.528320312 644.888671875 c 0,8,9
 587 770 587 770 333.331054688 949.327148438 c 1,10,-1
 459.720703125 1270.39160156 l 2,11,12
 478 1316 478 1316 516.788085938 1284.25878906 c 0,13,14
 834 1023 834 1023 927.4609375 798.487304688 c 0,15,16
 987 656 987 656 987.193359375 510.9296875 c 0,17,18
 987 366 987 366 929.015625 240.24609375 c 0,19,20
 819 2 819 2 464.383789062 1.947265625 c 0,21,22
 84 2 84 2 65.814453125 345.59765625 c 0,23,24
 59 478 59 478 109.895507812 632.474609375 c 1,25,-1
 263.328125 615.879882812 l 1,26,27
 262 602 262 602 261.962890625 568.719726562 c 0,0,1
EndSplineSet
Substitution2: "'fina' Terminal Forms in Arabic lookup 9 subtable" uniFEAA
EndChar

StartChar: uni0631
Encoding: 1585 1585 22
Width: 893
VWidth: 3518
GlyphClass: 2
Flags: W
AnchorPoint: "Anchor-7" 361.246 -706.137 basechar 0
AnchorPoint: "Anchor-10" 497.21 1115.21 basechar 0
LayerCount: 2
Fore
SplineSet
36.8935546875 -383.8828125 m 0,0,1
 461 -97 461 -97 563 75.4130859375 c 0,2,3
 580.903788735 107.76724667 580.903788735 107.76724667 575.185546875 138 c 0,4,5
 563 213 563 213 339 468 c 1,6,-1
 558 792 l 1,7,8
 730 627 730 627 792.102552662 416 c 0,9,10
 827 298 827 298 826.972971792 172 c 0,11,12
 827 13 827 13 782.93359375 -120.795898438 c 0,13,14
 702 -368 702 -368 544.569335938 -500 c 0,15,16
 510 -529 510 -529 461 -534.287109375 c 0,17,18
 414 -539 414 -539 355 -537 c 0,19,20
 170 -531 170 -531 11.767578125 -503.25390625 c 0,21,22
 -46 -493 -46 -493 -31.005859375 -442.1953125 c 0,23,24
 -26.7494071902 -427.574241476 -26.7494071902 -427.574241476 36.8935546875 -383.8828125 c 0,0,1
EndSplineSet
PairPos2: "'kern' Horizontal Kerning lookup 15-1" uniFBFE dx=53 dy=0 dh=53 dv=0 dx=0 dy=0 dh=0 dv=0
PairPos2: "'kern' Horizontal Kerning lookup 15-1" uniFEF3 dx=53 dy=0 dh=53 dv=0 dx=0 dy=0 dh=0 dv=0
PairPos2: "'kern' Horizontal Kerning lookup 15-1" uniFB58 dx=53 dy=0 dh=53 dv=0 dx=0 dy=0 dh=0 dv=0
PairPos2: "'kern' Horizontal Kerning lookup 15-4" uni0621 dx=-196 dy=0 dh=-196 dv=0 dx=0 dy=0 dh=0 dv=0
PairPos2: "'kern' Horizontal Kerning lookup 15-3" uni0648 dx=-43 dy=0 dh=-43 dv=0 dx=0 dy=0 dh=0 dv=0
PairPos2: "'kern' Horizontal Kerning lookup 15-1" uni0632 dx=-43 dy=0 dh=-43 dv=0 dx=0 dy=0 dh=0 dv=0
PairPos2: "'kern' Horizontal Kerning lookup 15-1" uni0631 dx=-43 dy=0 dh=-43 dv=0 dx=0 dy=0 dh=0 dv=0
PairPos2: "'kern' Horizontal Kerning lookup 15-1" uni06CC dx=-43 dy=0 dh=-43 dv=0 dx=0 dy=0 dh=0 dv=0
PairPos2: "'kern' Horizontal Kerning lookup 15-1" uniFEEB dx=-128 dy=0 dh=-128 dv=0 dx=0 dy=0 dh=0 dv=0
PairPos2: "'kern' Horizontal Kerning lookup 15-1" uniFB7C dx=-115 dy=0 dh=-115 dv=0 dx=0 dy=0 dh=0 dv=0
PairPos2: "'kern' Horizontal Kerning lookup 15-1" uniFEDF dx=-128 dy=0 dh=-128 dv=0 dx=0 dy=0 dh=0 dv=0
PairPos2: "'kern' Horizontal Kerning lookup 15-1" uniFB90 dx=-196 dy=0 dh=-196 dv=0 dx=0 dy=0 dh=0 dv=0
PairPos2: "'kern' Horizontal Kerning lookup 15-1" uni06A9 dx=-196 dy=0 dh=-196 dv=0 dx=0 dy=0 dh=0 dv=0
PairPos2: "'kern' Horizontal Kerning lookup 15-1" uni0649 dx=-43 dy=0 dh=-43 dv=0 dx=0 dy=0 dh=0 dv=0
PairPos2: "'kern' Horizontal Kerning lookup 15-1" uni0647 dx=-128 dy=0 dh=-128 dv=0 dx=0 dy=0 dh=0 dv=0
PairPos2: "'kern' Horizontal Kerning lookup 15-1" uniFEE7 dx=-128 dy=0 dh=-128 dv=0 dx=0 dy=0 dh=0 dv=0
PairPos2: "'kern' Horizontal Kerning lookup 15-1" uniFEE3 dx=-128 dy=0 dh=-128 dv=0 dx=0 dy=0 dh=0 dv=0
PairPos2: "'kern' Horizontal Kerning lookup 15-1" uni0645 dx=-128 dy=0 dh=-128 dv=0 dx=0 dy=0 dh=0 dv=0
PairPos2: "'kern' Horizontal Kerning lookup 15-1" uni0644 dx=-43 dy=0 dh=-43 dv=0 dx=0 dy=0 dh=0 dv=0
PairPos2: "'kern' Horizontal Kerning lookup 15-1" uniFEDB dx=-196 dy=0 dh=-196 dv=0 dx=0 dy=0 dh=0 dv=0
PairPos2: "'kern' Horizontal Kerning lookup 15-1" uniFED7 dx=-128 dy=0 dh=-128 dv=0 dx=0 dy=0 dh=0 dv=0
PairPos2: "'kern' Horizontal Kerning lookup 15-1" uni0642 dx=-43 dy=0 dh=-43 dv=0 dx=0 dy=0 dh=0 dv=0
PairPos2: "'kern' Horizontal Kerning lookup 15-1" uniFED3 dx=-128 dy=0 dh=-128 dv=0 dx=0 dy=0 dh=0 dv=0
PairPos2: "'kern' Horizontal Kerning lookup 15-1" uni0641 dx=-128 dy=0 dh=-128 dv=0 dx=0 dy=0 dh=0 dv=0
PairPos2: "'kern' Horizontal Kerning lookup 15-1" uniFECF dx=-128 dy=0 dh=-128 dv=0 dx=0 dy=0 dh=0 dv=0
PairPos2: "'kern' Horizontal Kerning lookup 15-1" uniFECB dx=-128 dy=0 dh=-128 dv=0 dx=0 dy=0 dh=0 dv=0
PairPos2: "'kern' Horizontal Kerning lookup 15-1" uniFEC7 dx=-128 dy=0 dh=-128 dv=0 dx=0 dy=0 dh=0 dv=0
PairPos2: "'kern' Horizontal Kerning lookup 15-1" uni0638 dx=-128 dy=0 dh=-128 dv=0 dx=0 dy=0 dh=0 dv=0
PairPos2: "'kern' Horizontal Kerning lookup 15-1" uniFEC3 dx=-128 dy=0 dh=-128 dv=0 dx=0 dy=0 dh=0 dv=0
PairPos2: "'kern' Horizontal Kerning lookup 15-1" uni0637 dx=-128 dy=0 dh=-128 dv=0 dx=0 dy=0 dh=0 dv=0
PairPos2: "'kern' Horizontal Kerning lookup 15-1" uniFEBF dx=-128 dy=0 dh=-128 dv=0 dx=0 dy=0 dh=0 dv=0
PairPos2: "'kern' Horizontal Kerning lookup 15-1" uni0636 dx=-128 dy=0 dh=-128 dv=0 dx=0 dy=0 dh=0 dv=0
PairPos2: "'kern' Horizontal Kerning lookup 15-1" uniFEBB dx=-128 dy=0 dh=-128 dv=0 dx=0 dy=0 dh=0 dv=0
PairPos2: "'kern' Horizontal Kerning lookup 15-1" uni0635 dx=-128 dy=0 dh=-128 dv=0 dx=0 dy=0 dh=0 dv=0
PairPos2: "'kern' Horizontal Kerning lookup 15-1" uniFEB7 dx=-128 dy=0 dh=-128 dv=0 dx=0 dy=0 dh=0 dv=0
PairPos2: "'kern' Horizontal Kerning lookup 15-1" uni0634 dx=-128 dy=0 dh=-128 dv=0 dx=0 dy=0 dh=0 dv=0
PairPos2: "'kern' Horizontal Kerning lookup 15-1" uniFEB3 dx=-128 dy=0 dh=-128 dv=0 dx=0 dy=0 dh=0 dv=0
PairPos2: "'kern' Horizontal Kerning lookup 15-1" uni0633 dx=-128 dy=0 dh=-128 dv=0 dx=0 dy=0 dh=0 dv=0
PairPos2: "'kern' Horizontal Kerning lookup 15-1" uni0630 dx=-128 dy=0 dh=-128 dv=0 dx=0 dy=0 dh=0 dv=0
PairPos2: "'kern' Horizontal Kerning lookup 15-1" uni062F dx=-128 dy=0 dh=-128 dv=0 dx=0 dy=0 dh=0 dv=0
PairPos2: "'kern' Horizontal Kerning lookup 15-1" uniFEA7 dx=-128 dy=0 dh=-128 dv=0 dx=0 dy=0 dh=0 dv=0
PairPos2: "'kern' Horizontal Kerning lookup 15-1" uniFEA3 dx=-128 dy=0 dh=-128 dv=0 dx=0 dy=0 dh=0 dv=0
PairPos2: "'kern' Horizontal Kerning lookup 15-1" uniFE9F dx=-128 dy=0 dh=-128 dv=0 dx=0 dy=0 dh=0 dv=0
PairPos2: "'kern' Horizontal Kerning lookup 15-1" uniFE9B dx=-128 dy=0 dh=-128 dv=0 dx=0 dy=0 dh=0 dv=0
PairPos2: "'kern' Horizontal Kerning lookup 15-1" uni062B dx=-128 dy=0 dh=-128 dv=0 dx=0 dy=0 dh=0 dv=0
PairPos2: "'kern' Horizontal Kerning lookup 15-1" uniFE97 dx=-128 dy=0 dh=-128 dv=0 dx=0 dy=0 dh=0 dv=0
PairPos2: "'kern' Horizontal Kerning lookup 15-1" uni062A dx=-128 dy=0 dh=-128 dv=0 dx=0 dy=0 dh=0 dv=0
PairPos2: "'kern' Horizontal Kerning lookup 15-1" uni0629 dx=-128 dy=0 dh=-128 dv=0 dx=0 dy=0 dh=0 dv=0
PairPos2: "'kern' Horizontal Kerning lookup 15-1" uniFE91 dx=-53 dy=0 dh=-53 dv=0 dx=0 dy=0 dh=0 dv=0
PairPos2: "'kern' Horizontal Kerning lookup 15-1" uni0628 dx=-128 dy=0 dh=-128 dv=0 dx=0 dy=0 dh=0 dv=0
PairPos2: "'kern' Horizontal Kerning lookup 15-1" uni0627 dx=-196 dy=0 dh=-196 dv=0 dx=0 dy=0 dh=0 dv=0
PairPos2: "'kern' Horizontal Kerning lookup 15-1" uni0622 dx=-196 dy=0 dh=-196 dv=0 dx=0 dy=0 dh=0 dv=0
PairPos2: "'kern' Horizontal Kerning lookup 15-1" uniFB94 dx=-196 dy=0 dh=-196 dv=0 dx=0 dy=0 dh=0 dv=0
PairPos2: "'kern' Horizontal Kerning lookup 15-1" afii57509 dx=-196 dy=0 dh=-196 dv=0 dx=0 dy=0 dh=0 dv=0
PairPos2: "'kern' Horizontal Kerning lookup 15-1" uniFB56 dx=-128 dy=0 dh=-128 dv=0 dx=0 dy=0 dh=0 dv=0
PairPos2: "'kern' Horizontal Kerning lookup 15-1" afii57506 dx=-128 dy=0 dh=-128 dv=0 dx=0 dy=0 dh=0 dv=0
Substitution2: "'fina' Terminal Forms in Arabic lookup 9 subtable" uniFEAE
EndChar

StartChar: uni0633
Encoding: 1587 1587 24
Width: 2429
VWidth: 3752
GlyphClass: 2
Flags: W
AnchorPoint: "Anchor-7" 630.413 -811.066 basechar 0
AnchorPoint: "Anchor-10" 1640.87 1280.76 basechar 0
LayerCount: 2
Fore
SplineSet
941.727539062 411.73046875 m 1,0,-1
 1164.41015625 697.595703125 l 2,1,2
 1185.72757456 724.6542065 1185.72757456 724.6542065 1209.67578125 691.1953125 c 2,3,-1
 1267.9765625 609.741210938 l 2,4,5
 1350 495 1350 495 1473.85253906 497.793945312 c 8,6,7
 1593.98877859 500.999700564 1593.98877859 500.999700564 1612.23730469 643.225585938 c 2,8,-1
 1628.53613281 770.255859375 l 1,9,-1
 1787.21582031 770.255859375 l 1,10,-1
 1807.09570312 643.75390625 l 2,11,12
 1831 491 1831 491 1973.27246094 490.791992188 c 16,13,14
 2039 491 2039 491 2078.77148438 536.8203125 c 0,15,16
 2097 557 2097 557 2090.89355469 594.861328125 c 0,17,18
 2083.84922805 634.856018997 2083.84922805 634.856018997 2053.76953125 691.861328125 c 2,19,-1
 2003.7109375 786.729492188 l 1,20,-1
 2182.63476562 1009.18847656 l 2,21,22
 2210 1043 2210 1043 2232.27832031 1008.12207031 c 0,23,24
 2359 813 2359 813 2358.13378906 587.452148438 c 0,25,26
 2357 333 2357 333 2220.47753906 140.709960938 c 0,27,28
 2117 -5 2117 -5 1972.76953125 -4.138671875 c 0,29,30
 1813 -4 1813 -4 1707.25585938 170.688476562 c 1,31,32
 1603 -2 1603 -2 1478.05859375 -1.294921875 c 0,33,34
 1426 -1 1426 -1 1357.47265625 34.34375 c 1,35,36
 1332 -295 1332 -295 1129.25488281 -445.1953125 c 0,37,38
 965 -567 965 -567 698.983398438 -567.462890625 c 0,39,40
 376 -567 376 -567 224.981445312 -405.92578125 c 0,41,42
 77 -248 77 -248 77.33203125 30.6279296875 c 0,43,44
 77 309 77 309 203.59765625 549.059570312 c 1,45,-1
 380.661132812 499.107421875 l 1,46,47
 329 326 329 326 328.901367188 207.822265625 c 0,48,49
 329 89 329 89 380.943359375 24.2216796875 c 0,50,51
 479 -96 479 -96 704.557617188 -95.9609375 c 0,52,53
 995 -96 995 -96 1107.68945312 42.5625 c 0,54,55
 1124 63 1124 63 1124.05957031 90.955078125 c 0,56,57
 1124 122 1124 122 1104.39941406 161.391601562 c 0,58,59
 1086 199 1086 199 941.727539062 411.73046875 c 1,0,-1
EndSplineSet
Substitution2: "'fina' Terminal Forms in Arabic lookup 9 subtable" uniFEB2
Substitution2: "'medi' Medial Forms in Arabic lookup 11 subtable" uniFEB4
Substitution2: "'init' Initial Forms in Arabic lookup 13 subtable" uniFEB3
EndChar

StartChar: uni0635
Encoding: 1589 1589 26
Width: 2656
VWidth: 3753
GlyphClass: 2
Flags: W
AnchorPoint: "Anchor-7" 634.28 -771.732 basechar 0
AnchorPoint: "Anchor-10" 2066.87 1406.76 basechar 0
LayerCount: 2
Fore
SplineSet
941.727539062 411.73046875 m 1,0,-1
 1160.25488281 692.262695312 l 2,1,2
 1185.73191922 724.659110422 1185.73191922 724.659110422 1208.0625 695.461914062 c 2,3,-1
 1271.17578125 612.94140625 l 2,4,5
 1359 499 1359 499 1461.16210938 498.990234375 c 1,6,7
 1579 647 1579 647 1630.37402344 702.991210938 c 0,8,9
 1949 1052 1949 1052 2252.71191406 1050.88769531 c 0,10,11
 2460 1050 2460 1050 2542.8671875 887.485351562 c 0,12,13
 2585 805 2585 805 2585.11230469 702.662109375 c 0,14,15
 2585 520 2585 520 2498.98535156 366.149414062 c 0,16,17
 2293.02599533 0.0462080195597 2293.02599533 0.0462080195597 1810.41503906 0.013671875 c 2,18,-1
 1607.61914062 0 l 2,19,20
 1463 -0 1463 -0 1357.47265625 34.34375 c 1,21,22
 1332 -295 1332 -295 1129.25488281 -445.1953125 c 0,23,24
 965 -567 965 -567 698.983398438 -567.462890625 c 0,25,26
 376 -567 376 -567 224.981445312 -405.92578125 c 0,27,28
 77 -248 77 -248 77.33203125 30.6279296875 c 0,29,30
 77 309 77 309 203.59765625 549.059570312 c 1,31,-1
 380.661132812 499.107421875 l 1,32,33
 329 326 329 326 328.901367188 207.822265625 c 0,34,35
 329 89 329 89 380.943359375 24.2216796875 c 0,36,37
 479 -96 479 -96 704.557617188 -95.9609375 c 0,38,39
 995 -96 995 -96 1107.68945312 42.5625 c 0,40,41
 1124 63 1124 63 1124.05957031 90.955078125 c 0,42,43
 1124 122 1124 122 1104.39941406 161.391601562 c 0,44,45
 1086 199 1086 199 941.727539062 411.73046875 c 1,0,-1
1691.22167969 496.548828125 m 1,46,-1
 1932.92089844 496.548828125 l 2,47,48
 2257.83105469 497.028320312 2257.83105469 497.028320312 2321.58496094 543.228515625 c 0,49,50
 2340.65820312 556.756835938 2340.65820312 556.756835938 2336.33691406 583.42578125 c 0,51,52
 2318.2578125 692.22265625 2318.2578125 692.22265625 2129.85253906 691.2890625 c 0,53,54
 1955.59375 690.08984375 1955.59375 690.08984375 1758.36914062 548.94921875 c 0,55,56
 1730.52832031 529.0234375 1730.52832031 529.0234375 1691.22167969 496.548828125 c 1,46,-1
EndSplineSet
Substitution2: "'fina' Terminal Forms in Arabic lookup 9 subtable" uniFEBA
Substitution2: "'medi' Medial Forms in Arabic lookup 11 subtable" uniFEBC
Substitution2: "'init' Initial Forms in Arabic lookup 13 subtable" uniFEBB
EndChar

StartChar: uni0637
Encoding: 1591 1591 28
Width: 1644
VWidth: 3753
GlyphClass: 2
Flags: W
AnchorPoint: "Anchor-10" 540.374 1683.33 basechar 0
AnchorPoint: "Anchor-7" 761.973 -190.535 basechar 0
LayerCount: 2
Fore
SplineSet
679.622070312 494.455078125 m 1,0,-1
 921.321289062 494.455078125 l 2,1,2
 1246.23144531 494.934570312 1246.23144531 494.934570312 1309.98535156 541.134765625 c 0,3,4
 1329.05859375 554.663085938 1329.05859375 554.663085938 1324.73730469 581.33203125 c 0,5,6
 1306.65820312 690.12890625 1306.65820312 690.12890625 1118.25390625 689.1953125 c 0,7,8
 943.994140625 687.99609375 943.994140625 687.99609375 746.76953125 546.856445312 c 0,9,10
 718.928710938 526.9296875 718.928710938 526.9296875 679.622070312 494.455078125 c 1,0,-1
733.862304688 811.049804688 m 1,11,12
 1005 1049 1005 1049 1241.11230469 1048.79394531 c 0,13,14
 1447 1048 1447 1048 1531.26757812 885.391601562 c 0,15,16
 1574 802 1574 802 1573.81835938 695.1953125 c 0,17,18
 1573 517 1573 517 1487.38574219 364.055664062 c 0,19,20
 1281.97334593 -2.04750510608 1281.97334593 -2.04750510608 798.815429688 -2.080078125 c 2,21,-1
 596.01953125 -2.09375 l 2,22,-1
 299.203125 -0.7548828125 l 1,23,24
 145 166 145 166 70.3994140625 369.064453125 c 0,25,26
 24.1678025022 494.544556751 24.1678025022 494.544556751 173.862304688 494.588867188 c 2,27,-1
 437.79296875 494.666992188 l 1,28,29
 421 1078 421 1078 368.059570312 1396.72949219 c 1,30,-1
 680.529296875 1599.83984375 l 2,31,32
 734.520703447 1634.69062008 734.520703447 1634.69062008 734.463867188 1563.58984375 c 2,33,-1
 733.862304688 811.049804688 l 1,11,12
EndSplineSet
Substitution2: "'fina' Terminal Forms in Arabic lookup 9 subtable" uniFEC2
Substitution2: "'medi' Medial Forms in Arabic lookup 11 subtable" uniFEC4
Substitution2: "'init' Initial Forms in Arabic lookup 13 subtable" uniFEC3
EndChar

StartChar: uni0639
Encoding: 1593 1593 30
Width: 1283
VWidth: 3747
GlyphClass: 2
Flags: W
AnchorPoint: "Anchor-7" 602.803 -830.44 basechar 0
AnchorPoint: "Anchor-10" 658.718 1512.67 basechar 0
LayerCount: 2
Fore
SplineSet
750.636013927 -647.38958193 m 0,0,1
 384 -647 384 -647 246.725585938 -517.250976562 c 0,2,3
 86 -367 86 -367 85.6545665103 -41.4029143286 c 0,4,5
 86 342 86 342 382.255859375 539.606445312 c 1,6,7
 262 666 262 666 262.235687283 822.007145736 c 4,8,9
 262 877 262 877 277.098632812 935.810546875 c 4,10,11
 286 971 286 971 292.353515625 988.684570312 c 4,12,13
 330 1088 330 1088 401 1155.84863281 c 4,14,15
 525 1272 525 1272 705.39342651 1271.53643877 c 4,16,17
 917 1272 917 1272 1053.33789062 1118.29296875 c 5,18,-1
 991.099609375 903.662109375 l 5,19,20
 856 961 856 961 752.166992188 961.411132812 c 4,21,22
 609 961 609 961 516.5546875 893.259765625 c 4,23,24
 470 859 470 859 470.434570312 820.40234375 c 4,25,26
 470 765 470 765 634.70703125 678.009765625 c 4,27,28
 663 663 663 663 667.451171875 663.979492188 c 4,29,30
 947 722 947 722 1101.65332031 724.502929688 c 4,31,32
 1175.70726629 725.994105413 1175.70726629 725.994105413 1160.47070312 651.517578125 c 2,33,-1
 1093.03613281 321.896484375 l 1,34,35
 732 317 732 317 508.4765625 203.208984375 c 0,36,37
 315 105 315 105 315.306640625 -28 c 0,38,39
 315 -252 315 -252 748.170898438 -251.796875 c 0,40,41
 987 -252 987 -252 1191.23242188 -213.712890625 c 0,42,43
 1227 -207 1227 -207 1212.60546875 -242.649414062 c 0,44,45
 1098 -523 1098 -523 999.326171875 -618.404296875 c 0,46,47
 970 -647 970 -647 750.636013927 -647.38958193 c 0,0,1
EndSplineSet
Substitution2: "'fina' Terminal Forms in Arabic lookup 9 subtable" uniFECA
Substitution2: "'medi' Medial Forms in Arabic lookup 11 subtable" uniFECC
Substitution2: "'init' Initial Forms in Arabic lookup 13 subtable" uniFECB
EndChar

StartChar: afii57440
Encoding: 1600 1600 32
Width: 245
VWidth: 3780
GlyphClass: 2
Flags: W
AnchorPoint: "Anchor-10" 130.433 1096.74 basechar 0
AnchorPoint: "Anchor-7" 129.767 -194.27 basechar 0
LayerCount: 2
Fore
SplineSet
-4.6591796875 494.930664062 m 2,0,-1
 250 494.930664062 l 2,1,2
 275.340820312 495.000945244 275.340820312 495.000945244 275.340820312 303 c 2,3,-1
 275.340820312 171 l 2,4,5
 275 0 275 0 250 0 c 2,6,-1
 -4.6591796875 0 l 2,7,8
 -60 0 -60 0 -60 171 c 2,9,-1
 -60 303 l 2,10,11
 -60 495 -60 495 -4.6591796875 494.930664062 c 2,0,-1
EndSplineSet
EndChar

StartChar: uni0643
Encoding: 1603 1603 35
Width: 2064
VWidth: 3713
GlyphClass: 2
Flags: W
AnchorPoint: "Anchor-10" 991.587 1621.45 basechar 0
AnchorPoint: "Anchor-7" 889.161 -199.19 basechar 0
LayerCount: 2
Fore
SplineSet
882 491 m 0,0,1
 1389 491 1389 491 1590.57128906 625.1171875 c 0,2,3
 1619 644 1619 644 1599.36230469 1039.35644531 c 0,4,5
 1588 1284 1588 1284 1570.63476562 1397.25195312 c 1,6,-1
 1903.85449219 1598.67773438 l 2,7,8
 1941.56445313 1621.6765164 1941.56445313 1621.6765164 1941.56445312 1557.18945312 c 2,9,-1
 1941.56445312 741.268554688 l 2,10,11
 1942 309 1942 309 1723.30859375 160.013671875 c 0,12,13
 1488 0 1488 0 852 0 c 0,14,15
 490 -0 490 -0 302.755859375 102.430664062 c 0,16,17
 69 230 69 230 68.4517417509 537.642228227 c 0,18,19
 68 751 68 751 191.454101562 994.09375 c 1,20,-1
 345.512695312 938.196289062 l 1,21,22
 316 830 316 830 315.83335666 756.286267699 c 0,23,24
 316 687 316 687 341.935546875 647.479492188 c 0,25,26
 444 491 444 491 882 491 c 0,0,1
1151.23339844 767.109375 m 0,27,28
 1002 666 1002 666 698.579101562 762.51171875 c 1,29,-1
 718.5859375 967.451171875 l 1,30,31
 868 914 868 914 963.1953125 914.49609375 c 0,32,33
 1035 915 1035 915 1075.58203125 932.038085938 c 0,34,35
 1104 944 1104 944 1106.55273438 963.125 c 1,36,37
 1100 984 1100 984 999.1328125 1005.84179688 c 0,38,39
 796 1050 796 1050 801.818359375 1243.54296875 c 0,40,41
 809 1452 809 1452 1146.58886719 1495.87304688 c 0,42,43
 1216 1505 1216 1505 1227.62792969 1487.36328125 c 0,44,45
 1243 1466 1243 1466 1222.75683594 1419.70605469 c 1,46,-1
 1179.82519531 1296.83789062 l 1,47,48
 942 1274 942 1274 941.956054688 1225.328125 c 0,49,50
 942 1206 942 1206 1034.06445312 1190.328125 c 0,51,52
 1126 1174 1126 1174 1168.37304688 1146.43652344 c 0,53,54
 1253 1090 1253 1090 1255.92285156 965.239257812 c 0,55,56
 1259 841 1259 841 1151.23339844 767.109375 c 0,27,28
EndSplineSet
Substitution2: "'fina' Terminal Forms in Arabic lookup 9 subtable" uniFEDA
Substitution2: "'medi' Medial Forms in Arabic lookup 11 subtable" uniFEDC
Substitution2: "'init' Initial Forms in Arabic lookup 13 subtable" uniFEDB
EndChar

StartChar: uni0644
Encoding: 1604 1604 36
Width: 1472
VWidth: 3753
GlyphClass: 2
Flags: W
AnchorPoint: "Anchor-10" 595.865 1172.54 basechar 0
AnchorPoint: "Anchor-7" 654.818 -787.482 basechar 0
LayerCount: 2
Fore
SplineSet
1359 235 m 2,0,1
 1372.15522799 -227.456860919 1372.15522799 -227.456860919 1132.65917969 -428.263671875 c 0,2,3
 966 -567 966 -567 698.983398438 -567.462890625 c 24,4,5
 375.28461535 -566.579678212 375.28461535 -566.579678212 224.981445312 -405.92578125 c 0,6,7
 77 -248 77 -248 77.33203125 30.6279296875 c 0,8,9
 77 309 77 309 203.59765625 549.059570312 c 1,10,-1
 380.661132812 499.107421875 l 1,11,12
 329 326 329 326 328.901367188 207.822265625 c 0,13,14
 329 89 329 89 380.943359375 24.2216796875 c 0,15,16
 478 -95 478 -95 704.557617188 -95.9609375 c 0,17,18
 947 -97 947 -97 1040.31640625 50.4208984375 c 0,19,20
 1072 101 1072 101 1066.52636719 182.3984375 c 0,21,22
 1026 782 1026 782 955.416015625 1414.65039062 c 1,23,-1
 1254 1596.92773438 l 2,24,25
 1318 1636 1318 1636 1320.17382812 1557 c 2,26,-1
 1359 235 l 2,0,1
EndSplineSet
Substitution2: "'fina' Terminal Forms in Arabic lookup 9 subtable" uniFEDE
Substitution2: "'medi' Medial Forms in Arabic lookup 11 subtable" uniFEE0
Substitution2: "'init' Initial Forms in Arabic lookup 13 subtable" uniFEDF
EndChar

StartChar: uni0645
Encoding: 1605 1605 37
Width: 1237
VWidth: 3783
GlyphClass: 2
Flags: W
AnchorPoint: "Anchor-10" 654.993 1412.86 basechar 0
AnchorPoint: "Anchor-7" 268.265 -907.098 basechar 0
LayerCount: 2
Fore
SplineSet
102.013671875 -569 m 0,0,-1
 90.63671875 -231.83203125 l 2,1,2
 87.917557178 -149.151811596 87.917557178 -149.151811596 87.917557178 -77.6537504454 c 0,3,4
 87.917557178 160.401056518 87.917557178 160.401056518 118.061523438 274.493164062 c 0,5,6
 175 490 175 490 353.703125 563.305664062 c 1,7,8
 454 938 454 938 628.233398438 1014.07226562 c 0,9,10
 683.758044841 1038.29836564 683.758044841 1038.29836564 740.32219465 1038.29836564 c 0,11,12
 819.010233319 1038.29836564 819.010233319 1038.29836564 899.709960938 991.415039062 c 0,13,14
 1104 874 1104 874 1156.56835938 615.728515625 c 0,15,16
 1169.26618854 552.877881264 1169.26618854 552.877881264 1169.26618854 493.817370387 c 0,17,18
 1169.26618854 384.077613072 1169.26618854 384.077613072 1115.00752313 254 c 0,19,20
 1050.53932742 99.446456269 1050.53932742 99.446456269 971.494140625 63.0205078125 c 0,21,22
 948.365320616 51.9578134208 948.365320616 51.9578134208 925.561531574 51.9578134208 c 0,23,24
 915.341875552 51.9578134208 915.341875552 51.9578134208 905.1875 54.1796875 c 0,25,26
 635.610553763 113.871869143 635.610553763 113.871869143 491.659482707 113.871869143 c 0,27,28
 411.769122066 113.871869143 411.769122066 113.871869143 370.572265625 95.486328125 c 1,29,-1
 385.454101562 -399.473632812 l 2,30,31
 388 -498 388 -498 249.278320312 -649 c 0,32,33
 164 -743 164 -743 130 -744 c 0,34,35
 107.436970163 -744 107.436970163 -744 104.926757812 -663 c 2,36,-1
 102.013671875 -569 l 0,0,-1
931.943359375 523.497070312 m 1,37,38
 922.853966947 592.853368575 922.853966947 592.853368575 864 659.553762636 c 0,39,40
 796.522923807 736.026901248 796.522923807 736.026901248 724.387020997 735.89328175 c 0,41,42
 642 736 642 736 572.778320312 620.1953125 c 0,43,44
 559 597 559 597 549.029296875 573.71875 c 1,45,46
 738 570 738 570 931.943359375 523.497070312 c 1,37,38
EndSplineSet
Substitution2: "'init' Initial Forms in Arabic lookup 13 subtable" uniFEE3
Substitution2: "'medi' Medial Forms in Arabic lookup 11 subtable" uniFEE4
Substitution2: "'fina' Terminal Forms in Arabic lookup 9 subtable" uniFEE2
EndChar

StartChar: uni0647
Encoding: 1607 1607 39
Width: 947
VWidth: 3746
GlyphClass: 2
Flags: W
AnchorPoint: "Anchor-10" 404.569 1360.81 basechar 0
AnchorPoint: "Anchor-7" 452.886 -195.5 basechar 0
LayerCount: 2
Fore
SplineSet
411.143554688 681.3046875 m 1,0,1
 280.53125 523.3671875 280.53125 523.3671875 322.099609375 480.587890625 c 0,2,3
 358.397460938 443.154296875 358.397460938 443.154296875 475.942382812 444.290039062 c 0,4,5
 626.129882812 445.16015625 626.129882812 445.16015625 645.311523438 515.793945312 c 0,6,7
 651.729492188 540.412109375 651.729492188 540.412109375 627.388671875 570.76171875 c 0,8,9
 589.86328125 619.623046875 589.86328125 619.623046875 428.806640625 675.203125 c 0,10,11
 421.331054688 677.77734375 421.331054688 677.77734375 411.143554688 681.3046875 c 1,0,1
876.616210938 513.616210938 m 0,12,13
 879.994140625 267.688476562 879.994140625 267.688476562 762.028320312 126.057617188 c 0,14,15
 654.9296875 -2.02734375 654.9296875 -2.02734375 467.197265625 1.984375 c 128,-1,16
 279.46484375 5.9951171875 279.46484375 5.9951171875 183.108398438 111.965820312 c 0,17,18
 75.732421875 229.587890625 75.732421875 229.587890625 74.6650390625 416.802734375 c 0,19,20
 73.599609375 707.857421875 73.599609375 707.857421875 317.375976562 1033.65722656 c 0,21,22
 359.46484375 1089.87011719 359.46484375 1089.87011719 418.420898438 1067.13671875 c 0,23,24
 785.413085938 924.884765625 785.413085938 924.884765625 853.040039062 666.982421875 c 0,25,26
 874.661132812 583.526367188 874.661132812 583.526367188 876.616210938 513.616210938 c 0,12,13
EndSplineSet
Substitution2: "'fina' Terminal Forms in Arabic lookup 9 subtable" uniFEEA
Substitution2: "'medi' Medial Forms in Arabic lookup 11 subtable" uniFEEC
Substitution2: "'init' Initial Forms in Arabic lookup 13 subtable" uniFEEB
EndChar

StartChar: uni0648
Encoding: 1608 1608 40
Width: 928
VWidth: 3781
GlyphClass: 2
Flags: W
AnchorPoint: "Anchor-7" 361.246 -706.137 basechar 0
AnchorPoint: "Anchor-10" 437.92 1194.73 basechar 0
LayerCount: 2
Fore
SplineSet
623.155273438 486.203125 m 1,0,1
 602 541 602 541 577.75 576 c 0,2,3
 531 642 531 642 448 642.52734375 c 0,4,5
 372.95058818 641.871736551 372.95058818 641.871736551 348.184570312 577.583984375 c 0,6,7
 340.89742499 557.783128185 340.89742499 557.783128185 340.89742499 542.31045481 c 0,8,9
 340.89742499 497.939303018 340.89742499 497.939303018 400.825195312 489.162109375 c 0,10,11
 429.982347247 485.000664741 429.982347247 485.000664741 515.259271609 485.000664741 c 0,12,13
 561.099295364 485.000664741 561.099295364 485.000664741 623.155273438 486.203125 c 1,0,1
547 -2.1806640625 m 9,14,15
 490.505870099 -6.32947285999 490.505870099 -6.32947285999 467.789735598 -6.32947285999 c 0,16,17
 291.773828399 -6.32947285999 291.773828399 -6.32947285999 204.194335938 100.319335938 c 0,18,19
 117.581332214 205.21135433 117.581332214 205.21135433 117.581332214 368.064682517 c 0,20,21
 117.581332214 485.732674565 117.581332214 485.732674565 162.798828125 633.66015625 c 0,22,23
 210 787 210 787 280.213867188 865.26171875 c 0,24,25
 366.797445893 962.008429078 366.797445893 962.008429078 483.234811014 962.008429078 c 0,26,27
 722.118721303 962.008429078 722.118721303 962.008429078 805.818359375 663.370117188 c 0,28,29
 850 507 850 507 856.275390625 336.002929688 c 0,30,31
 857.877502606 296.116293502 857.877502606 296.116293502 857.877502606 257.974951217 c 0,32,33
 857.877502606 -28.7103817991 857.877502606 -28.7103817991 754.095463676 -253 c 0,34,35
 680.822967883 -411.353606033 680.822967883 -411.353606033 574.569335938 -500 c 0,36,37
 540 -529 540 -529 491 -534.287109375 c 0,38,39
 458.002909514 -537.59586849 458.002909514 -537.59586849 419.091063136 -537.59586849 c 0,40,41
 237.615393898 -537.59586849 237.615393898 -537.59586849 41.767578125 -503.25390625 c 0,42,43
 -4.09572939106 -495.113041238 -4.09572939106 -495.113041238 -4.09572939106 -461.412129234 c 0,44,45
 -4.09572939106 -452.664727487 -4.09572939106 -452.664727487 -1.005859375 -442.1953125 c 0,46,47
 4 -425 4 -425 66.8935546875 -383.8828125 c 0,48,49
 430 -145 430 -145 547 -2.1806640625 c 9,14,15
EndSplineSet
Substitution2: "'fina' Terminal Forms in Arabic lookup 9 subtable" uniFEEE
EndChar

StartChar: uni0649
Encoding: 1609 1609 41
Width: 1610
VWidth: 3753
GlyphClass: 2
Flags: W
AnchorPoint: "Anchor-10" 705.179 1171.08 basechar 0
AnchorPoint: "Anchor-7" 662.738 -737.887 basechar 0
LayerCount: 2
Fore
SplineSet
720 -557 m 0,0,1
 386 -557 386 -557 225.998046875 -385.462890625 c 0,2,3
 78 -228 78 -228 78.3486328125 51.0908203125 c 0,4,5
 78 348 78 348 232.936523438 643.952148438 c 1,6,-1
 410 594 l 1,7,8
 330 367 330 367 329.91796875 238.28515625 c 0,9,10
 330.000276624 -86.0901746457 330.000276624 -86.0901746457 724.352456519 -85.4988226353 c 0,11,12
 1057 -85 1057 -85 1217.59179688 39.5400390625 c 0,13,14
 1231.08734768 50.0681413696 1231.08734768 50.0681413696 1210.12597656 53.3037109375 c 2,15,-1
 940 95 l 2,16,17
 803 116 803 116 771.728515625 177.598632812 c 0,18,19
 753 215 753 215 753.085473769 276.444856431 c 0,20,21
 753 349 753 349 779.249023438 454.127929688 c 0,22,23
 828 649 828 649 964 800 c 4,24,25
 1130 984 1130 984 1346.0390625 983.649414062 c 4,26,27
 1465 984 1465 984 1546.43847656 919.826171875 c 5,28,29
 1520 746 1520 746 1493.85742188 571.462890625 c 5,30,31
 1412 583 1412 583 1369.29101562 583.436523438 c 4,32,33
 1142 583 1142 583 1007.06054688 448.129882812 c 1,34,-1
 1153.59277344 423.596679688 l 2,35,36
 1360 389 1360 389 1401.5234375 357 c 0,37,38
 1481 295 1481 295 1481.35611586 172.098691613 c 0,39,40
 1481 -146 1481 -146 1281.32519531 -340.076171875 c 0,41,42
 1059 -557 1059 -557 720 -557 c 0,0,1
EndSplineSet
Substitution2: "'fina' Terminal Forms in Arabic lookup 9 subtable" uniFEF0
Substitution2: "'medi' Medial Forms in Arabic lookup 11 subtable" uniFBE9
Substitution2: "'init' Initial Forms in Arabic lookup 13 subtable" uniFBE8
EndChar

StartChar: uni064B
Encoding: 1611 1611 43
Width: -25
VWidth: 2410
GlyphClass: 4
Flags: W
AnchorPoint: "Anchor-10" 637 1182.3 mark 0
AnchorPoint: "Anchor-9" 637 1182.3 mark 0
AnchorPoint: "Anchor-1" 595.196 1736 basemark 0
AnchorPoint: "Anchor-1" 637 1182.3 mark 0
LayerCount: 2
Fore
SplineSet
295.28125 1095.7578125 m 1,0,-1
 295.28125 1259.64550781 l 1,1,-1
 862.359375 1491.53027344 l 1,2,-1
 862.359375 1327.63769531 l 1,3,-1
 295.28125 1095.7578125 l 1,0,-1
295.28125 1361.59472656 m 5,4,-1
 295.28125 1525.48242188 l 5,5,-1
 862.359375 1757.36328125 l 5,6,-1
 862.359375 1593.47460938 l 5,7,-1
 295.28125 1361.59472656 l 5,4,-1
EndSplineSet
EndChar

StartChar: uni064C
Encoding: 1612 1612 44
Width: -25
VWidth: 2410
GlyphClass: 4
Flags: W
AnchorPoint: "Anchor-10" 706.932 1291.33 mark 0
AnchorPoint: "Anchor-9" 706.932 1291.33 mark 0
AnchorPoint: "Anchor-1" 593.593 2014.74 basemark 0
AnchorPoint: "Anchor-1" 706.932 1291.33 mark 0
LayerCount: 2
Fore
SplineSet
717.16015625 1678.85058594 m 1,0,1
 732 1713 732 1713 731.6796875 1740.08789062 c 4,2,3
 732 1765 732 1765 721.3359375 1782.35839844 c 0,4,5
 707 1806 707 1806 675.055664062 1805.66210938 c 0,6,7
 621 1806 621 1806 621.223384359 1759.81238533 c 0,8,9
 621 1713 621 1713 682.21875 1690.63183594 c 0,10,11
 695 1686 695 1686 717.16015625 1678.85058594 c 1,0,1
864.051757812 1655.39355469 m 1,12,13
 899 1654 899 1654 945.5625 1653.02832031 c 1,14,-1
 945.5625 1508.87695312 l 1,15,-1
 913.05078125 1509.3984375 l 2,16,17
 875.968195018 1509.99254467 875.968195018 1509.99254467 801.72265625 1517.12792969 c 1,18,19
 737.95703125 1385.80957031 737.95703125 1385.80957031 617.995117188 1301.38867188 c 0,20,21
 548.068359375 1252.18359375 548.068359375 1252.18359375 481.021484375 1251.87207031 c 0,22,23
 480.24249952 1251.86844242 480.24249952 1251.86844242 479.466184791 1251.86844242 c 0,24,25
 357.368249224 1251.86844242 357.368249224 1251.86844242 301.3203125 1341.61035156 c 0,26,27
 244.916992188 1431.92382812 244.916992188 1431.92382812 241.787109375 1597.25390625 c 2,28,-1
 241.171875 1629.85839844 l 1,29,-1
 360.03515625 1629.85839844 l 1,30,-1
 362.076171875 1600.04199219 l 2,31,32
 369.756835938 1487.72265625 369.756835938 1487.72265625 381.821289062 1461.1640625 c 0,33,34
 399.028320312 1423.28515625 399.028320312 1423.28515625 415.466796875 1408.31640625 c 128,-1,35
 431.904296875 1393.34765625 431.904296875 1393.34765625 451.89453125 1393.82421875 c 0,36,37
 583.236328125 1396.95507812 583.236328125 1396.95507812 664.440429688 1546.90234375 c 1,38,39
 474.161860818 1592.27747057 474.161860818 1592.27747057 474.161860818 1750.33780208 c 0,40,41
 474.161860818 1904.63942568 474.161860818 1904.63942568 607.904296875 1941.70898438 c 0,42,43
 646.472222937 1952.39672841 646.472222937 1952.39672841 691.903320312 1949.17773438 c 0,44,45
 818.53125 1940.20703125 818.53125 1940.20703125 861.67578125 1825.03613281 c 0,46,47
 875.892578125 1787.09570312 875.892578125 1787.09570312 875.892578125 1742.10058594 c 128,-1,48
 875.892578125 1697.10546875 875.892578125 1697.10546875 864.051757812 1655.39355469 c 1,12,13
EndSplineSet
EndChar

StartChar: uni064D
Encoding: 1613 1613 45
Width: -24
VWidth: 2238
GlyphClass: 4
Flags: W
AnchorPoint: "Anchor-7" 534.761 99.6797 mark 0
AnchorPoint: "Anchor-6" 534.761 99.6797 mark 0
AnchorPoint: "Anchor-0" 614.975 -406.579 basemark 0
AnchorPoint: "Anchor-0" 534.761 99.6797 mark 0
LayerCount: 2
Fore
SplineSet
244.065429688 -519.668945312 m 5,0,-1
 244.065429688 -355.78125 l 5,1,-1
 811.143554688 -123.896484375 l 5,2,-1
 811.143554688 -287.7890625 l 5,3,-1
 244.065429688 -519.668945312 l 5,0,-1
244.065429688 -253.83203125 m 1,4,-1
 244.065429688 -89.9443359375 l 1,5,-1
 811.143554688 141.936523438 l 1,6,-1
 811.143554688 -21.9521484375 l 1,7,-1
 244.065429688 -253.83203125 l 1,4,-1
EndSplineSet
EndChar

StartChar: uni064E
Encoding: 1614 1614 46
Width: -24
VWidth: 2238
GlyphClass: 4
Flags: W
AnchorPoint: "Anchor-10" 541.027 1343.54 mark 0
AnchorPoint: "Anchor-9" 541.027 1343.54 mark 0
AnchorPoint: "Anchor-1" 520.452 1658.02 basemark 0
AnchorPoint: "Anchor-1" 541.027 1343.54 mark 0
LayerCount: 2
Fore
SplineSet
236.219726562 1274.53125 m 1,0,-1
 236.219726562 1442.60839844 l 1,1,-1
 776.401367188 1663.49121094 l 1,2,-1
 776.401367188 1495.41796875 l 1,3,-1
 236.219726562 1274.53125 l 1,0,-1
EndSplineSet
EndChar

StartChar: uni064F
Encoding: 1615 1615 47
Width: -24
VWidth: 2238
GlyphClass: 4
Flags: W
AnchorPoint: "Anchor-10" 597.961 1290.64 mark 0
AnchorPoint: "Anchor-9" 597.961 1290.64 mark 0
AnchorPoint: "Anchor-1" 528.853 1887.42 basemark 0
AnchorPoint: "Anchor-1" 597.961 1290.64 mark 0
LayerCount: 2
Fore
SplineSet
745.669921875 1557.06347656 m 1,0,1
 770.879882812 1555.7890625 770.879882812 1555.7890625 790.764648438 1555.640625 c 2,2,-1
 822.53125 1555.40917969 l 1,3,-1
 822.53125 1416.41894531 l 1,4,-1
 789.965820312 1416.99121094 l 2,5,6
 743.30078125 1417.82421875 743.30078125 1417.82421875 680.61328125 1424.00585938 c 1,7,8
 625.995117188 1353.79101562 625.995117188 1353.79101562 534.109375 1297.05566406 c 128,-1,9
 442.223632812 1240.31933594 442.223632812 1240.31933594 308.266601562 1233.11035156 c 2,10,-1
 274.546875 1231.29394531 l 1,11,-1
 274.546875 1370.22753906 l 1,12,-1
 305.043945312 1371.65917969 l 2,13,14
 437.852539062 1377.90722656 437.852539062 1377.90722656 523.892578125 1465.21679688 c 1,15,16
 463.083984375 1487.99121094 463.083984375 1487.99121094 428.815429688 1526.34765625 c 0,17,18
 381.462890625 1579.35058594 381.462890625 1579.35058594 381.293945312 1635.36816406 c 0,19,20
 381.292678327 1635.78753223 381.292678327 1635.78753223 381.292678327 1636.20621711 c 0,21,22
 381.292678327 1738.41009415 381.292678327 1738.41009415 456.790039062 1799.8984375 c 0,23,24
 499.241210938 1834.67480469 499.241210938 1834.67480469 569.72265625 1834.88378906 c 0,25,26
 760.241831432 1834.33976649 760.241831432 1834.33976649 760.241831432 1651.49647941 c 0,27,28
 760.211573691 1608.6611725 760.211573691 1608.6611725 745.669921875 1557.06347656 c 1,0,1
606.05078125 1579.79003906 m 1,29,30
 619 1617 619 1617 619.122439406 1642.12001754 c 0,31,32
 619 1691 619 1691 568.283203125 1691.21582031 c 0,33,34
 530 1691 530 1691 522.856445312 1655.60449219 c 0,35,36
 516 1620 516 1620 560 1597 c 4,37,38
 584 1585 584 1585 606.05078125 1579.79003906 c 1,29,30
EndSplineSet
EndChar

StartChar: uni0650
Encoding: 1616 1616 48
Width: -24
VWidth: 2238
GlyphClass: 4
Flags: W
AnchorPoint: "Anchor-7" 549.05 10.7227 mark 0
AnchorPoint: "Anchor-6" 549.05 10.7227 mark 0
AnchorPoint: "Anchor-0" 595.143 -289.976 basemark 0
AnchorPoint: "Anchor-0" 549.05 10.7227 mark 0
LayerCount: 2
Fore
SplineSet
281.181640625 -354.318359375 m 1,0,-1
 281.181640625 -186.241210938 l 1,1,-1
 821.362304688 34.640625 l 1,2,-1
 821.362304688 -133.432617188 l 1,3,-1
 281.181640625 -354.318359375 l 1,0,-1
EndSplineSet
EndChar

StartChar: uni0651
Encoding: 1617 1617 49
Width: -24
VWidth: 2238
GlyphClass: 4
Flags: W
AnchorPoint: "Anchor-10" 589.815 1371.68 mark 0
AnchorPoint: "Anchor-9" 589.815 1371.68 mark 0
AnchorPoint: "Anchor-1" 560.134 1807.24 basemark 0
AnchorPoint: "Anchor-1" 589.815 1371.68 mark 0
LayerCount: 2
Fore
SplineSet
353.83203125 1656.94726562 m 1,0,-1
 355.810546875 1563.97949219 l 2,1,2
 356.942382812 1519.203125 356.942382812 1519.203125 372.067382812 1501.75292969 c 128,-1,3
 387.192382812 1484.3046875 387.192382812 1484.3046875 418.973632812 1485.33007812 c 0,4,5
 480.938476562 1487.32910156 480.938476562 1487.32910156 481.462890625 1582.42480469 c 2,6,-1
 482.21484375 1718.86035156 l 1,7,8
 534.186523438 1736.18359375 534.186523438 1736.18359375 595.13671875 1742.21191406 c 2,9,-1
 618.119140625 1744.484375 l 1,10,-1
 620.259765625 1633.97949219 l 2,11,12
 621.150390625 1581.96972656 621.150390625 1581.96972656 648.248046875 1568.29785156 c 0,13,14
 661.852539062 1561.43261719 661.852539062 1561.43261719 689.600585938 1561.44628906 c 0,15,16
 744.17440215 1561.47128343 744.17440215 1561.47128343 744.17440215 1637.05772828 c 0,17,18
 744.17440215 1641.20932206 744.17440215 1641.20932206 744.009765625 1645.58886719 c 2,19,-1
 740.892578125 1728.54003906 l 1,20,21
 829.064453125 1786.51367188 829.064453125 1786.51367188 844.498046875 1796.46386719 c 2,22,-1
 874.421875 1815.75488281 l 1,23,-1
 882.05859375 1722.22949219 l 2,24,25
 885.238509928 1682.61659912 885.238509928 1682.61659912 885.238509928 1647.59948709 c 0,26,27
 885.238509928 1380.78996632 885.238509928 1380.78996632 700.627470971 1380.78996632 c 0,28,29
 630.359965744 1380.89056399 630.359965744 1380.89056399 577.015625 1421.66015625 c 1,30,31
 521.368660078 1319.93476457 521.368660078 1319.93476457 408.310920297 1319.93476457 c 0,32,33
 220.688136987 1319.93476457 220.688136987 1319.93476457 220.688136987 1555.45071899 c 0,34,35
 220.688136987 1578.87712434 220.688136987 1578.87712434 222.551757812 1604.63378906 c 2,36,-1
 229.995117188 1707.4921875 l 1,37,-1
 257.140625 1696.54003906 l 2,38,39
 320.672851562 1670.90820312 320.672851562 1670.90820312 353.83203125 1656.94726562 c 1,0,-1
EndSplineSet
EndChar

StartChar: uni0652
Encoding: 1618 1618 50
Width: -31
VWidth: 2796
GlyphClass: 4
Flags: W
AnchorPoint: "Anchor-10" 711.878 1517.92 mark 0
AnchorPoint: "Anchor-9" 711.878 1517.92 mark 0
AnchorPoint: "Anchor-1" 702.956 2110.45 basemark 0
AnchorPoint: "Anchor-1" 711.878 1517.92 mark 0
LayerCount: 2
Fore
SplineSet
713.103515625 1673.22558594 m 0,0,1
 792.099609375 1673.22558594 792.099609375 1673.22558594 820.997070312 1743.703125 c 0,2,3
 829.19921875 1763.70800781 829.19921875 1763.70800781 829.19921875 1784.34472656 c 128,-1,4
 829.19921875 1804.98144531 829.19921875 1804.98144531 825.544921875 1819.34179688 c 0,5,6
 818.321289062 1847.72753906 818.321289062 1847.72753906 790.313476562 1875.73632812 c 128,-1,7
 762.306640625 1903.74511719 762.306640625 1903.74511719 713.099609375 1903.74511719 c 0,8,9
 634.3515625 1903.74511719 634.3515625 1903.74511719 606.177734375 1833.78515625 c 0,10,11
 597.84375 1813.09082031 597.84375 1813.09082031 597.84375 1776.18457031 c 128,-1,12
 597.84375 1739.27734375 597.84375 1739.27734375 622.578125 1714.54492188 c 128,-1,13
 647.3125 1689.81152344 647.3125 1689.81152344 660.991210938 1684.30273438 c 128,-1,14
 674.669921875 1678.79492188 674.669921875 1678.79492188 681.90625 1676.95214844 c 0,15,16
 696.538085938 1673.22558594 696.538085938 1673.22558594 713.103515625 1673.22558594 c 0,0,1
964.603515625 1737.7578125 m 0,17,18
 959.989257812 1712.94238281 959.989257812 1712.94238281 950.693359375 1690.14550781 c 128,-1,19
 941.387695312 1667.32714844 941.387695312 1667.32714844 927.436523438 1646.61035156 c 128,-1,20
 913.583007812 1626.03710938 913.583007812 1626.03710938 895.110351562 1607.44433594 c 0,21,22
 821.01953125 1532.88378906 821.01953125 1532.88378906 713.916015625 1532.88378906 c 128,-1,23
 606.80859375 1532.88378906 606.80859375 1532.88378906 532.723632812 1607.44628906 c 128,-1,24
 458.654296875 1681.98828125 458.654296875 1681.98828125 458.654296875 1789.04003906 c 128,-1,25
 458.654296875 1896.10839844 458.654296875 1896.10839844 532.747070312 1970.21386719 c 128,-1,26
 606.836914062 2044.30273438 606.836914062 2044.30273438 713.916015625 2044.30273438 c 0,27,28
 919.849609375 2044.30273438 919.849609375 2044.30273438 963.2109375 1846.53320312 c 1,29,-1
 967.596679688 1819.18847656 l 2,30,31
 969.178710938 1804.02441406 969.178710938 1804.02441406 969.178710938 1783.1953125 c 128,-1,32
 969.178710938 1762.36621094 969.178710938 1762.36621094 964.603515625 1737.7578125 c 0,17,18
EndSplineSet
EndChar

StartChar: uni0653
Encoding: 1619 1619 51
Width: -3
VWidth: 2763
GlyphClass: 4
Flags: W
AnchorPoint: "Anchor-10" 485.314 1591.4 mark 0
AnchorPoint: "Anchor-9" 485.314 1591.4 mark 0
AnchorPoint: "Anchor-1" 455.074 2066.98 basemark 0
AnchorPoint: "Anchor-1" 485.314 1591.4 mark 0
LayerCount: 2
Fore
SplineSet
361.295898438 1668.19628906 m 1,0,1
 284 1666 284 1666 180.21484375 1573.33007812 c 1,2,3
 130 1605 130 1605 102.891601562 1642.38769531 c 1,4,5
 145 1817 145 1817 215.411132812 1899.19140625 c 0,6,7
 254 1944 254 1944 323.298828125 1944.29101562 c 0,8,9
 384 1944 384 1944 517.91015625 1926.82910156 c 0,10,11
 652 1909 652 1909 733.3671875 1929.69335938 c 0,12,13
 839 1957 839 1957 855.4609375 1944.25488281 c 0,14,15
 885 1921 885 1921 813 1806 c 4,16,17
 770 1737 770 1737 727.30078125 1699.53613281 c 0,18,19
 665 1643 665 1643 361.295898438 1668.19628906 c 1,0,1
EndSplineSet
EndChar

StartChar: uni0657
Encoding: 1623 1623 54
Width: -34
VWidth: 3019
GlyphClass: 4
Flags: W
AnchorPoint: "Anchor-10" 743.995 1787.47 mark 0
AnchorPoint: "Anchor-9" 743.995 1787.47 mark 0
AnchorPoint: "Anchor-1" 743.995 2746.93 basemark 0
AnchorPoint: "Anchor-1" 743.995 1787.47 mark 0
LayerCount: 2
Fore
SplineSet
554.524414062 1886.17578125 m 0,0,1
 334.931640625 1970.12109375 334.931640625 1970.12109375 416.420898438 2239.11523438 c 1,2,3
 365.309570312 2241.49902344 365.309570312 2241.49902344 341.5 2241.67675781 c 2,4,-1
 309.739257812 2241.9140625 l 1,5,-1
 309.739257812 2411.05371094 l 1,6,-1
 342.375 2410.40332031 l 2,7,8
 410.6640625 2408.51855469 410.6640625 2408.51855469 496.09765625 2400.4375 c 1,9,10
 700.958007812 2678.86132812 700.958007812 2678.86132812 1017.12011719 2706.36523438 c 6,11,-1
 1051.89257812 2709.390625 l 1,12,-1
 1051.89257812 2539.68652344 l 1,13,-1
 1021.70605469 2537.97363281 l 2,14,15
 908.793945312 2531.18457031 908.793945312 2531.18457031 747.431640625 2404.85058594 c 0,16,17
 716.795898438 2380.78515625 716.795898438 2380.78515625 689.543945312 2353.01269531 c 1,18,19
 833.061523438 2305.05273438 833.061523438 2305.05273438 876.724609375 2182.59863281 c 0,20,21
 915.194335938 2076.78710938 915.194335938 2076.78710938 852.967773438 1970.91210938 c 0,22,23
 793.594726562 1869.85449219 793.594726562 1869.85449219 641.2890625 1871.32519531 c 0,24,25
 591.99609375 1871.98828125 591.99609375 1871.98828125 554.524414062 1886.17578125 c 0,0,1
586.366210938 2211.47949219 m 1,26,27
 565.678710938 2163.21484375 565.678710938 2163.21484375 565.678710938 2130.35839844 c 128,-1,28
 565.678710938 2097.50292969 565.678710938 2097.50292969 570.026367188 2087.21679688 c 0,29,30
 587.501953125 2045.87402344 587.501953125 2045.87402344 627.271484375 2040.17480469 c 1,31,32
 715.662109375 2040.17480469 715.662109375 2040.17480469 715.662109375 2110.73632812 c 0,33,34
 715.662109375 2170.25 715.662109375 2170.25 586.366210938 2211.47949219 c 1,26,27
EndSplineSet
EndChar

StartChar: uni065A
Encoding: 1626 1626 55
Width: 1473
VWidth: 3019
GlyphClass: 4
Flags: W
AnchorPoint: "Anchor-10" 743.995 1787.47 mark 0
AnchorPoint: "Anchor-9" 743.995 1787.47 mark 0
AnchorPoint: "Anchor-1" 741.044 2451.72 basemark 0
AnchorPoint: "Anchor-1" 743.995 1787.47 mark 0
LayerCount: 2
Fore
SplineSet
632.928710938 1875.75097656 m 1,0,-1
 341.216796875 2363.43554688 l 1,1,-1
 553.84375 2363.43554688 l 1,2,-1
 743.995117188 2078.19726562 l 1,3,-1
 934.1484375 2363.43554688 l 1,4,-1
 1146.77929688 2363.43554688 l 1,5,-1
 855.061523438 1875.75097656 l 1,6,-1
 632.928710938 1875.75097656 l 1,0,-1
EndSplineSet
EndChar

StartChar: afii57392
Encoding: 1632 1632 56
Width: 973
VWidth: 3399
GlyphClass: 2
Flags: W
LayerCount: 2
Fore
SplineSet
490.950195312 932.525390625 m 1,0,-1
 796.166992188 627.309570312 l 1,1,-1
 485.200195312 316.341796875 l 1,2,-1
 179.983398438 621.559570312 l 1,3,-1
 490.950195312 932.525390625 l 1,0,-1
EndSplineSet
EndChar

StartChar: afii57393
Encoding: 1633 1633 57
Width: 878
VWidth: 3386
GlyphClass: 2
Flags: W
LayerCount: 2
Fore
SplineSet
687.756835938 326.870117188 m 0,0,1
 691 162 691 162 677.899414062 108.638671875 c 0,2,3
 654.931297716 16.7250678088 654.931297716 16.7250678088 437.724609375 -0.0732421875 c 2,4,-1
 414.364257812 -1.8798828125 l 1,5,-1
 412.014648438 35.625 l 2,6,7
 375.008030165 624.872137689 375.008030165 624.872137689 105.755859375 1363.01171875 c 6,8,-1
 100.762695312 1376.70019531 l 5,9,-1
 360.326171875 1548.96289062 l 6,10,11
 417 1587 417 1587 436.22265625 1531.68066406 c 4,12,13
 677 826 677 826 687.756835938 326.870117188 c 0,0,1
EndSplineSet
EndChar

StartChar: afii57394
Encoding: 1634 1634 58
Width: 1310
VWidth: 3386
GlyphClass: 2
Flags: W
LayerCount: 2
Fore
SplineSet
743.595703125 1214.52539062 m 1052,0,-1
1007.66796875 1551.72167969 m 5,1,-1
 1229.40917969 1526.14257812 l 5,2,3
 1232 1474 1232 1474 1229.67382812 1465.72363281 c 5,4,5
 1233 782 1233 782 750.958007812 766.93359375 c 4,6,7
 687 765 687 765 625.462890625 770.252929688 c 5,8,9
 703 334 703 334 676.724609375 104.932617188 c 0,10,11
 666.044625992 13.3825392718 666.044625992 13.3825392718 436.272460938 -4.0302734375 c 2,12,-1
 412.948242188 -5.7978515625 l 1,13,-1
 410.594726562 31.58203125 l 2,14,15
 373 625 373 625 100.473632812 1377.00683594 c 5,16,-1
 360.104492188 1549.35644531 l 6,17,18
 385 1566 385 1566 405.997070312 1563.85644531 c 4,19,20
 426 1562 426 1562 444.930664062 1501.45703125 c 132,-1,21
 464 1441 464 1441 499.140625 1353.81933594 c 4,22,23
 556 1213 556 1213 743.595703125 1214.52539062 c 4,24,25
 973.816596655 1216.99803019 973.816596655 1216.99803019 1000.65527344 1482.37988281 c 6,26,-1
 1007.66796875 1551.72167969 l 5,1,-1
EndSplineSet
EndChar

StartChar: afii57395
Encoding: 1635 1635 59
Width: 1535
VWidth: 3386
GlyphClass: 2
Flags: W
LayerCount: 2
Fore
SplineSet
499.140625 1354.48632812 m 4,0,1
 555 1216 555 1216 676.705078125 1215.0859375 c 4,2,3
 787.214534153 1214.99983284 787.214534153 1214.99983284 798.073242188 1371.21875 c 6,4,-1
 807.745117188 1510.36328125 l 5,5,-1
 1023.86523438 1503.49316406 l 5,6,-1
 1023.43359375 1324.27734375 l 6,7,8
 1023 1204 1023 1204 1123.859375 1201.85839844 c 4,9,10
 1175 1201 1175 1201 1200.23632812 1261.59179688 c 4,11,12
 1219.43625773 1306.67624469 1219.43625773 1306.67624469 1230.90136719 1456.35449219 c 6,13,-1
 1236.48339844 1529.22851562 l 5,14,-1
 1454.87207031 1509.35253906 l 5,15,-1
 1454.10351562 1476.98828125 l 6,16,17
 1438 790 1438 790 1102.66601562 790.286132812 c 4,18,19
 956 790 956 790 877.8984375 925.590820312 c 5,20,21
 786 779 786 779 624.51953125 775.899414062 c 5,22,23
 703 332 703 332 676.724609375 104.932617188 c 0,24,25
 666.044625992 13.3825392718 666.044625992 13.3825392718 436.272460938 -4.0302734375 c 2,26,-1
 412.948242188 -5.7978515625 l 1,27,-1
 410.594726562 31.58203125 l 2,28,29
 373 633 373 633 100.473632812 1377.67285156 c 5,30,-1
 360.104492188 1550.0234375 l 6,31,32
 386 1567 386 1567 405.997070312 1564.5234375 c 132,-1,33
 426 1562 426 1562 444.930664062 1502.12402344 c 4,34,35
 464 1442 464 1442 499.140625 1354.48632812 c 4,0,1
EndSplineSet
EndChar

StartChar: afii57396
Encoding: 1636 1636 60
Width: 1002
VWidth: 3393
GlyphClass: 2
Flags: W
LayerCount: 2
Fore
SplineSet
460.2421875 1039.82910156 m 5,0,1
 604.570338876 950.022878055 604.570338876 950.022878055 752.387695312 885.700195312 c 6,2,-1
 782.2265625 872.715820312 l 5,3,-1
 796.072265625 715.647460938 l 1,4,-1
 761.713867188 700.793945312 l 2,5,6
 529 600 529 600 425.151367188 496.099609375 c 1,7,8
 617.604631329 428.788528459 617.604631329 428.788528459 872.826171875 437.603515625 c 2,9,-1
 940.40234375 439.9375 l 1,10,-1
 934.430664062 129.09765625 l 2,11,12
 933 45 933 45 919.4609375 29.8662109375 c 0,13,14
 900 7 900 7 820.802734375 10.8759765625 c 0,15,16
 320 31 320 31 169.40234375 148.140625 c 0,17,18
 -12 289 -12 289 185.04296875 542.53125 c 0,19,20
 266 646 266 646 367.530273438 721.181640625 c 1,21,22
 70 873 70 873 70.6357421875 1028.33886719 c 4,23,24
 71 1253 71 1253 682.37890625 1536.22558594 c 4,25,26
 777 1580 777 1580 808.528320312 1558.65722656 c 4,27,28
 830.773684209 1544.14761521 830.773684209 1544.14761521 813.017578125 1454.09570312 c 6,29,-1
 745.642578125 1112.39648438 l 5,30,-1
 704.045898438 1105.58984375 l 6,31,32
 627 1093 627 1093 460.2421875 1039.82910156 c 5,0,1
EndSplineSet
EndChar

StartChar: afii57397
Encoding: 1637 1637 61
Width: 1236
VWidth: 3735
GlyphClass: 2
Flags: W
LayerCount: 2
Fore
SplineSet
590.791992188 990.575195312 m 1,0,1
 382 734 382 734 382.098252423 607.369604931 c 0,2,3
 382 447 382 447 627.503264709 446.66423706 c 0,4,5
 862 447 862 447 861.957595254 599.210215827 c 0,6,7
 862 732 862 732 590.791992188 990.575195312 c 1,0,1
135.06640625 235.28515625 m 0,8,9
 67 348 67 348 67.4447091843 506.29906754 c 0,10,11
 67 792 67 792 382.0546875 1167.74121094 c 1,12,-1
 308.307617188 1223.05175781 l 1,13,-1
 506.115234375 1574.4375 l 5,14,-1
 565.776367188 1519.32617188 l 6,15,16
 1156 974 1156 974 1156.18896734 533.74290202 c 0,17,18
 1156 252 1156 252 943.764648438 104.822265625 c 0,19,20
 806 9 806 9 584.545331617 9.26321062882 c 0,21,22
 271 9 271 9 135.06640625 235.28515625 c 0,8,9
EndSplineSet
EndChar

StartChar: afii57398
Encoding: 1638 1638 62
Width: 1330
VWidth: 3396
GlyphClass: 2
Flags: W
LayerCount: 2
Fore
SplineSet
996.635742188 1461.57226562 m 6,0,1
 1018.99882773 796.00683201 1018.99882773 796.00683201 1059.31640625 561.03515625 c 0,2,3
 1099 325 1099 325 1170.12597656 236.798828125 c 1,4,-1
 959.994140625 0 l 1,5,6
 819 112 819 112 781.71875 343.221679688 c 0,7,8
 720 732 720 732 711.049804688 1080.63378906 c 5,9,10
 542 1055 542 1055 364.943359375 1059.35449219 c 4,11,12
 144 1066 144 1066 95.0478515625 1169.07128906 c 4,13,14
 59 1246 59 1246 58.7353515625 1453.54492188 c 4,15,16
 59 1562 59 1562 89.599609375 1563.53515625 c 4,17,18
 97 1564 97 1564 170.626953125 1537.01757812 c 4,19,20
 436.68886617 1438.11565629 436.68886617 1438.11565629 935.461914062 1512.53027344 c 6,21,-1
 994.626953125 1521.35742188 l 5,22,-1
 996.635742188 1461.57226562 l 6,0,1
EndSplineSet
EndChar

StartChar: afii57399
Encoding: 1639 1639 63
Width: 1421
VWidth: 3397
GlyphClass: 2
Flags: W
LayerCount: 2
Fore
SplineSet
1128.52636719 1558.65136719 m 6,0,1
 1370.49902344 1324.17773438 l 5,2,-1
 1354.99609375 1293.19433594 l 6,3,4
 954.383043052 492.765323974 954.383043052 492.765323974 839.16015625 24.7919921875 c 2,5,-1
 830.166992188 -11.7333984375 l 1,6,-1
 601.494140625 -11.7333984375 l 1,7,-1
 592.147460938 24.1728515625 l 2,8,9
 441.394824797 604.480161131 441.394824797 604.480161131 66.939453125 1292.03027344 c 6,10,11
 51.4208984375 1320.52441406 l 5,12,-1
 263.46484375 1565.05175781 l 6,13,14
 294 1601 294 1601 332.797851562 1537.31835938 c 4,15,16
 516 1239 516 1239 712.291992188 580.884765625 c 5,17,18
 872 1161 872 1161 1058.12695312 1522.38476562 c 4,19,20
 1094 1592 1094 1592 1128.52636719 1558.65136719 c 6,0,1
EndSplineSet
EndChar

StartChar: afii57400
Encoding: 1640 1640 64
Width: 1421
VWidth: 3397
GlyphClass: 2
Flags: W
LayerCount: 2
Fore
SplineSet
1128.52636719 -5.3330078125 m 2,0,1
 1093.927826 -38.8592986254 1093.927826 -38.8592986254 1058.12695312 30.93359375 c 0,2,3
 838 462 838 462 701.625976562 961.766601562 c 1,4,5
 500 288 500 288 332.797851562 16 c 0,6,7
 294.019391404 -46.9685122145 294.019391404 -46.9685122145 263.46484375 -11.7333984375 c 2,8,-1
 51.4208984375 232.79296875 l 1,9,-1
 66.939453125 261.288085938 l 2,10,11
 446.480272892 958.882739839 446.480272892 958.882739839 592.147460938 1518.47851562 c 6,12,-1
 601.494140625 1554.38476562 l 5,13,-1
 830.166992188 1554.38476562 l 5,14,-1
 839.16015625 1517.86035156 l 6,15,16
 948.757732919 1071.98561277 948.757732919 1071.98561277 1354.99609375 260.123046875 c 2,17,-1
 1370.49902344 229.140625 l 1,18,-1
 1128.52636719 -5.3330078125 l 2,0,1
EndSplineSet
EndChar

StartChar: afii57401
Encoding: 1641 1641 65
Width: 1160
VWidth: 3397
GlyphClass: 2
Flags: W
LayerCount: 2
Fore
SplineSet
667.422851562 621.849609375 m 5,0,1
 330 575 330 575 207.798828125 679.0625 c 4,2,3
 85 783 85 783 90.4658203125 1019.32617188 c 4,4,5
 94 1166 94 1166 155.751953125 1302 c 4,6,7
 246 1500 246 1500 412 1544.03417969 c 4,8,9
 449 1554 449 1554 489.396484375 1556.65625 c 4,10,11
 666 1569 666 1569 791.26171875 1430.25683594 c 4,12,13
 924 1283 924 1283 928.31640625 1018.03125 c 4,14,15
 938 407 938 407 1081.39355469 235.731445312 c 1,16,-1
 884.061523438 0 l 1,17,18
 681 112 681 112 667.422851562 621.849609375 c 5,0,1
336.096679688 1077.72070312 m 4,19,20
 318 1006 318 1006 405.501953125 998.674804688 c 4,21,22
 520 989 520 989 649.814453125 1007.12792969 c 5,23,-1
 646.455078125 1029.97851562 l 6,24,25
 622 1199 622 1199 465.987304688 1192.47167969 c 4,26,27
 364 1188 364 1188 336.096679688 1077.72070312 c 4,19,20
EndSplineSet
EndChar

StartChar: afii57381
Encoding: 1642 1642 66
Width: 1311
VWidth: 3443
GlyphClass: 2
Flags: W
LayerCount: 2
Fore
SplineSet
120.9453125 1310.31152344 m 128,-1,1
 120.9453125 1402.57714844 120.9453125 1402.57714844 186.01171875 1467.64355469 c 128,-1,2
 251.078125 1532.70996094 251.078125 1532.70996094 343.34375 1532.17675781 c 128,-1,3
 435.610351562 1531.64355469 435.610351562 1531.64355469 500.676757812 1467.64355469 c 0,4,5
 565.743164062 1402.57714844 565.743164062 1402.57714844 565.208984375 1310.31152344 c 128,-1,6
 564.67578125 1218.04492188 564.67578125 1218.04492188 500.676757812 1152.97851562 c 0,7,8
 435.610351562 1087.91308594 435.610351562 1087.91308594 343.34375 1087.91308594 c 128,-1,9
 251.078125 1087.91308594 251.078125 1087.91308594 186.01171875 1152.97851562 c 128,-1,0
 120.9453125 1218.04492188 120.9453125 1218.04492188 120.9453125 1310.31152344 c 128,-1,1
746.701171875 375.357421875 m 0,10,11
 747 467 747 467 811.767578125 532.689453125 c 0,12,13
 878 598 878 598 969.099609375 597.22265625 c 0,14,15
 1062 596 1062 596 1126.43164062 532.689453125 c 0,16,17
 1191 468 1191 468 1190.96484375 375.357421875 c 0,18,19
 1191 283 1191 283 1126.43164062 218.025390625 c 128,-1,20
 1062 153 1062 153 969.099609375 152.958984375 c 0,21,22
 877 153 877 153 811.767578125 218.025390625 c 0,23,24
 747 283 747 283 746.701171875 375.357421875 c 0,10,11
882.73828125 1595.64648438 m 5,25,-1
 1133 1466 l 5,26,-1
 379.663085938 10.990234375 l 1,27,-1
 129 145 l 1,28,-1
 882.73828125 1595.64648438 l 5,25,-1
EndSplineSet
EndChar

StartChar: uni066B
Encoding: 1643 1643 67
Width: 938
VWidth: 3443
GlyphClass: 2
Flags: W
LayerCount: 2
Fore
SplineSet
628.513671875 711.489257812 m 1,0,-1
 811.674804688 594.060546875 l 5,1,-1
 205.569335938 -415.991210938 l 5,2,-1
 21.115234375 -289.98046875 l 1,3,-1
 628.513671875 711.489257812 l 1,0,-1
EndSplineSet
EndChar

StartChar: uni066C
Encoding: 1644 1644 68
Width: 559
VWidth: 3395
GlyphClass: 2
Flags: W
LayerCount: 2
Fore
SplineSet
228.336914062 1.775390625 m 1,0,1
 147 9 147 9 105.6015625 68.9736328125 c 0,2,3
 65 129 65 129 80.5634765625 208.342773438 c 0,4,5
 97 292 97 292 156.458984375 332.873046875 c 0,6,7
 204 365 204 365 261 364.5 c 0,8,9
 319 364 319 364 362.375 334.73046875 c 0,10,11
 457 274 457 274 443.956054688 115.380859375 c 0,12,13
 421 -157 421 -157 132.708984375 -327.955078125 c 0,14,15
 67 -367 67 -367 35.1396484375 -316.015625 c 1,16,17
 17 -279 17 -279 58.9169921875 -247.848632812 c 0,18,19
 133 -193 133 -193 179.260742188 -120.840820312 c 0,20,21
 225 -49 225 -49 228.336914062 1.775390625 c 1,0,1
EndSplineSet
EndChar

StartChar: afii63167
Encoding: 1645 1645 69
Width: 1734
VWidth: 3194
GlyphClass: 2
Flags: W
LayerCount: 2
Fore
SplineSet
123.602539062 1218.84375 m 1,0,-1
 691.711914062 1218.84375 l 1,1,-1
 868.931640625 1758.40332031 l 1,2,-1
 1046.1484375 1218.84375 l 1,3,-1
 1614.26171875 1218.84375 l 1,4,-1
 1155.34570312 883.364257812 l 1,5,-1
 1331.00683594 343.712890625 l 1,6,-1
 868.931640625 677.615234375 l 1,7,-1
 406.853515625 343.71484375 l 1,8,-1
 582.512695312 883.364257812 l 1,9,-1
 123.602539062 1218.84375 l 1,0,-1
EndSplineSet
EndChar

StartChar: uni066E
Encoding: 1646 1646 70
Width: 1855
VWidth: 3753
GlyphClass: 2
Flags: W
AnchorPoint: "Anchor-10" 798.573 1300.55 basechar 0
AnchorPoint: "Anchor-7" 656.479 -183.49 basechar 0
LayerCount: 2
Fore
SplineSet
863.188476562 491.239257812 m 28,0,1
 1332 492 1332 492 1506.34472656 619.986328125 c 0,2,3
 1532 639 1532 639 1520.30957031 663.081054688 c 0,4,5
 1473.55024726 759.400338528 1473.55024726 759.400338528 1432.90234375 858.35546875 c 1,6,-1
 1615.49023438 1083.19140625 l 2,7,8
 1639 1112 1639 1112 1654 1087 c 0,9,10
 1784 879 1784 879 1784.55371094 657.0625 c 0,11,12
 1785 482 1785 482 1732.921875 362.6640625 c 0,13,14
 1572 0 1572 0 833.678710938 0 c 0,15,16
 490 0 490 0 302.755859375 102.430664062 c 0,17,18
 69 230 69 230 68.4517417509 537.642228227 c 0,19,20
 68 751 68 751 191.454101562 994.09375 c 1,21,-1
 345.512695312 938.196289062 l 1,22,23
 316 830 316 830 315.83335666 756.286267699 c 0,24,25
 316 687 316 687 341.935546875 647.479492188 c 0,26,27
 444 491 444 491 863.188476562 491.239257812 c 28,0,1
EndSplineSet
Substitution2: "'init' Initial Forms in Arabic lookup 13 subtable" uni066E.init
Substitution2: "'medi' Medial Forms in Arabic lookup 11 subtable" uni066E.medi
Substitution2: "'fina' Terminal Forms in Arabic lookup 9 subtable" uni066E.fina
EndChar

StartChar: uni066F
Encoding: 1647 1647 71
Width: 1438
VWidth: 3781
GlyphClass: 2
Flags: W
AnchorPoint: "Anchor-10" 557.965 1195.3 basechar 0
AnchorPoint: "Anchor-7" 578.603 -667.213 basechar 0
LayerCount: 2
Fore
SplineSet
1166.11132812 190.608398438 m 1,0,1
 1064.21383025 176.310633963 1064.21383025 176.310633963 987.07829428 176.310633963 c 0,2,3
 731.272331024 176.310633963 731.272331024 176.310633963 701.485351562 361.08984375 c 0,4,5
 695.980792895 395.34096251 695.980792895 395.34096251 695.980792895 435.959178084 c 0,6,7
 695.980792895 494.849560734 695.980792895 494.849560734 707.551757812 567.124023438 c 0,8,9
 768 950 768 950 1027.61914062 950.026367188 c 0,10,11
 1152 950 1152 950 1227.37402344 854.563476562 c 0,12,13
 1368.02275868 676.868590059 1368.02275868 676.868590059 1368.02275868 334.829887671 c 0,14,15
 1368.02275868 37.9074689834 1368.02275868 37.9074689834 1304.52539062 -116.265625 c 0,16,17
 1160 -466 1160 -466 699.040039062 -466.14453125 c 0,18,19
 376 -466 376 -466 225.038085938 -304.607421875 c 0,20,21
 77 -147 77 -147 77.388671875 131.946289062 c 0,22,23
 77 410 77 410 203.654296875 650.377929688 c 1,24,-1
 380.717773438 600.42578125 l 1,25,26
 329 427 329 427 328.958007812 309.140625 c 0,27,28
 329 190 329 190 381 125.540039062 c 0,29,30
 478.678711876 5.3951845207 478.678711876 5.3951845207 732.66341625 5.3951845207 c 0,31,32
 1088.16630922 5.3951845207 1088.16630922 5.3951845207 1166.11132812 190.608398438 c 1,0,1
1164.29785156 520.643554688 m 1,33,34
 1103.9783231 657.409251334 1103.9783231 657.409251334 1005.57898653 657.409251334 c 0,35,36
 930.909104468 657.409251334 930.909104468 657.409251334 905.336914062 606.038085938 c 0,37,38
 892.020606166 578.954529877 892.020606166 578.954529877 892.020606166 560.026895108 c 0,39,40
 892.020606166 543.539214511 892.020606166 543.539214511 902.125 533.240234375 c 0,41,42
 924.026908394 510.819290072 924.026908394 510.819290072 1022.49502138 510.819290072 c 0,43,44
 1047.0442483 510.819290072 1047.0442483 510.819290072 1076.35253906 512.212890625 c 0,45,46
 1130.01855469 514.829101562 1130.01855469 514.829101562 1164.29785156 520.643554688 c 1,33,34
EndSplineSet
Substitution2: "'init' Initial Forms in Arabic lookup 13 subtable" uni066F.init
Substitution2: "'medi' Medial Forms in Arabic lookup 11 subtable" uni066F.medi
Substitution2: "'fina' Terminal Forms in Arabic lookup 9 subtable" uni066F.fina
EndChar

StartChar: uni0670
Encoding: 1648 1648 72
Width: 0
VWidth: 2983
GlyphClass: 4
Flags: W
AnchorPoint: "Anchor-10" 756.062 1779.01 mark 0
AnchorPoint: "Anchor-9" 756.062 1779.01 mark 0
AnchorPoint: "Anchor-1" 744.304 2296.37 basemark 0
AnchorPoint: "Anchor-1" 756.062 1779.01 mark 0
LayerCount: 2
Fore
SplineSet
713.022460938 1797.3671875 m 1,0,-1
 650.764648438 2184.63183594 l 5,1,-1
 835.50390625 2294.63867188 l 5,2,-1
 835.50390625 1838.10839844 l 1,3,-1
 713.022460938 1797.3671875 l 1,0,-1
EndSplineSet
EndChar

StartChar: uni0674
Encoding: 1652 1652 73
Width: 802
VWidth: 2763
GlyphClass: 2
Flags: W
LayerCount: 2
Fore
SplineSet
584.380859375 2215.33984375 m 1,0,1
 386 2290 386 2290 327.571289062 2172.16210938 c 0,2,3
 324 2165 324 2165 327.932617188 2157.57421875 c 0,4,5
 363 2078 363 2078 543.197265625 2119.43261719 c 0,6,7
 608 2134 608 2134 622 2126 c 152,-1,8
 636 2118 636 2118 636.946261999 2105.95882201 c 128,-1,9
 637.892523999 2093.91764402 637.892523999 2093.91764402 637.592773438 2061.08398438 c 2,10,-1
 636.5390625 1945.6640625 l 1,11,12
 428.582370078 1879.81766907 428.582370078 1879.81766907 222.834960938 1780.62695312 c 2,13,-1
 186.665039062 1763.18945312 l 1,14,-1
 174.932617188 1951.98828125 l 1,15,16
 213 1972 213 1972 251.473632812 1993.43847656 c 1,17,18
 133 2059 133 2059 189.20703125 2246.41894531 c 0,19,20
 211 2320 211 2320 256.150390625 2366.20703125 c 0,21,22
 323 2436 323 2436 435.5 2436 c 128,-1,23
 548 2436 548 2436 640.684570312 2345.21582031 c 5,24,-1
 584.380859375 2215.33984375 l 1,0,1
EndSplineSet
EndChar

StartChar: uni06A1
Encoding: 1697 1697 77
Width: 1750
VWidth: 3781
GlyphClass: 2
Flags: W
AnchorPoint: "Anchor-10" 740.373 1477.19 basechar 0
AnchorPoint: "Anchor-7" 633.96 -168.962 basechar 0
LayerCount: 2
Fore
SplineSet
1468.05957031 927.244140625 m 1,0,1
 1407.11425781 1065.42871094 1407.11425781 1065.42871094 1307.29492188 1063.99511719 c 0,2,3
 1234.31542969 1063.29589844 1234.31542969 1063.29589844 1209.09863281 1012.63867188 c 0,4,5
 1184.18261719 961.962890625 1184.18261719 961.962890625 1205.88671875 939.840820312 c 0,6,7
 1233.24902344 911.830078125 1233.24902344 911.830078125 1380.11425781 918.813476562 c 0,8,9
 1433.78125 921.4296875 1433.78125 921.4296875 1468.05957031 927.244140625 c 1,0,1
1679.05273438 622.451171875 m 24,10,11
 1657 0 1657 0 878.259765625 0 c 2,12,-1
 846.345703125 0 l 2,13,14
 492 0 492 0 302.881835938 102.362304688 c 0,15,16
 68 231 68 231 69.4775390625 542.9296875 c 0,17,18
 70 794 70 794 191.778320312 994.575195312 c 1,19,-1
 345.325195312 937.671875 l 1,20,21
 288 726 288 726 346.754882812 640.196289062 c 0,22,23
 425 527 425 527 664.052734375 499.48046875 c 0,24,25
 757 489 757 489 980.560546875 489.890625 c 0,26,27
 1241 490 1241 490 1350.83886719 516.84765625 c 0,28,29
 1442 539 1442 539 1469.87304688 597.208984375 c 1,30,31
 1367 582 1367 582 1287.50097656 582.91796875 c 0,32,33
 1034 585 1034 585 1005.24707031 767.690429688 c 0,34,35
 992 851 992 851 1011.31347656 973.724609375 c 0,36,37
 1069 1356 1069 1356 1331.38183594 1356.62695312 c 0,38,39
 1455 1357 1455 1357 1530.92285156 1261.34375 c 0,40,41
 1695 1055 1695 1055 1679.05273438 622.451171875 c 24,10,11
EndSplineSet
Substitution2: "'init' Initial Forms in Arabic lookup 13 subtable" uni06A1.init
Substitution2: "'medi' Medial Forms in Arabic lookup 11 subtable" uni06A1.medi
Substitution2: "'fina' Terminal Forms in Arabic lookup 9 subtable" uni06A1.fina
EndChar

StartChar: uni06A9
Encoding: 1705 1705 78
Width: 1970
VWidth: 3732
GlyphClass: 2
Flags: W
AnchorPoint: "Anchor-10" 1018.15 1591.04 basechar 0
AnchorPoint: "Anchor-7" 827.197 -209.588 basechar 0
LayerCount: 2
Fore
SplineSet
843.188476562 491.239257812 m 24,0,1
 1184 491 1184 491 1375.85742188 589.857421875 c 0,2,3
 1421 613 1421 613 1358.63769531 684.5859375 c 24,4,5
 1278 777 1278 777 950.705078125 1035.05761719 c 1,6,-1
 1023.99316406 1378.203125 l 1,7,-1
 1860 1647.61132812 l 2,8,9
 1906.96585191 1662.74635481 1906.96585191 1662.74635481 1901.2109375 1620 c 2,10,-1
 1858.28613281 1305.33886719 l 1,11,-1
 1358.13085938 1145.45898438 l 1,12,13
 1703 861 1703 861 1699.32519531 589 c 0,14,15
 1695 263 1695 263 1361 99.7060546875 c 0,16,17
 1158 0 1158 0 813.678710938 0 c 0,18,19
 490 0 490 0 302.755859375 102.430664062 c 0,20,21
 68 231 68 231 68.4521484375 537.642578125 c 0,22,23
 68 751 68 751 191.454101562 994.09375 c 1,24,-1
 345.512695312 938.196289062 l 1,25,26
 316 830 316 830 315.833007812 756.286132812 c 0,27,28
 316 687 316 687 341.935546875 647.479492188 c 0,29,30
 445 491 445 491 843.188476562 491.239257812 c 24,0,1
EndSplineSet
Substitution2: "'init' Initial Forms in Arabic lookup 13 subtable" uniFB90
Substitution2: "'medi' Medial Forms in Arabic lookup 11 subtable" uniFB91
Substitution2: "'fina' Terminal Forms in Arabic lookup 9 subtable" uniFB8F
EndChar

StartChar: afii57509
Encoding: 1711 1711 79
Width: 1964
VWidth: 3742
GlyphClass: 2
Flags: W
AnchorPoint: "Anchor-10" 1072.82 1652.38 basechar 0
AnchorPoint: "Anchor-7" 750.53 -220.255 basechar 0
LayerCount: 2
Fore
SplineSet
843.188476562 491.239257812 m 16,0,1
 1169 491 1169 491 1344 579.381835938 c 0,2,3
 1385 600 1385 600 1346 643.26953125 c 0,4,5
 1262 737 1262 737 950.831054688 930.287109375 c 1,6,-1
 1023.99316406 1268.203125 l 1,7,-1
 1860 1537.61132812 l 2,8,9
 1906.96585191 1552.74635481 1906.96585191 1552.74635481 1901.2109375 1510 c 2,10,-1
 1858.28613281 1195.33886719 l 1,11,-1
 1358 1036 l 1,12,13
 1674 806 1674 806 1675.49804688 582 c 0,14,15
 1676 386 1676 386 1536.65625 242.131835938 c 0,16,17
 1303 0 1303 0 813.678710938 0 c 0,18,19
 490 0 490 0 302.755859375 102.430664062 c 0,20,21
 68 231 68 231 68.4521484375 537.642578125 c 0,22,23
 68 751 68 751 191.454101562 994.09375 c 1,24,-1
 345.512695312 938.196289062 l 1,25,26
 316 830 316 830 315.833007812 756.286132812 c 0,27,28
 316 687 316 687 341.935546875 647.479492188 c 0,29,30
 445 491 445 491 843.188476562 491.239257812 c 16,0,1
EndSplineSet
Refer: 270 -1 N 1.1342 0 0 1.1342 1044.95 -571.254 2
Substitution2: "'init' Initial Forms in Arabic lookup 13 subtable" uniFB94
Substitution2: "'medi' Medial Forms in Arabic lookup 11 subtable" uniFB95
Substitution2: "'fina' Terminal Forms in Arabic lookup 9 subtable" uniFB93
EndChar

StartChar: afii57514
Encoding: 1722 1722 80
Width: 1447
VWidth: 3753
GlyphClass: 2
Flags: W
LayerCount: 2
Fore
SplineSet
1129.25488281 -306.529296875 m 0,0,1
 965.384191434 -428.713541575 965.384191434 -428.713541575 698.982923978 -428.797129779 c 0,2,3
 375.810577945 -428.797129779 375.810577945 -428.797129779 224.981445312 -267.259765625 c 0,4,5
 77.3322991041 -109.49213299 77.3322991041 -109.49213299 77.3322991041 169.294099301 c 128,-1,6
 77.3322991041 447.933741667 77.3322991041 447.933741667 203.59765625 687.725585938 c 1,7,-1
 380.661132812 637.7734375 l 1,8,9
 328.901027129 465.121748464 328.901027129 465.121748464 328.901027129 346.488173456 c 0,10,11
 328.901027129 227.531608093 328.901027129 227.531608093 380.943359375 162.887695312 c 0,12,13
 478.614127295 42.7052953643 478.614127295 42.7052953643 704.557371554 42.7052953643 c 0,14,15
 995.135488741 42.7052953643 995.135488741 42.7052953643 1107.68945312 181.228515625 c 0,16,17
 1124.05984781 201.635828961 1124.05984781 201.635828961 1124.05984781 229.62064957 c 0,18,19
 1124.05984781 260.288935215 1124.05984781 260.288935215 1104.39941406 300.057617188 c 0,20,21
 1086 338 1086 338 941.727539062 550.396484375 c 1,22,-1
 1163.57910156 835.194335938 l 2,23,24
 1186 864 1186 864 1206.89746094 837.328125 c 0,25,26
 1376.08348132 618.892217351 1376.08348132 618.892217351 1376.08348132 255.321961599 c 0,27,28
 1376.08348132 -122.682655424 1376.08348132 -122.682655424 1129.25488281 -306.529296875 c 0,0,1
EndSplineSet
Substitution2: "'init' Initial Forms in Arabic lookup 13 subtable" uni06BA.init
Substitution2: "'medi' Medial Forms in Arabic lookup 11 subtable" uni06BA.medi
Substitution2: "'fina' Terminal Forms in Arabic lookup 9 subtable" uniFB9F
EndChar

StartChar: uni06F4
Encoding: 1780 1780 87
Width: 1328
VWidth: 3386
GlyphClass: 2
Flags: W
LayerCount: 2
Fore
SplineSet
499.140625 1354.48632812 m 6,0,1
 537.194062967 1250.84998929 537.194062967 1250.84998929 613.765625 1191.66015625 c 5,2,3
 612 1217 612 1217 612.264648438 1240 c 4,4,5
 613 1413 613 1413 726 1506.54492188 c 4,6,7
 811 1577 811 1577 944.357421875 1576.32617188 c 4,8,9
 1098.07103254 1575.9998492 1098.07103254 1575.9998492 1208.2734375 1441.74121094 c 6,10,-1
 1220.91601562 1426.33886719 l 5,11,-1
 1158.99414062 1250.79101562 l 5,12,-1
 1130.78027344 1261.79003906 l 6,13,14
 916 1346 916 1346 825.1953125 1213.59179688 c 4,15,16
 807 1187 807 1187 801.411132812 1149.59277344 c 4,17,18
 794 1097 794 1097 858.26171875 1068.30664062 c 4,19,20
 1007 1001 1007 1001 1222.72949219 1093.31640625 c 5,21,-1
 1257.19238281 858.39453125 l 5,22,23
 1136 737 1136 737 936.127929688 729.27734375 c 4,24,25
 764 723 764 723 622.16796875 800.971679688 c 5,26,27
 704.7278688 344.979861684 704.7278688 344.979861684 676.724609375 104.932617188 c 0,28,29
 666.044625992 13.3825392718 666.044625992 13.3825392718 436.272460938 -4.0302734375 c 2,30,-1
 412.948242188 -5.7978515625 l 1,31,-1
 410.594726562 31.58203125 l 2,32,33
 373 633 373 633 100.473632812 1377.67285156 c 5,34,-1
 360.104492188 1550.0234375 l 6,35,36
 386 1567 386 1567 405.997070312 1564.5234375 c 4,37,38
 425 1562 425 1562 444.930664062 1502.12402344 c 4,39,-1
 499.140625 1354.48632812 l 6,0,1
EndSplineSet
EndChar

StartChar: uni06F5
Encoding: 1781 1781 88
Width: 1312
VWidth: 3183
GlyphClass: 2
Flags: W
LayerCount: 2
Fore
SplineSet
718.743164062 586.58203125 m 1,0,1
 761.046738396 390.139320221 761.046738396 390.139320221 892.372342529 390.139320221 c 0,2,3
 983.36746005 390.139320221 983.36746005 390.139320221 983.36746005 465.839319431 c 0,4,5
 983.36746005 615.762623278 983.36746005 615.762623278 601.520507812 1003.02246094 c 1,6,7
 316.521910318 589.649078583 316.521910318 589.649078583 316.521910318 478.459677666 c 0,8,9
 316.521910318 390.050833562 316.521910318 390.050833562 413.84776828 390.050833562 c 0,10,11
 530.746832883 390.050833562 530.746832883 390.050833562 568.408203125 543.909179688 c 2,12,-1
 579.569335938 589.505859375 l 1,13,-1
 718.743164062 586.58203125 l 1,0,1
385.869140625 4.9697265625 m 0,14,15
 69.7678334096 5.00031274671 69.7678334096 5.00031274671 69.7678334096 371.564324414 c 4,16,17
 69.7678334096 701.837324731 69.7678334096 701.837324731 409.912109375 1228.80664062 c 1,18,-1
 367.806640625 1276.79980469 l 1,19,-1
 550.8203125 1546 l 2,20,21
 569.180255869 1573.26771134 569.180255869 1573.26771134 599.88671875 1542 c 2,22,-1
 620.77734375 1520.72753906 l 2,23,24
 1224.65839636 905.348108048 1224.65839636 905.348108048 1224.65839636 428.813502152 c 0,25,26
 1224.506346 4.6301553044 1224.506346 4.6301553044 932.441065741 4.6301553046 c 0,27,28
 756.011735896 4.6301553046 756.011735896 4.6301553046 656.561523438 139.28125 c 1,29,30
 567 5 567 5 385.869140625 4.9697265625 c 0,14,15
EndSplineSet
EndChar

StartChar: uni06F6
Encoding: 1782 1782 89
Width: 1180
VWidth: 3397
GlyphClass: 2
Flags: W
LayerCount: 2
Fore
SplineSet
390.454101562 657.698242188 m 5,0,1
 101 745 101 745 100.23046875 1071.29589844 c 0,2,3
 100 1161 100 1161 139.799804688 1254.7890625 c 0,4,5
 275 1575 275 1575 586.262695312 1575.04003906 c 0,6,7
 764 1575 764 1575 938.526367188 1420.06933594 c 1,8,-1
 850.377929688 1184.45117188 l 1,9,10
 642 1274 642 1274 518.799804688 1223.56054688 c 0,11,12
 414 1181 414 1181 379.796875 1105.53320312 c 0,13,14
 368 1080 368 1080 390.509765625 1046.45117188 c 0,15,16
 454 954 454 954 704.42578125 950.250976562 c 1,17,18
 940 1071 940 1071 963.092773438 1082.17382812 c 0,19,20
 1065 1131 1065 1131 1083.7265625 1098.39257812 c 0,21,22
 1095.84401476 1077.27188198 1095.84401476 1077.27188198 1088.48828125 999.953125 c 2,23,-1
 1063.55664062 737.887695312 l 1,24,25
 796.762961545 599.733220421 796.762961545 599.733220421 577.063476562 356.130859375 c 0,26,27
 414 175 414 175 312.75 0.51953125 c 1,28,-1
 135.465820312 107.732421875 l 2,29,30
 103 127 103 127 109.866210938 181.33203125 c 0,31,32
 126.358910701 311.981068533 126.358910701 311.981068533 390.454101562 657.698242188 c 5,0,1
EndSplineSet
EndChar

StartChar: uniFB8F
Encoding: 64399 64399 104
Width: 2161
VWidth: 3732
GlyphClass: 2
Flags: W
AnchorPoint: "Anchor-7" 827.197 -209.588 basechar 0
AnchorPoint: "Anchor-10" 1018.15 1591.04 basechar 0
LayerCount: 2
Fore
SplineSet
843.188476562 491.239257812 m 16,0,1
 1163 492 1163 492 1335 579.031874866 c 0,2,3
 1396 610 1396 610 1329 688.903341504 c 0,4,5
 1221 816 1221 816 930.705078125 1035.05761719 c 1,6,-1
 1003.99316406 1378.203125 l 1,7,-1
 1840 1647.61132812 l 2,8,9
 1887.08041615 1663.02632974 1887.08041615 1663.02632974 1881.2109375 1620 c 2,10,-1
 1838.28613281 1305.33886719 l 1,11,-1
 1338.13085938 1145.45898438 l 1,12,13
 1637 867 1637 867 1777 715.248046875 c 0,14,15
 1981.06422092 494.930664062 1981.06422092 494.930664062 2150.55859375 494.930664062 c 2,16,-1
 2166 494.930664062 l 2,17,18
 2191.34082031 495.000945244 2191.34082031 495.000945244 2191.34082031 313 c 6,19,-1
 2191.34082031 171 l 6,20,21
 2191 0 2191 0 2166 0 c 2,22,-1
 2144.18359375 0 l 2,23,24
 1836 0 1836 0 1584 315 c 1,25,26
 1412 0 1412 0 813.678710938 0 c 0,27,28
 490 0 490 0 302.755859375 102.430664062 c 0,29,30
 69 230 69 230 68.4521484375 537.642578125 c 0,31,32
 68 751 68 751 191.454101562 994.09375 c 1,33,-1
 345.512695312 938.196289062 l 1,34,35
 316 830 316 830 315.833007812 756.286132812 c 0,36,37
 316 687 316 687 341.935546875 647.479492188 c 0,38,39
 445 491 445 491 843.188476562 491.239257812 c 16,0,1
EndSplineSet
EndChar

StartChar: uniFB93
Encoding: 64403 64403 108
Width: 2072
VWidth: 3742
GlyphClass: 2
Flags: W
AnchorPoint: "Anchor-7" 762.53 -214.255 basechar 0
AnchorPoint: "Anchor-10" 1046.82 1646.38 basechar 0
LayerCount: 2
Fore
SplineSet
833.188476562 491.239257812 m 16,0,1
 1302 491 1302 491 1304.39160156 605.86328125 c 0,2,3
 1305 641 1305 641 1173.76269531 758.185546875 c 0,4,5
 1110 816 1110 816 952.837890625 928.287109375 c 1,6,-1
 1024.99316406 1268.203125 l 1,7,-1
 1861 1537.61132812 l 2,8,9
 1908.08041615 1553.02632974 1908.08041615 1553.02632974 1902.2109375 1510 c 2,10,-1
 1859.28613281 1195.33886719 l 1,11,-1
 1358 1036 l 1,12,13
 1478 932 1478 932 1588.92871094 817.676757812 c 0,14,15
 1902.06727194 494.930664062 1902.06727194 494.930664062 2069.68652344 494.930664062 c 2,16,-1
 2077 494.930664062 l 2,17,18
 2102.34082031 495.000945244 2102.34082031 495.000945244 2102.34082031 313 c 6,19,-1
 2102.34082031 181 l 6,20,21
 2102 0 2102 0 2077 0 c 2,22,-1
 2065.2109375 0 l 2,23,24
 1754 0 1754 0 1531.20117188 279.59765625 c 1,25,26
 1357 0 1357 0 813.678710938 0 c 0,27,28
 490 0 490 0 302.755859375 102.430664062 c 0,29,30
 69 230 69 230 68.4521484375 537.642578125 c 0,31,32
 68 751 68 751 191.454101562 994.09375 c 1,33,-1
 345.512695312 938.196289062 l 1,34,35
 316 830 316 830 315.833007812 756.286132812 c 0,36,37
 316 687 316 687 341.935546875 647.479492188 c 0,38,39
 445 491 445 491 833.188476562 491.239257812 c 16,0,1
EndSplineSet
Refer: 270 -1 N 1.1342 0 0 1.1342 1043.89 -571.254 2
EndChar

StartChar: uniFB94
Encoding: 64404 64404 109
Width: 1020
VWidth: 3742
GlyphClass: 2
Flags: W
AnchorPoint: "Anchor-10" 289.998 2022.17 basechar 0
AnchorPoint: "Anchor-7" 334.15 -223.806 basechar 0
LayerCount: 2
Fore
SplineSet
109.885742188 0 m 2,0,-1
 -5.6591796875 0 l 2,1,2
 -60 0 -60 0 -60 171 c 6,3,-1
 -60 303 l 6,4,5
 -60 494.930664062 -60 494.930664062 -5.6591796875 494.930664062 c 2,6,-1
 113.630859375 494.930664062 l 2,7,8
 329 495 329 495 385.59765625 545.063476562 c 0,9,10
 432 586 432 586 254.96875 738.319335938 c 24,11,12
 111 862 111 862 11.837890625 928.287109375 c 1,13,-1
 83.9931640625 1268.203125 l 1,14,-1
 920 1537.61132812 l 2,15,16
 967.080416148 1553.02632974 967.080416148 1553.02632974 961.2109375 1510 c 2,17,-1
 918.286132812 1195.33886719 l 1,18,-1
 417 1036 l 1,19,20
 737 790 737 790 727.712890625 508.483398438 c 0,21,22
 721 295 721 295 613.329101562 182.3984375 c 0,23,24
 439 0 439 0 109.885742188 0 c 2,0,-1
EndSplineSet
Refer: 270 -1 N 1.1342 0 0 1.1342 105.231 -571.254 2
EndChar

StartChar: uniFB95
Encoding: 64405 64405 110
Width: 1135
VWidth: 3742
GlyphClass: 2
Flags: W
AnchorPoint: "Anchor-10" 226.55 1987.67 basechar 0
AnchorPoint: "Anchor-7" 367.424 -197.155 basechar 0
LayerCount: 2
Fore
SplineSet
-5.6591796875 494.930664062 m 2,0,-1
 113.630859375 494.930664062 l 2,1,2
 329 495 329 495 385.59765625 545.063476562 c 0,3,4
 432 586 432 586 254.96875 738.319335938 c 24,5,6
 111 862 111 862 11.837890625 928.287109375 c 1,7,-1
 82.9931640625 1268.203125 l 1,8,-1
 920 1536.61132812 l 2,9,10
 967.080416148 1552.02632974 967.080416148 1552.02632974 961.2109375 1509 c 2,11,-1
 918.286132812 1194.33886719 l 1,12,-1
 417.677734375 1035.51269531 l 1,13,14
 497 976 497 976 684.801757812 787.010742188 c 0,15,16
 975.068905572 494.930664062 975.068905572 494.930664062 1127.82617188 494.930664062 c 2,17,-1
 1140 494.930664062 l 2,18,19
 1165.34082031 495.000945244 1165.34082031 495.000945244 1165.34082031 303 c 2,20,-1
 1165.34082031 171 l 2,21,22
 1165 0 1165 0 1140 0 c 2,23,-1
 1128.28320312 0 l 2,24,25
 888 0 888 0 659.172851562 265.46484375 c 1,26,27
 524 0 524 0 111.219726562 0 c 2,28,-1
 -5.6591796875 0 l 2,29,30
 -61 0 -61 0 -61 181 c 6,31,-1
 -61 313 l 6,32,33
 -61 495 -61 495 -5.6591796875 494.930664062 c 2,0,-1
EndSplineSet
Refer: 270 -1 N 1.1342 0 0 1.1342 105.231 -571.254 2
EndChar

StartChar: uniFB9F
Encoding: 64415 64415 112
Width: 1529
VWidth: 3752
GlyphClass: 2
Flags: W
AnchorPoint: "Anchor-10" 591.322 1035.5 basechar 0
AnchorPoint: "Anchor-7" 466.537 -978.647 basechar 0
LayerCount: 2
Fore
SplineSet
941.727539062 411.73046875 m 1,0,-1
 1166.07128906 699.728515625 l 2,1,2
 1185.7349592 724.663903278 1185.7349592 724.663903278 1209.98144531 694.395507812 c 2,3,-1
 1274.37597656 614.0078125 l 2,4,5
 1370.05571215 494.930664062 1370.05571215 494.930664062 1491.49414062 494.930664062 c 2,6,-1
 1534 494.930664062 l 2,7,8
 1609.34082031 495.000315081 1609.34082031 495.000315081 1609.34082031 313 c 2,9,-1
 1609.34082031 181 l 2,10,11
 1609 0 1609 0 1534 0 c 2,12,-1
 1502.35839844 0 l 2,13,14
 1438 0 1438 0 1357.47265625 34.34375 c 1,15,16
 1332 -295 1332 -295 1129.25488281 -445.1953125 c 0,17,18
 965 -567 965 -567 698.983398438 -567.462890625 c 4,19,20
 376 -567 376 -567 224.981445312 -405.92578125 c 4,21,22
 77 -248 77 -248 77.33203125 30.6279296875 c 4,23,24
 77 309 77 309 203.59765625 549.059570312 c 5,25,-1
 380.661132812 499.107421875 l 5,26,27
 329 326 329 326 328.901367188 207.822265625 c 4,28,29
 329 89 329 89 380.943359375 24.2216796875 c 4,30,31
 479 -96 479 -96 704.557617188 -95.9609375 c 4,32,33
 995 -96 995 -96 1107.68945312 42.5625 c 0,34,35
 1124 63 1124 63 1124.05957031 90.955078125 c 0,36,37
 1124 122 1124 122 1104.39941406 161.391601562 c 0,38,39
 1086 199 1086 199 941.727539062 411.73046875 c 1,0,-1
EndSplineSet
EndChar

StartChar: uniFBE8
Encoding: 64488 64488 115
Width: 648
VWidth: 3752
GlyphClass: 2
Flags: W
AnchorPoint: "Anchor-10" 303.261 1302.53 basechar 0
AnchorPoint: "Anchor-7" 350.876 -228.542 basechar 0
LayerCount: 2
Fore
SplineSet
-4.6591796875 0 m 2,0,1
 -60 0 -60 0 -60 171 c 2,2,-1
 -60 303 l 2,3,4
 -60 494.930664062 -60 494.930664062 -4.6591796875 494.930664062 c 2,5,-1
 97.4580078125 494.930664062 l 2,6,7
 252 495 252 495 297.95703125 540.958984375 c 0,8,9
 315 558 315 558 307 598 c 0,10,11
 296.849419958 646.722784202 296.849419958 646.722784202 276 693 c 2,12,-1
 222.896484375 810.868164062 l 1,13,-1
 401.8203125 1033.32714844 l 2,14,15
 429 1067 429 1067 451.463867188 1032.26074219 c 0,16,17
 577.322977781 838.044728158 577.322977781 838.044728158 577.322977781 594.215472038 c 0,18,19
 577.322977781 321.699623089 577.322977781 321.699623089 439.663085938 144.848632812 c 0,20,21
 327 0 327 0 116.955078125 0 c 2,22,-1
 -4.6591796875 0 l 2,0,1
EndSplineSet
EndChar

StartChar: uniFBE9
Encoding: 64489 64489 116
Width: 719
VWidth: 3731
GlyphClass: 2
Flags: W
AnchorPoint: "Anchor-10" 376.951 1190.37 basechar 0
AnchorPoint: "Anchor-7" 351.317 -187.507 basechar 0
LayerCount: 2
Fore
SplineSet
-4.6591796875 0 m 2,0,1
 -60 0 -60 0 -60 171 c 6,2,-1
 -60 303 l 6,3,4
 -60 494.930664062 -60 494.930664062 -4.6591796875 494.930664062 c 2,5,-1
 53.84765625 494.930664062 l 2,6,7
 298.888270017 494.9999684 298.888270017 494.9999684 323.54296875 665.153320312 c 2,8,-1
 343.51171875 802.966796875 l 1,9,-1
 505.443359375 803.048828125 l 1,10,-1
 526.337890625 668.008789062 l 2,11,12
 553.010685251 494.930664062 553.010685251 494.930664062 705.548828125 494.930664062 c 2,13,-1
 724 494.930664062 l 2,14,15
 749.340820312 495.000945244 749.340820312 495.000945244 749.340820312 303 c 2,16,-1
 749.340820312 171 l 2,17,18
 749 0 749 0 724 0 c 2,19,-1
 703.407226562 0 l 2,20,21
 510 0 510 0 411.748046875 172.262695312 c 1,22,23
 291 0 291 0 41.16796875 0 c 2,24,-1
 -4.6591796875 0 l 2,0,1
EndSplineSet
EndChar

StartChar: uniFE73
Encoding: 65139 65139 124
Width: 895
VWidth: 3443
GlyphClass: 2
Flags: W
AnchorPoint: "Anchor-10" 331.315 2044.75 basechar 0
AnchorPoint: "Anchor-7" 331.315 -141.598 basechar 0
LayerCount: 2
Fore
SplineSet
482.139648438 584.939453125 m 2,0,1
 482.139648438 490.826171875 482.139648438 490.826171875 561.486328125 411.481445312 c 128,-1,2
 640.83203125 332.135742188 640.83203125 332.135742188 808.9453125 332.135742188 c 2,3,-1
 931.182617188 332.135742188 l 1,4,-1
 931.182617188 30.4833984375 l 1,5,-1
 716.446289062 30.4833984375 l 2,6,7
 479.249023438 30.4833984375 479.249023438 30.4833984375 329.866210938 179.865234375 c 128,-1,8
 180.489257812 329.245117188 180.489257812 329.245117188 180.489257812 564.759765625 c 2,9,-1
 180.489257812 633.174804688 l 1,10,-1
 482.139648438 633.174804688 l 1,11,-1
 482.139648438 584.939453125 l 2,0,1
EndSplineSet
EndChar

StartChar: uniFE8E
Encoding: 65166 65166 150
Width: 642
VWidth: 3713
GlyphClass: 2
Flags: W
AnchorPoint: "Anchor-10" 290.495 1664.18 basechar 0
AnchorPoint: "Anchor-7" 363.405 -198.464 basechar 0
LayerCount: 2
Fore
SplineSet
647 0 m 2,0,-1
 562.556640625 0 l 2,1,2
 253 0 253 0 180.899414062 238.931640625 c 0,3,4
 144 362 144 362 142.533203125 590.065429688 c 0,5,6
 138 1109 138 1109 76.6552734375 1400.99804688 c 1,7,-1
 397.064453125 1601.25 l 2,8,9
 409 1609 409 1609 419.755859375 1609.34863281 c 0,10,11
 443.670503898 1609.03094553 443.670503898 1609.03094553 450.44140625 1546 c 0,12,13
 472 1341 472 1341 473.841796875 1011.94921875 c 2,14,15
 474.45462703 863.775678771 l 2,16,17
 476.018451717 600.898284416 476.018451717 600.898284416 510.349609375 540.286132812 c 0,18,19
 536.039272373 494.930664062 536.039272373 494.930664062 620.548828125 494.930664062 c 2,20,-1
 647 494.930664062 l 2,21,22
 722.340820312 495.000315081 722.340820312 495.000315081 722.340820312 303 c 2,23,-1
 722.340820312 171 l 2,24,25
 722 0 722 0 647 0 c 2,0,-1
EndSplineSet
EndChar

StartChar: uniFEA2
Encoding: 65186 65186 170
Width: 1367
VWidth: 3747
GlyphClass: 2
Flags: W
AnchorPoint: "Anchor-10" 680.639 1414.02 basechar 0
AnchorPoint: "Anchor-7" 637.069 -849.641 basechar 0
LayerCount: 2
Fore
SplineSet
689.989257812 390.4765625 m 0,0,1
 807 449 807 449 867.608398438 465.705078125 c 1,2,3
 921 0 921 0 1347.61132812 0 c 2,4,-1
 1372 0 l 2,5,6
 1397.34082031 0 1397.34082031 0 1397.34082031 171 c 2,7,-1
 1397.34082031 303 l 2,8,9
 1397.00012308 494.930664062 1397.00012308 494.930664062 1372 494.930664062 c 2,10,-1
 1338.56054688 494.930664062 l 2,11,12
 1059 495 1059 495 1051.72851562 532.84765625 c 1,13,14
 1116 548 1116 548 1207.77148438 555.422851562 c 1,15,-1
 1290.77734375 904.52734375 l 2,16,17
 1296.90024756 928.607690489 1296.90024756 928.607690489 1275.72558594 928.2734375 c 2,18,-1
 1267.93066406 928.150390625 l 2,19,20
 1258 928 1258 928 1249.90031196 928.013666687 c 0,21,22
 1118 928 1118 928 1017.93554688 957.670898438 c 0,23,24
 515 1107 515 1107 430.081602152 1106.71681967 c 0,25,26
 295 1107 295 1107 196.786132812 975.567382812 c 0,27,28
 135 893 135 893 69.0341796875 662.51953125 c 1,29,-1
 223.229492188 614.515625 l 1,30,-1
 235.0859375 628.678710938 l 2,31,32
 328 740 328 740 420.36682972 739.7210345 c 0,33,34
 480 740 480 740 586.555664062 716.66796875 c 0,35,36
 635 706 635 706 664.129882812 699.313476562 c 1,37,38
 564 666 564 666 483.4375 616.014648438 c 0,39,40
 122 391 122 391 121.922851562 -39.9970703125 c 0,41,42
 122 -366 122 -366 282.359375 -517.043945312 c 0,43,44
 423 -648 423 -648 813.729311832 -647.470896417 c 0,45,46
 1021 -647 1021 -647 1049.32617188 -618.404296875 c 0,47,48
 1154 -512 1154 -512 1262.60546875 -242.649414062 c 0,49,50
 1277 -207 1277 -207 1241.23242188 -213.712890625 c 0,51,52
 1028 -252 1028 -252 782.56666635 -251.817282415 c 0,53,54
 350 -252 350 -252 350.490234375 -15.0205078125 c 0,55,56
 350 221 350 221 689.989257812 390.4765625 c 0,0,1
EndSplineSet
EndChar

StartChar: uniFEA3
Encoding: 65187 65187 171
Width: 1465
VWidth: 3753
GlyphClass: 2
Flags: W
AnchorPoint: "Anchor-10" 541.983 1439.88 basechar 0
AnchorPoint: "Anchor-7" 582.7 -175.896 basechar 0
LayerCount: 2
Fore
SplineSet
-4.6591796875 0 m 2,0,1
 -60 0 -60 0 -60 171 c 2,2,-1
 -60 303 l 2,3,4
 -60 494.930664062 -60 494.930664062 -4.6591796875 494.930664062 c 2,5,-1
 75.7578125 494.930664062 l 2,6,7
 469.22957843 495.000040479 469.22957843 495.000040479 725 596 c 2,8,-1
 834.288085938 639.15625 l 1,9,10
 740 665 740 665 691 684.180664062 c 0,11,12
 525 749 525 749 459.553710938 748.686523438 c 0,13,14
 321.909636526 749.000205933 321.909636526 749.000205933 238.732421875 644.512695312 c 2,15,-1
 227.831054688 630.818359375 l 1,16,-1
 86.6279296875 703.568359375 l 1,17,-1
 94.84375 729.750976562 l 2,18,19
 154 918 154 918 247.604492188 1025.50292969 c 0,20,21
 352 1146 352 1146 499.014648438 1146.59277344 c 0,22,23
 611 1147 611 1147 847.096679688 1028.81445312 c 0,24,25
 1067 918 1067 918 1230.828125 898.51953125 c 0,26,27
 1315.73709797 888.154170225 1315.73709797 888.154170225 1382.57226562 889.969726562 c 2,28,-1
 1388.32421875 890.125976562 l 2,29,30
 1414.23195431 891.007895904 1414.23195431 891.007895904 1406.71386719 866.127929688 c 2,31,-1
 1297.50292969 504.7109375 l 1,32,33
 1075 439 1075 439 629.846679688 162.102539062 c 0,34,35
 370 0 370 0 55.7841796875 0 c 2,36,-1
 -4.6591796875 0 l 2,0,1
EndSplineSet
EndChar

StartChar: uniFEA4
Encoding: 65188 65188 172
Width: 1485
VWidth: 3753
GlyphClass: 2
Flags: W
AnchorPoint: "Anchor-10" 542.275 1423.68 basechar 0
AnchorPoint: "Anchor-7" 545.822 -172.531 basechar 0
LayerCount: 2
Fore
SplineSet
-4.6591796875 0 m 2,0,1
 -60 0 -60 0 -60 171 c 2,2,-1
 -60 303 l 2,3,4
 -60 494.930664062 -60 494.930664062 -4.6591796875 494.930664062 c 2,5,-1
 75.7578125 494.930664062 l 2,6,7
 469.22957843 495.000040479 469.22957843 495.000040479 725 596 c 2,8,-1
 834.288085938 639.15625 l 1,9,10
 740 665 740 665 691 684.180664062 c 0,11,12
 525 749 525 749 459.553710938 748.686523438 c 0,13,14
 321.909636526 749.000205933 321.909636526 749.000205933 238.732421875 644.512695312 c 2,15,-1
 227.831054688 630.818359375 l 1,16,-1
 86.6279296875 703.568359375 l 1,17,-1
 94.84375 729.750976562 l 2,18,19
 154 918 154 918 247.604492188 1025.50292969 c 0,20,21
 352 1146 352 1146 499.014648438 1146.59277344 c 0,22,23
 606 1147 606 1147 847.096679688 1028.81445312 c 0,24,25
 1064 922 1064 922 1230.828125 898.51953125 c 0,26,27
 1308.34258867 887.953300704 1308.34258867 887.953300704 1382.57226562 889.969726562 c 2,28,-1
 1388.32421875 890.125976562 l 2,29,30
 1414.07606562 891.002589333 1414.07606562 891.002589333 1406.71386719 866.127929688 c 2,31,-1
 1317.50292969 564.7109375 l 1,32,33
 1183 563 1183 563 1117 506 c 1,34,35
 1119.94167877 493.25272534 1119.94167877 493.25272534 1165 493.45703125 c 2,36,-1
 1490 494.930664062 l 2,37,38
 1515.34082031 495.000945244 1515.34082031 495.000945244 1515.34082031 303 c 2,39,-1
 1515.34082031 171 l 2,40,41
 1515 0 1515 0 1490 0 c 2,42,-1
 1326.95898438 0 l 2,43,44
 967 0 967 0 897 363 c 1,45,46
 764 276 764 276 629.846679688 192.102539062 c 0,47,48
 322 0 322 0 55.7841796875 0 c 2,49,-1
 -4.6591796875 0 l 2,0,1
EndSplineSet
EndChar

StartChar: uniFEAA
Encoding: 65194 65194 178
Width: 1139
VWidth: 3745
GlyphClass: 2
Flags: W
AnchorPoint: "Anchor-10" 646.121 1529.85 basechar 0
AnchorPoint: "Anchor-7" 482.785 -232.355 basechar 0
LayerCount: 2
Fore
SplineSet
1144 0 m 2,0,-1
 1128.72753906 0 l 2,1,2
 916 0 916 0 814.540039062 203.997070312 c 1,3,4
 668 0 668 0 423.119140625 -0.1884765625 c 0,5,6
 66 -0 66 -0 63.7099609375 372.096679688 c 0,7,8
 63 494 63 494 109.271484375 632.56640625 c 1,9,-1
 260.845703125 615.985351562 l 1,10,-1
 262.356445312 568.306640625 l 2,11,12
 265 497 265 497 436.95703125 497.176757812 c 0,13,14
 561 497 561 497 635.379882812 534.534179688 c 0,15,16
 680.67847981 557.834618246 680.67847981 557.834618246 668.731445312 594.129882812 c 2,17,-1
 509.330078125 1078.39355469 l 1,18,-1
 693.663085938 1279.9921875 l 2,19,20
 715 1303 715 1303 724.368164062 1302.99121094 c 0,21,22
 742.122793213 1303.00006121 742.122793213 1303.00006121 750.395507812 1277.85839844 c 2,23,-1
 949.1953125 673.684570312 l 2,24,25
 1008.0228183 494.930664057 1008.0228183 494.930664057 1132.49707031 494.930664062 c 2,26,-1
 1144 494.930664062 l 2,27,28
 1219.34082031 495.000315081 1219.34082031 495.000315081 1219.34082031 303 c 2,29,-1
 1219.34082031 171 l 2,30,31
 1219 0 1219 0 1144 0 c 2,0,-1
EndSplineSet
EndChar

StartChar: uniFEAE
Encoding: 65198 65198 182
Width: 927
VWidth: 3752
GlyphClass: 2
Flags: W
AnchorPoint: "Anchor-7" 361.246 -706.137 basechar 0
AnchorPoint: "Anchor-10" 473.511 1114.68 basechar 0
LayerCount: 2
Fore
SplineSet
815.931640625 21 m 1,0,1
 804 -58 804 -58 782.93359375 -120.795898438 c 0,2,3
 699 -370 699 -370 544.569335938 -500 c 0,4,5
 510 -529 510 -529 461 -534.287109375 c 0,6,7
 414 -539 414 -539 355 -537 c 0,8,9
 170 -531 170 -531 11.767578125 -503.25390625 c 0,10,11
 -46 -493 -46 -493 -31.005859375 -442.1953125 c 0,12,13
 -26.4888866709 -426.679343836 -26.4888866709 -426.679343836 36.8935546875 -383.8828125 c 0,14,15
 464 -97 464 -97 563 75.4130859375 c 0,16,17
 581.636419228 107.838956686 581.636419228 107.838956686 575.185546875 138 c 0,18,19
 560 209 560 209 370 434 c 1,20,-1
 588 758 l 1,21,22
 682 637 682 637 692.865234375 624 c 0,23,24
 802.058658615 494.930664062 802.058658615 494.930664062 924.4921875 494.930664062 c 2,25,-1
 932 494.930664062 l 2,26,27
 1007.34082031 495.000315081 1007.34082031 495.000315081 1007.34082031 303 c 2,28,-1
 1007.34082031 171 l 2,29,30
 1007 0 1007 0 932 0 c 2,31,-1
 919.936523438 0 l 2,32,33
 845 0 845 0 815.931640625 21 c 1,0,1
EndSplineSet
PairPos2: "'kern' Horizontal Kerning lookup 15-1" uniFBFE dx=53 dy=0 dh=53 dv=0 dx=0 dy=0 dh=0 dv=0
PairPos2: "'kern' Horizontal Kerning lookup 15-1" uniFEF3 dx=53 dy=0 dh=53 dv=0 dx=0 dy=0 dh=0 dv=0
PairPos2: "'kern' Horizontal Kerning lookup 15-1" uniFB58 dx=53 dy=0 dh=53 dv=0 dx=0 dy=0 dh=0 dv=0
PairPos2: "'kern' Horizontal Kerning lookup 15-4" uni0621 dx=-196 dy=0 dh=-196 dv=0 dx=0 dy=0 dh=0 dv=0
PairPos2: "'kern' Horizontal Kerning lookup 15-3" uni0648 dx=-43 dy=0 dh=-43 dv=0 dx=0 dy=0 dh=0 dv=0
PairPos2: "'kern' Horizontal Kerning lookup 15-1" uni0644 dx=-43 dy=0 dh=-43 dv=0 dx=0 dy=0 dh=0 dv=0
PairPos2: "'kern' Horizontal Kerning lookup 15-1" uni0642 dx=-43 dy=0 dh=-43 dv=0 dx=0 dy=0 dh=0 dv=0
PairPos2: "'kern' Horizontal Kerning lookup 15-1" uni0632 dx=-43 dy=0 dh=-43 dv=0 dx=0 dy=0 dh=0 dv=0
PairPos2: "'kern' Horizontal Kerning lookup 15-1" uni0631 dx=-43 dy=0 dh=-43 dv=0 dx=0 dy=0 dh=0 dv=0
PairPos2: "'kern' Horizontal Kerning lookup 15-1" uniFB8A dx=-43 dy=0 dh=-43 dv=0 dx=0 dy=0 dh=0 dv=0
PairPos2: "'kern' Horizontal Kerning lookup 15-1" afii57508 dx=-43 dy=0 dh=-43 dv=0 dx=0 dy=0 dh=0 dv=0
PairPos2: "'kern' Horizontal Kerning lookup 15-1" uniFB7C dx=-128 dy=0 dh=-128 dv=0 dx=0 dy=0 dh=0 dv=0
PairPos2: "'kern' Horizontal Kerning lookup 15-1" uni06CC dx=-43 dy=0 dh=-43 dv=0 dx=0 dy=0 dh=0 dv=0
PairPos2: "'kern' Horizontal Kerning lookup 15-1" uniFEEB dx=-128 dy=0 dh=-128 dv=0 dx=0 dy=0 dh=0 dv=0
PairPos2: "'kern' Horizontal Kerning lookup 15-1" uniFEDF dx=-128 dy=0 dh=-128 dv=0 dx=0 dy=0 dh=0 dv=0
PairPos2: "'kern' Horizontal Kerning lookup 15-1" uniFB90 dx=-196 dy=0 dh=-196 dv=0 dx=0 dy=0 dh=0 dv=0
PairPos2: "'kern' Horizontal Kerning lookup 15-1" uni06A9 dx=-196 dy=0 dh=-196 dv=0 dx=0 dy=0 dh=0 dv=0
PairPos2: "'kern' Horizontal Kerning lookup 15-1" uni0649 dx=-43 dy=0 dh=-43 dv=0 dx=0 dy=0 dh=0 dv=0
PairPos2: "'kern' Horizontal Kerning lookup 15-1" uni0647 dx=-128 dy=0 dh=-128 dv=0 dx=0 dy=0 dh=0 dv=0
PairPos2: "'kern' Horizontal Kerning lookup 15-1" uniFEE7 dx=-128 dy=0 dh=-128 dv=0 dx=0 dy=0 dh=0 dv=0
PairPos2: "'kern' Horizontal Kerning lookup 15-1" uniFEE3 dx=-128 dy=0 dh=-128 dv=0 dx=0 dy=0 dh=0 dv=0
PairPos2: "'kern' Horizontal Kerning lookup 15-1" uni0645 dx=-128 dy=0 dh=-128 dv=0 dx=0 dy=0 dh=0 dv=0
PairPos2: "'kern' Horizontal Kerning lookup 15-1" uniFEDB dx=-196 dy=0 dh=-196 dv=0 dx=0 dy=0 dh=0 dv=0
PairPos2: "'kern' Horizontal Kerning lookup 15-1" uniFED7 dx=-128 dy=0 dh=-128 dv=0 dx=0 dy=0 dh=0 dv=0
PairPos2: "'kern' Horizontal Kerning lookup 15-1" uniFED3 dx=-128 dy=0 dh=-128 dv=0 dx=0 dy=0 dh=0 dv=0
PairPos2: "'kern' Horizontal Kerning lookup 15-1" uni0641 dx=-128 dy=0 dh=-128 dv=0 dx=0 dy=0 dh=0 dv=0
PairPos2: "'kern' Horizontal Kerning lookup 15-1" uniFECF dx=-128 dy=0 dh=-128 dv=0 dx=0 dy=0 dh=0 dv=0
PairPos2: "'kern' Horizontal Kerning lookup 15-1" uniFECB dx=-128 dy=0 dh=-128 dv=0 dx=0 dy=0 dh=0 dv=0
PairPos2: "'kern' Horizontal Kerning lookup 15-1" uniFEC7 dx=-128 dy=0 dh=-128 dv=0 dx=0 dy=0 dh=0 dv=0
PairPos2: "'kern' Horizontal Kerning lookup 15-1" uni0638 dx=-128 dy=0 dh=-128 dv=0 dx=0 dy=0 dh=0 dv=0
PairPos2: "'kern' Horizontal Kerning lookup 15-1" uniFEC3 dx=-128 dy=0 dh=-128 dv=0 dx=0 dy=0 dh=0 dv=0
PairPos2: "'kern' Horizontal Kerning lookup 15-1" uni0637 dx=-128 dy=0 dh=-128 dv=0 dx=0 dy=0 dh=0 dv=0
PairPos2: "'kern' Horizontal Kerning lookup 15-1" uniFEBF dx=-128 dy=0 dh=-128 dv=0 dx=0 dy=0 dh=0 dv=0
PairPos2: "'kern' Horizontal Kerning lookup 15-1" uni0636 dx=-128 dy=0 dh=-128 dv=0 dx=0 dy=0 dh=0 dv=0
PairPos2: "'kern' Horizontal Kerning lookup 15-1" uniFEBB dx=-128 dy=0 dh=-128 dv=0 dx=0 dy=0 dh=0 dv=0
PairPos2: "'kern' Horizontal Kerning lookup 15-1" uni0635 dx=-128 dy=0 dh=-128 dv=0 dx=0 dy=0 dh=0 dv=0
PairPos2: "'kern' Horizontal Kerning lookup 15-1" uniFEB7 dx=-128 dy=0 dh=-128 dv=0 dx=0 dy=0 dh=0 dv=0
PairPos2: "'kern' Horizontal Kerning lookup 15-1" uni0634 dx=-128 dy=0 dh=-128 dv=0 dx=0 dy=0 dh=0 dv=0
PairPos2: "'kern' Horizontal Kerning lookup 15-1" uniFEB3 dx=-128 dy=0 dh=-128 dv=0 dx=0 dy=0 dh=0 dv=0
PairPos2: "'kern' Horizontal Kerning lookup 15-1" uni0633 dx=-128 dy=0 dh=-128 dv=0 dx=0 dy=0 dh=0 dv=0
PairPos2: "'kern' Horizontal Kerning lookup 15-1" uni0630 dx=-128 dy=0 dh=-128 dv=0 dx=0 dy=0 dh=0 dv=0
PairPos2: "'kern' Horizontal Kerning lookup 15-1" uni062F dx=-128 dy=0 dh=-128 dv=0 dx=0 dy=0 dh=0 dv=0
PairPos2: "'kern' Horizontal Kerning lookup 15-1" uniFEA7 dx=-128 dy=0 dh=-128 dv=0 dx=0 dy=0 dh=0 dv=0
PairPos2: "'kern' Horizontal Kerning lookup 15-1" uniFEA3 dx=-128 dy=0 dh=-128 dv=0 dx=0 dy=0 dh=0 dv=0
PairPos2: "'kern' Horizontal Kerning lookup 15-1" uniFE9F dx=-128 dy=0 dh=-128 dv=0 dx=0 dy=0 dh=0 dv=0
PairPos2: "'kern' Horizontal Kerning lookup 15-1" uniFE9B dx=-128 dy=0 dh=-128 dv=0 dx=0 dy=0 dh=0 dv=0
PairPos2: "'kern' Horizontal Kerning lookup 15-1" uni062B dx=-128 dy=0 dh=-128 dv=0 dx=0 dy=0 dh=0 dv=0
PairPos2: "'kern' Horizontal Kerning lookup 15-1" uniFE97 dx=-128 dy=0 dh=-128 dv=0 dx=0 dy=0 dh=0 dv=0
PairPos2: "'kern' Horizontal Kerning lookup 15-1" uni062A dx=-128 dy=0 dh=-128 dv=0 dx=0 dy=0 dh=0 dv=0
PairPos2: "'kern' Horizontal Kerning lookup 15-1" uni0629 dx=-128 dy=0 dh=-128 dv=0 dx=0 dy=0 dh=0 dv=0
PairPos2: "'kern' Horizontal Kerning lookup 15-1" uni0628 dx=-128 dy=0 dh=-128 dv=0 dx=0 dy=0 dh=0 dv=0
PairPos2: "'kern' Horizontal Kerning lookup 15-1" uni0627 dx=-196 dy=0 dh=-196 dv=0 dx=0 dy=0 dh=0 dv=0
PairPos2: "'kern' Horizontal Kerning lookup 15-1" uni0622 dx=-196 dy=0 dh=-196 dv=0 dx=0 dy=0 dh=0 dv=0
PairPos2: "'kern' Horizontal Kerning lookup 15-1" uniFB94 dx=-196 dy=0 dh=-196 dv=0 dx=0 dy=0 dh=0 dv=0
PairPos2: "'kern' Horizontal Kerning lookup 15-1" afii57509 dx=-196 dy=0 dh=-196 dv=0 dx=0 dy=0 dh=0 dv=0
PairPos2: "'kern' Horizontal Kerning lookup 15-1" uniFB56 dx=-128 dy=0 dh=-128 dv=0 dx=0 dy=0 dh=0 dv=0
PairPos2: "'kern' Horizontal Kerning lookup 15-1" afii57506 dx=-128 dy=0 dh=-128 dv=0 dx=0 dy=0 dh=0 dv=0
EndChar

StartChar: uniFEB2
Encoding: 65202 65202 186
Width: 2544
VWidth: 3752
GlyphClass: 2
Flags: W
AnchorPoint: "Anchor-10" 1712.2 1234.76 basechar 0
AnchorPoint: "Anchor-7" 595.613 -793.732 basechar 0
LayerCount: 2
Fore
SplineSet
941.727539062 411.73046875 m 1,0,-1
 1165.4765625 697.595703125 l 2,1,2
 1186.76340388 724.698758611 1186.76340388 724.698758611 1206.16210938 697.595703125 c 2,3,-1
 1269.04296875 609.741210938 l 2,4,5
 1352 494 1352 494 1476.65234375 497.793945312 c 8,6,7
 1598.15319225 502.005309826 1598.15319225 502.005309826 1615.70410156 641.091796875 c 2,8,-1
 1632.00292969 770.255859375 l 1,9,-1
 1790.68164062 770.255859375 l 1,10,-1
 1810.5625 641.62109375 l 2,11,12
 1832 500 1832 500 1963.2578125 496.857421875 c 16,13,14
 2091.86264815 494.003048513 2091.86264815 494.003048513 2106.98828125 661.438476562 c 2,15,-1
 2119.87402344 804.079101562 l 1,16,-1
 2291.93066406 804.079101562 l 1,17,-1
 2304.01660156 664.922851562 l 2,18,19
 2319.00611388 494.930664062 2319.00611388 494.930664062 2520.15136719 494.930664062 c 2,20,-1
 2549 494.930664062 l 2,21,22
 2624.34082031 495.000315081 2624.34082031 495.000315081 2624.34082031 303 c 2,23,-1
 2624.34082031 171 l 2,24,25
 2624 0 2624 0 2549 0 c 2,26,-1
 2519.24023438 0 l 2,27,28
 2311 0 2311 0 2213.23535156 164.798828125 c 1,29,30
 2090 1 2090 1 1963.19042969 0.802734375 c 0,31,32
 1813 1 1813 1 1706.05566406 172.688476562 c 1,33,34
 1609 -2 1609 -2 1458.45800781 -1.294921875 c 0,35,36
 1427 -1 1427 -1 1358.5390625 34.34375 c 1,37,38
 1333 -295 1333 -295 1130.32226562 -445.1953125 c 0,39,40
 966 -567 966 -567 698.983398438 -567.462890625 c 0,41,42
 376 -567 376 -567 224.981445312 -405.92578125 c 0,43,44
 77 -248 77 -248 77.33203125 30.6279296875 c 0,45,46
 77 309 77 309 203.59765625 549.059570312 c 1,47,-1
 380.661132812 499.107421875 l 1,48,49
 329 326 329 326 328.901367188 207.822265625 c 0,50,51
 329 89 329 89 380.943359375 24.2216796875 c 0,52,53
 479 -96 479 -96 704.557617188 -95.9609375 c 0,54,55
 997.10671195 -96.0002833382 997.10671195 -96.0002833382 1107.68945312 42.5625 c 0,56,57
 1124 63 1124 63 1124.05957031 90.955078125 c 0,58,59
 1124 122 1124 122 1104.39941406 161.391601562 c 0,60,61
 1086 199 1086 199 941.727539062 411.73046875 c 1,0,-1
EndSplineSet
EndChar

StartChar: uniFEB3
Encoding: 65203 65203 187
Width: 1605
VWidth: 3752
GlyphClass: 2
Flags: W
AnchorPoint: "Anchor-10" 836.082 1241.4 basechar 0
AnchorPoint: "Anchor-7" 722.787 -224.589 basechar 0
LayerCount: 2
Fore
SplineSet
-4.6591796875 0 m 2,0,1
 -60 0 -60 0 -60 171 c 2,2,-1
 -60 303 l 2,3,4
 -60 494.930664062 -60 494.930664062 -4.6591796875 494.930664062 c 2,5,-1
 67.3173828125 494.930664062 l 2,6,7
 273.978943773 494.999992936 273.978943773 494.999992936 289.12109375 637.634765625 c 6,8,-1
 303.286132812 771.065429688 l 5,9,-1
 461.965820312 771.065429688 l 5,10,-1
 479.845703125 641.1640625 l 6,11,12
 500 497 500 497 628.541992188 496.599609375 c 4,13,14
 762.110582357 497.000331761 762.110582357 497.000331761 777.060546875 636.698242188 c 6,15,-1
 791.225585938 769.061523438 l 5,16,-1
 949.905273438 769.061523438 l 5,17,-1
 969.78515625 642.560546875 l 6,18,19
 993 495 993 495 1129.50292969 494.930664062 c 4,20,21
 1215 495 1215 495 1255.00195312 540.958984375 c 4,22,23
 1273 561 1273 561 1267.12402344 599 c 4,24,25
 1259.96082234 639.219974908 1259.96082234 639.219974908 1230 696 c 6,26,-1
 1179.94140625 790.868164062 l 5,27,-1
 1358.86523438 1013.32714844 l 6,28,29
 1386 1047 1386 1047 1408.50878906 1012.26074219 c 4,30,31
 1535 817 1535 817 1534.36425781 591.590820312 c 4,32,33
 1533 337 1533 337 1396.70800781 144.848632812 c 4,34,35
 1293 -1 1293 -1 1149 0 c 4,36,37
 980 1 980 1 873.685546875 171.181640625 c 5,38,39
 767 -1 767 -1 627.801757812 0.033203125 c 4,40,41
 465 1 465 1 375.458984375 165.491210938 c 5,42,43
 241 0 241 0 40.4453125 0 c 2,44,-1
 -4.6591796875 0 l 2,0,1
EndSplineSet
EndChar

StartChar: uniFEB4
Encoding: 65204 65204 188
Width: 1699
VWidth: 3752
GlyphClass: 2
Flags: W
AnchorPoint: "Anchor-7" 731.587 -232.589 basechar 0
AnchorPoint: "Anchor-10" 831.136 1274.73 basechar 0
LayerCount: 2
Fore
SplineSet
1119.82324219 -0.2412109375 m 4,0,1
 980 1 980 1 873.685546875 171.181640625 c 5,2,3
 767 -1 767 -1 627.801757812 0.033203125 c 4,4,5
 465 1 465 1 375.458984375 165.491210938 c 5,6,7
 241 0 241 0 40.4453125 0 c 6,8,-1
 -4.6591796875 0 l 6,9,10
 -60 0 -60 0 -60 171 c 6,11,-1
 -60 303 l 6,12,13
 -60 494.930664062 -60 494.930664062 -4.6591796875 494.930664062 c 6,14,-1
 67.3173828125 494.930664062 l 6,15,16
 273.978943773 494.999992936 273.978943773 494.999992936 289.12109375 637.634765625 c 6,17,-1
 303.286132812 771.065429688 l 5,18,-1
 461.965820312 771.065429688 l 5,19,-1
 479.845703125 641.1640625 l 6,20,21
 500 497 500 497 628.541992188 496.599609375 c 4,22,23
 762.110582357 497.000331761 762.110582357 497.000331761 777.060546875 636.698242188 c 6,24,-1
 791.225585938 769.061523438 l 5,25,-1
 949.905273438 769.061523438 l 5,26,-1
 969.78515625 642.560546875 l 6,27,28
 993 495 993 495 1122.34765625 495.663085938 c 4,29,30
 1245.46734729 496.001283758 1245.46734729 496.001283758 1261.62109375 666.793945312 c 6,31,-1
 1274.50683594 803.034179688 l 5,32,-1
 1446.56445312 803.034179688 l 5,33,-1
 1458.64941406 669.215820312 l 6,34,35
 1474.00610936 494.930664062 1474.00610936 494.930664062 1674.78417969 494.930664062 c 6,36,-1
 1704 494.930664062 l 6,37,38
 1729.34082031 495.000945244 1729.34082031 495.000945244 1729.34082031 303 c 6,39,-1
 1729.34082031 171 l 6,40,41
 1729 0 1729 0 1704 0 c 6,42,-1
 1673.87597656 0 l 6,43,44
 1466 0 1466 0 1367.87207031 163.749023438 c 5,45,46
 1264 -1 1264 -1 1119.82324219 -0.2412109375 c 4,0,1
EndSplineSet
EndChar

StartChar: uniFEBA
Encoding: 65210 65210 194
Width: 2716
VWidth: 3753
GlyphClass: 2
Flags: W
AnchorPoint: "Anchor-7" 688.402 -774.108 basechar 0
AnchorPoint: "Anchor-10" 2158.87 1390.76 basechar 0
LayerCount: 2
Fore
SplineSet
2692.73535156 0 m 2,0,1
 2490 0 2490 0 2323.38476562 172.798828125 c 1,2,3
 2114.92902599 -2.05953493705 2114.92902599 -2.05953493705 1810.20898438 -2.080078125 c 2,4,-1
 1607.41210938 -2.09375 l 2,5,6
 1463 -2 1463 -2 1357.47265625 34.34375 c 1,7,8
 1332 -295 1332 -295 1129.25488281 -445.1953125 c 0,9,10
 965 -567 965 -567 698.983398438 -567.462890625 c 0,11,12
 376 -567 376 -567 224.981445312 -405.92578125 c 0,13,14
 77 -248 77 -248 77.33203125 30.6279296875 c 0,15,16
 77 309 77 309 203.59765625 549.059570312 c 1,17,-1
 380.661132812 499.107421875 l 1,18,19
 329 326 329 326 328.901367188 207.822265625 c 0,20,21
 329 89 329 89 380.943359375 24.2216796875 c 0,22,23
 479 -96 479 -96 704.557617188 -95.9609375 c 0,24,25
 997 -96 997 -96 1107.68945312 42.5625 c 0,26,27
 1124 63 1124 63 1124.05957031 90.955078125 c 0,28,29
 1124 122 1124 122 1104.39941406 161.391601562 c 0,30,31
 1086 199 1086 199 941.727539062 411.73046875 c 1,32,-1
 1161.91699219 694.395507812 l 2,33,34
 1185.73219247 724.659672354 1185.73219247 724.659672354 1211.32617188 691.1953125 c 2,35,-1
 1271.17578125 612.94140625 l 2,36,37
 1360 497 1360 497 1460.95605469 496.896484375 c 1,38,39
 1564 629 1564 629 1630.16796875 700.897460938 c 0,40,41
 1952 1049 1952 1049 2252.50488281 1048.79394531 c 0,42,43
 2459 1048 2459 1048 2542.66113281 885.391601562 c 0,44,45
 2585 804 2585 804 2584.90917969 699.462890625 c 0,46,47
 2585 574 2585 574 2560.67773438 494.930664062 c 1,48,-1
 2720.72851562 494.930664062 l 2,49,50
 2746.06933594 495.000190233 2746.06933594 495.000190233 2746.06933594 303 c 2,51,-1
 2746.06933594 171 l 2,52,53
 2746 0 2746 0 2720.72851562 0 c 2,54,-1
 2692.73535156 0 l 2,0,1
1691.01464844 494.455078125 m 1,55,-1
 1932.71484375 494.455078125 l 2,56,57
 2260 494 2260 494 2321.37890625 541.134765625 c 0,58,59
 2340 555 2340 555 2336.13085938 581.33203125 c 0,60,61
 2318 690 2318 690 2129.64648438 689.1953125 c 0,62,63
 1958 688 1958 688 1758.16210938 546.856445312 c 0,64,65
 1730 527 1730 527 1691.01464844 494.455078125 c 1,55,-1
EndSplineSet
EndChar

StartChar: uniFEBB
Encoding: 65211 65211 195
Width: 1773
VWidth: 3753
GlyphClass: 2
Flags: W
AnchorPoint: "Anchor-10" 1182.76 1374.51 basechar 0
AnchorPoint: "Anchor-7" 682.342 -216.568 basechar 0
LayerCount: 2
Fore
SplineSet
-4.6591796875 0 m 2,0,1
 -60 0 -60 0 -60 171 c 2,2,-1
 -60 303 l 2,3,4
 -60 495.076732765 -60 495.076732765 -4.6591796875 494.930664062 c 2,5,-1
 9.400390625 494.893554688 l 2,6,7
 265.734883384 494.000923213 265.734883384 494.000923213 279.041992188 636.854492188 c 2,8,-1
 292.326171875 779.461914062 l 1,9,-1
 449.564453125 779.461914062 l 1,10,-1
 465.392578125 637.44921875 l 2,11,12
 480 502 480 502 578.228515625 496.896484375 c 1,13,14
 695 645 695 645 747.439453125 700.897460938 c 0,15,16
 1074 1049 1074 1049 1369.77734375 1048.79394531 c 0,17,18
 1574 1048 1574 1048 1659.93261719 885.391601562 c 0,19,20
 1702 805 1702 805 1702.18164062 699.462890625 c 0,21,22
 1702 517 1702 517 1616.05078125 364.055664062 c 0,23,24
 1409.97323426 -2.04755017097 1409.97323426 -2.04755017097 927.481445312 -2.080078125 c 2,25,-1
 724.684570312 -2.09375 l 2,26,27
 534 -2 534 -2 363.875 183.073242188 c 1,28,29
 211 0 211 0 28.1640625 0 c 2,30,-1
 -4.6591796875 0 l 2,0,1
808.287109375 494.455078125 m 1,31,-1
 1049.98632812 494.455078125 l 2,32,33
 1374.89746094 494.934570312 1374.89746094 494.934570312 1438.65039062 541.134765625 c 0,34,35
 1457.72363281 554.663085938 1457.72363281 554.663085938 1453.40332031 581.33203125 c 0,36,37
 1435.32421875 690.12890625 1435.32421875 690.12890625 1246.91894531 689.1953125 c 0,38,39
 1072.65917969 687.99609375 1072.65917969 687.99609375 875.434570312 546.856445312 c 0,40,41
 847.59375 526.9296875 847.59375 526.9296875 808.287109375 494.455078125 c 1,31,-1
EndSplineSet
EndChar

StartChar: uniFEBC
Encoding: 65212 65212 196
Width: 1833
VWidth: 3753
GlyphClass: 2
Flags: W
AnchorPoint: "Anchor-7" 682.342 -216.568 basechar 0
AnchorPoint: "Anchor-10" 1201.34 1385.9 basechar 0
LayerCount: 2
Fore
SplineSet
1838 0 m 2,0,-1
 1810.00683594 0 l 2,1,2
 1607 0 1607 0 1440.65722656 172.798828125 c 1,3,4
 1232.92933208 -2.05948586821 1232.92933208 -2.05948586821 927.481445312 -2.080078125 c 2,5,-1
 724.684570312 -2.09375 l 2,6,7
 534 -2 534 -2 363.875 183.073242188 c 1,8,9
 208 0 208 0 28.1640625 0 c 2,10,-1
 -4.6591796875 0 l 2,11,12
 -60 0 -60 0 -60 171 c 6,13,-1
 -60 303 l 6,14,15
 -60 494.930664062 -60 494.930664062 -4.6591796875 494.930664062 c 2,16,-1
 9.400390625 494.930664062 l 2,17,18
 265.827945146 494.999953509 265.827945146 494.999953509 279.041992188 636.854492188 c 2,19,-1
 292.326171875 779.461914062 l 1,20,-1
 449.564453125 779.461914062 l 1,21,-1
 465.392578125 637.44921875 l 2,22,23
 480 502 480 502 578.228515625 496.896484375 c 1,24,25
 691 640 691 640 747.439453125 700.897460938 c 0,26,27
 1070 1049 1070 1049 1369.77734375 1048.79394531 c 0,28,29
 1576 1048 1576 1048 1659.93261719 885.391601562 c 0,30,31
 1702 804 1702 804 1702.18164062 699.462890625 c 0,32,33
 1702 577 1702 577 1677.94921875 494.930664062 c 1,34,-1
 1838 494.930664062 l 2,35,36
 1863.34082031 495.000945244 1863.34082031 495.000945244 1863.34082031 303 c 2,37,-1
 1863.34082031 171 l 2,38,39
 1863 0 1863 0 1838 0 c 2,0,-1
808.287109375 494.455078125 m 1,40,-1
 1049.98632812 494.455078125 l 2,41,42
 1374.89746094 494.934570312 1374.89746094 494.934570312 1438.65039062 541.134765625 c 0,43,44
 1457.72363281 554.663085938 1457.72363281 554.663085938 1453.40332031 581.33203125 c 0,45,46
 1435.32421875 690.12890625 1435.32421875 690.12890625 1246.91894531 689.1953125 c 0,47,48
 1072.65917969 687.99609375 1072.65917969 687.99609375 875.434570312 546.856445312 c 0,49,50
 847.59375 526.9296875 847.59375 526.9296875 808.287109375 494.455078125 c 1,40,-1
EndSplineSet
EndChar

StartChar: uniFEC2
Encoding: 65218 65218 202
Width: 1695
VWidth: 3753
GlyphClass: 2
Flags: W
AnchorPoint: "Anchor-10" 540.374 1683.33 basechar 0
AnchorPoint: "Anchor-7" 829.173 -205.469 basechar 0
LayerCount: 2
Fore
SplineSet
1700 0 m 2,0,-1
 1670.94140625 0 l 2,1,2
 1465 0 1465 0 1302.39160156 172.814453125 c 1,3,4
 1099.83071061 -1.14538618817 1099.83071061 -1.14538618817 797.749023438 -0.998046875 c 2,5,-1
 299.203125 -0.7548828125 l 1,6,7
 143 169 143 169 70.3994140625 369.064453125 c 0,8,9
 25.1640797113 494.544851655 25.1640797113 494.544851655 173.862304688 494.588867188 c 2,10,-1
 437.79296875 494.666992188 l 1,11,12
 421 1078 421 1078 368.059570312 1396.72949219 c 1,13,-1
 681.595703125 1600.63574219 l 2,14,15
 734.520704219 1634.69158579 734.520704219 1634.69158579 734.463867188 1563.58984375 c 2,16,-1
 733.862304688 811.049804688 l 1,17,18
 1003 1049 1003 1049 1240.04492188 1048.80957031 c 0,19,20
 1445 1048 1445 1048 1530.20117188 885.407226562 c 0,21,22
 1573 803 1573 803 1572.75195312 695.2109375 c 0,23,24
 1572 588 1572 588 1540.75097656 494.930664062 c 1,25,-1
 1700 494.930664062 l 2,26,27
 1725.34082031 495.000945244 1725.34082031 495.000945244 1725.34082031 303 c 2,28,-1
 1725.34082031 171 l 2,29,30
 1725 0 1725 0 1700 0 c 2,0,-1
678.5546875 494.470703125 m 1,31,-1
 920.254882812 494.470703125 l 2,32,33
 1245.16503906 494.950195312 1245.16503906 494.950195312 1308.91894531 541.150390625 c 0,34,35
 1327.9921875 554.678710938 1327.9921875 554.678710938 1323.67089844 581.34765625 c 0,36,37
 1305.59179688 690.14453125 1305.59179688 690.14453125 1117.18652344 689.2109375 c 0,38,39
 942.927734375 688.01171875 942.927734375 688.01171875 745.702148438 546.87109375 c 0,40,41
 717.862304688 526.9453125 717.862304688 526.9453125 678.5546875 494.470703125 c 1,31,-1
EndSplineSet
EndChar

StartChar: uniFEC3
Encoding: 65219 65219 203
Width: 1362
VWidth: 3753
GlyphClass: 2
Flags: W
AnchorPoint: "Anchor-10" 211.977 1672.53 basechar 0
AnchorPoint: "Anchor-7" 513.441 -199.068 basechar 0
LayerCount: 2
Fore
SplineSet
-4.6591796875 0 m 2,0,1
 -60 0 -60 0 -60 171 c 2,2,-1
 -60 303 l 2,3,4
 -60 495.021984431 -60 495.021984431 -4.6591796875 494.930664062 c 2,5,-1
 155.127929688 494.666992188 l 1,6,7
 139 1078 139 1078 85.39453125 1396.72949219 c 5,8,-1
 398.930664062 1600.63574219 l 6,9,10
 451.855972815 1634.90673734 451.855972815 1634.90673734 451.799804688 1564.65625 c 6,11,-1
 451.197265625 811.049804688 l 1,12,13
 722 1049 722 1049 958.447265625 1048.79394531 c 0,14,15
 1164 1048 1164 1048 1248.60253906 885.391601562 c 0,16,17
 1292 803 1292 803 1291.15332031 695.1953125 c 0,18,19
 1290 514 1290 514 1204.72070312 364.055664062 c 0,20,21
 998 0 998 0 516.151367188 0 c 2,22,-1
 -4.6591796875 0 l 2,0,1
396.95703125 494.455078125 m 1,23,-1
 638.65625 494.455078125 l 2,24,25
 963.56640625 494.93359375 963.56640625 494.93359375 1027.3203125 541.134765625 c 0,26,27
 1046.39355469 554.663085938 1046.39355469 554.663085938 1042.07226562 581.33203125 c 0,28,29
 1023.99316406 690.12890625 1023.99316406 690.12890625 835.588867188 689.1953125 c 0,30,31
 661.329101562 687.99609375 661.329101562 687.99609375 464.104492188 546.856445312 c 0,32,33
 436.263671875 526.9296875 436.263671875 526.9296875 396.95703125 494.455078125 c 1,23,-1
EndSplineSet
EndChar

StartChar: uniFEC4
Encoding: 65220 65220 204
Width: 1414
VWidth: 3753
GlyphClass: 2
Flags: W
AnchorPoint: "Anchor-7" 507.041 -194.802 basechar 0
AnchorPoint: "Anchor-10" 216.243 1668.26 basechar 0
LayerCount: 2
Fore
SplineSet
1419 0 m 2,0,-1
 1390.41015625 0 l 2,1,2
 1183 0 1183 0 1020.79394531 172.798828125 c 1,3,4
 818 0 818 0 516.151367188 0 c 2,5,-1
 -4.6591796875 0 l 2,6,7
 -60 0 -60 0 -60 171 c 2,8,-1
 -60 303 l 2,9,10
 -60 495.021984431 -60 495.021984431 -4.6591796875 494.930664062 c 2,11,-1
 155.127929688 494.666992188 l 1,12,13
 139 1078 139 1078 85.39453125 1396.72949219 c 5,14,-1
 398.930664062 1600.63574219 l 6,15,16
 451.855837073 1634.90664944 451.855837073 1634.90664944 451.798828125 1563.58984375 c 6,17,-1
 451.197265625 811.049804688 l 1,18,19
 722 1049 722 1049 958.447265625 1048.79394531 c 0,20,21
 1164 1048 1164 1048 1248.60253906 885.391601562 c 0,22,23
 1292 803 1292 803 1291.15332031 695.1953125 c 0,24,25
 1291 588 1291 588 1259.15234375 494.930664062 c 1,26,-1
 1419 494.930664062 l 2,27,28
 1444.34082031 495.000945244 1444.34082031 495.000945244 1444.34082031 303 c 2,29,-1
 1444.34082031 171 l 2,30,31
 1444 0 1444 0 1419 0 c 2,0,-1
396.95703125 494.455078125 m 1,32,-1
 638.65625 494.455078125 l 2,33,34
 963.56640625 494.93359375 963.56640625 494.93359375 1027.3203125 541.134765625 c 0,35,36
 1046.39355469 554.663085938 1046.39355469 554.663085938 1042.07226562 581.33203125 c 0,37,38
 1023.99316406 690.12890625 1023.99316406 690.12890625 835.588867188 689.1953125 c 0,39,40
 661.329101562 687.99609375 661.329101562 687.99609375 464.104492188 546.856445312 c 0,41,42
 436.263671875 526.9296875 436.263671875 526.9296875 396.95703125 494.455078125 c 1,32,-1
EndSplineSet
EndChar

StartChar: uniFECA
Encoding: 65226 65226 210
Width: 1334
VWidth: 3747
GlyphClass: 2
Flags: W
AnchorPoint: "Anchor-10" 625.861 1430.25 basechar 0
AnchorPoint: "Anchor-7" 638.791 -812.06 basechar 0
LayerCount: 2
Fore
SplineSet
85.654296875 -61.4033203125 m 0,0,1
 86 -367 86 -367 246.725585938 -517.250976562 c 0,2,3
 385 -648 385 -648 750.635742188 -647.389648438 c 0,4,5
 970 -647 970 -647 999.326171875 -618.404296875 c 0,6,7
 1100 -520 1100 -520 1212.60546875 -242.649414062 c 0,8,9
 1227 -207 1227 -207 1191.23242188 -213.712890625 c 0,10,11
 985 -252 985 -252 748.170898438 -251.796875 c 0,12,13
 321 -251 321 -251 315.306640625 -28 c 24,14,15
 310 209 310 209 760.794921875 372.264648438 c 1,16,17
 928 0 928 0 1310.77734375 0 c 2,18,-1
 1339 0 l 2,19,20
 1364.34082031 0 1364.34082031 0 1364.34082031 171 c 2,21,-1
 1364.34082031 303 l 2,22,23
 1364.00012308 494.930664062 1364.00012308 494.930664062 1339 494.930664062 c 2,24,-1
 1299.59375 494.930664062 l 2,25,26
 1107 495 1107 495 996.099609375 577.616210938 c 1,27,28
 1132 690 1132 690 1131.88476562 868.421875 c 0,29,30
 1132 1069 1132 1069 795.4921875 1068.79296875 c 0,31,32
 460 1069 460 1069 330.690429688 990.165039062 c 1,33,-1
 330.836914062 766.745117188 l 1,34,35
 557 737 557 737 634.9296875 708.888671875 c 1,36,37
 86 447 86 447 85.654296875 -61.4033203125 c 0,0,1
EndSplineSet
EndChar

StartChar: uniFECB
Encoding: 65227 65227 211
Width: 1126
VWidth: 3747
GlyphClass: 2
Flags: W
AnchorPoint: "Anchor-10" 549.702 1485.5 basechar 0
AnchorPoint: "Anchor-7" 508.066 -201.427 basechar 0
LayerCount: 2
Fore
SplineSet
-4.6591796875 0 m 2,0,1
 -60 0 -60 0 -60 171 c 2,2,-1
 -60 303 l 2,3,4
 -60 494.930664062 -60 494.930664062 -4.6591796875 494.930664062 c 2,5,-1
 181.708007812 494.930664062 l 1,6,7
 114.862360594 597.094318246 114.862360594 597.094318246 114.862360594 710.308383238 c 0,8,9
 114.862360594 806.614115261 114.862360594 806.614115261 163.232421875 910.916015625 c 0,10,11
 288.058437023 1179.82265538 288.058437023 1179.82265538 586.36196161 1179.82265538 c 0,12,13
 790.931084928 1179.82265538 790.931084928 1179.82265538 935.361328125 1013.6640625 c 1,14,-1
 894.463867188 803.08984375 l 1,15,16
 778.85600023 863.918771826 778.85600023 863.918771826 655.259575839 863.918771826 c 0,17,18
 469.719204584 863.918771826 469.719204584 863.918771826 360.151367188 748.471679688 c 0,19,20
 335 722 335 722 335.499023438 709.3828125 c 0,21,22
 337 678 337 678 372.642578125 640.149414062 c 0,23,24
 412 599 412 599 464.619140625 569.8125 c 0,25,26
 526.144272077 536.188622431 526.144272077 536.188622431 556.046777645 536.188622431 c 0,27,28
 596.347019207 536.188622431 596.347019207 536.188622431 872.729492188 593.353515625 c 2,29,-1
 981.125976562 615.7734375 l 2,30,31
 1073.44318329 635.187441755 1073.44318329 635.187441755 1055.86230469 560.93359375 c 2,32,-1
 968.0859375 190.205078125 l 1,33,34
 611 98 611 98 432.200195312 50.1162109375 c 0,35,36
 245 0 245 0 42.5625 0 c 2,37,-1
 -4.6591796875 0 l 2,0,1
EndSplineSet
EndChar

StartChar: uniFECC
Encoding: 65228 65228 212
Width: 1049
VWidth: 3749
GlyphClass: 2
Flags: W
AnchorPoint: "Anchor-10" 520.738 1285.06 basechar 0
AnchorPoint: "Anchor-7" 500.445 -201.154 basechar 0
LayerCount: 2
Fore
SplineSet
1054 0 m 2,0,-1
 991.078125 0 l 2,1,2
 722 0 722 0 557.641601562 200.666015625 c 1,3,4
 349 0 349 0 86.23046875 0 c 2,5,-1
 -4.6591796875 0 l 2,6,7
 -60 0 -60 0 -60 171 c 2,8,-1
 -60 303 l 2,9,10
 -60 494.930664062 -60 494.930664062 -4.6591796875 494.930664062 c 2,11,-1
 83.576171875 494.930664062 l 2,12,13
 357 495 357 495 463.106445312 553.430664062 c 1,14,15
 362.174351845 682.776565651 362.174351845 682.776565651 139.013671875 711.518554688 c 2,16,-1
 120.421875 713.913085938 l 1,17,-1
 120.275390625 937.311523438 l 1,18,19
 264 1025 264 1025 567.481445312 1026.27832031 c 0,20,21
 759 1027 759 1027 861.5859375 955.690429688 c 0,22,23
 928 909 928 909 921.396484375 824.373046875 c 0,24,25
 908 660 908 660 735.448242188 542.112304688 c 1,26,27
 813.114134172 494.930664062 813.114134172 494.930664062 993.732421875 494.930664062 c 2,28,-1
 1054 494.930664062 l 2,29,30
 1079.34082031 495.000945244 1079.34082031 495.000945244 1079.34082031 303 c 6,31,-1
 1079.34082031 171 l 6,32,33
 1079 0 1079 0 1054 0 c 2,0,-1
EndSplineSet
EndChar

StartChar: uniFEDA
Encoding: 65242 65242 226
Width: 2120
VWidth: 3713
GlyphClass: 2
Flags: W
AnchorPoint: "Anchor-10" 1031.48 1640.47 basechar 0
AnchorPoint: "Anchor-7" 889.275 -206.553 basechar 0
LayerCount: 2
Fore
SplineSet
852 0 m 0,0,1
 490 0 490 0 302.755859375 102.430664062 c 0,2,3
 69 230 69 230 68.4521484375 537.642578125 c 0,4,5
 68 751 68 751 191.454101562 994.09375 c 1,6,-1
 345.512695312 938.196289062 l 1,7,8
 316 830 316 830 315.833007812 756.286132812 c 0,9,10
 316 687 316 687 341.935546875 647.479492188 c 0,11,12
 444 491 444 491 882 491 c 0,13,14
 1391 491 1391 491 1590.57128906 625.1171875 c 0,15,16
 1619 644 1619 644 1599.36230469 1039.35644531 c 0,17,18
 1587 1299 1587 1299 1570.63476562 1407.25195312 c 1,19,-1
 1888 1599.27636719 l 2,20,21
 1941.56445313 1631.75325596 1941.56445313 1631.75325596 1941.56445312 1567.18945312 c 2,22,-1
 1941.56445312 741.268554688 l 2,23,24
 1942.00012263 494.930664062 1942.00012263 494.930664062 2077.01171875 494.930664062 c 2,25,-1
 2125 494.930664062 l 2,26,27
 2150.34082031 495.000945244 2150.34082031 495.000945244 2150.34082031 303 c 2,28,-1
 2150.34082031 171 l 2,29,30
 2150 0 2150 0 2125 0 c 2,31,-1
 2097.44433594 0 l 2,32,33
 1809 0 1809 0 1723.30859375 160.013671875 c 1,34,35
 1488 0 1488 0 852 0 c 0,0,1
1207.91699219 1117.5625 m 0,36,37
 1278.92578125 1036.79394531 1278.92578125 1036.79394531 1247.79003906 911.135742188 c 0,38,39
 1215.9921875 785.061523438 1215.9921875 785.061523438 1091.91308594 739.262695312 c 0,40,41
 943.994140625 684.795898438 943.994140625 684.795898438 698.56640625 762.3828125 c 1,42,-1
 718.59765625 967.564453125 l 1,43,-1
 744.3984375 958.266601562 l 2,44,45
 914.127929688 897.061523438 914.127929688 897.061523438 1050.41113281 925.129882812 c 0,46,47
 1090.12695312 933.327148438 1090.12695312 933.327148438 1099.33984375 949.385742188 c 0,48,49
 1109.32617188 965.327148438 1109.32617188 965.327148438 1092.0390625 977.741210938 c 0,50,51
 1075.19335938 989.860351562 1075.19335938 989.860351562 1003.26367188 1005.05761719 c 0,52,53
 796.794921875 1048.52636719 796.794921875 1048.52636719 801.8203125 1243.5625 c 0,54,55
 807.358398438 1448.97753906 807.358398438 1448.97753906 1146.76074219 1495.89453125 c 0,56,57
 1214.92578125 1505.05761719 1214.92578125 1505.05761719 1227.05761719 1488.19238281 c 0,58,59
 1240.11425781 1469.3828125 1240.11425781 1469.3828125 1222.89160156 1420.09179688 c 2,60,-1
 1179.828125 1296.84960938 l 1,61,62
 946.126953125 1273.59179688 946.126953125 1273.59179688 942.014648438 1226.33105469 c 1,63,64
 958.927734375 1203.19238281 958.927734375 1203.19238281 1041.24902344 1189.26074219 c 0,65,66
 1123.19335938 1175.45898438 1123.19335938 1175.45898438 1154.375 1158.94238281 c 0,67,68
 1185.05957031 1143.45996094 1185.05957031 1143.45996094 1207.91699219 1117.5625 c 0,36,37
EndSplineSet
EndChar

StartChar: uniFEDB
Encoding: 65243 65243 227
Width: 1020
VWidth: 3732
GlyphClass: 2
Flags: W
AnchorPoint: "Anchor-10" 243.521 1632.94 basechar 0
AnchorPoint: "Anchor-7" 335.081 -252.218 basechar 0
LayerCount: 2
Fore
SplineSet
-4.6591796875 0 m 2,0,1
 -60 0 -60 0 -60 171 c 6,2,-1
 -60 303 l 6,3,4
 -60 494.930664062 -60 494.930664062 -4.6591796875 494.930664062 c 2,5,-1
 96.5654296875 494.930664062 l 2,6,7
 387 495 387 495 435.922851562 582.678710938 c 0,8,9
 452 612 452 612 423.463867188 652.12890625 c 0,10,11
 309 813 309 813 7.51171875 1035.05761719 c 1,12,-1
 83.9931640625 1378.203125 l 1,13,-1
 920 1647.61162223 l 2,14,15
 967.080535542 1663.02636833 967.080535542 1663.02636833 961.211037901 1620 c 2,16,-1
 918.286132812 1305.33886719 l 1,17,-1
 418.130859375 1145.45898438 l 1,18,19
 753 874 753 874 754.092773438 558.396484375 c 0,20,21
 755 325 755 325 613.329101562 175.999023438 c 0,22,23
 446 0 446 0 108.819335938 0 c 2,24,-1
 -4.6591796875 0 l 2,0,1
EndSplineSet
EndChar

StartChar: uniFEDC
Encoding: 65244 65244 228
Width: 1239
VWidth: 3732
GlyphClass: 2
Flags: W
AnchorPoint: "Anchor-10" 241.319 1621.78 basechar 0
AnchorPoint: "Anchor-7" 404.945 -187.381 basechar 0
LayerCount: 2
Fore
SplineSet
7.51171875 1035.05761719 m 1,0,-1
 83.9931640625 1378.203125 l 1,1,-1
 920 1647.61132812 l 2,2,3
 967.080416148 1663.02632974 967.080416148 1663.02632974 961.2109375 1620 c 2,4,-1
 918.286132812 1305.33886719 l 1,5,-1
 418.130859375 1145.45898438 l 1,6,7
 688 896 688 896 857 713 c 24,8,9
 1058.06392901 494.930664062 1058.06392901 494.930664062 1224.89257812 494.930664062 c 2,10,-1
 1244 494.930664062 l 2,11,12
 1269.34082031 495.000945244 1269.34082031 495.000945244 1269.34082031 303 c 2,13,-1
 1269.34082031 171 l 2,14,15
 1269 0 1269 0 1244 0 c 2,16,-1
 1224.02148438 0 l 2,17,18
 927 0 927 0 683.595703125 287.53125 c 1,19,20
 551 0 551 0 94.15234375 0 c 2,21,-1
 -4.6591796875 0 l 2,22,23
 -60 0 -60 0 -60 171 c 6,24,-1
 -60 303 l 6,25,26
 -60 494.930664062 -60 494.930664062 -4.6591796875 494.930664062 c 2,27,-1
 96.5654296875 494.930664062 l 2,28,29
 387 495 387 495 435.922851562 582.678710938 c 0,30,31
 452 612 452 612 423.463867188 652.12890625 c 0,32,33
 309 813 309 813 7.51171875 1035.05761719 c 1,0,-1
EndSplineSet
EndChar

StartChar: uniFEDE
Encoding: 65246 65246 230
Width: 1530
VWidth: 3753
GlyphClass: 2
Flags: W
AnchorPoint: "Anchor-10" 571.865 1112.54 basechar 0
AnchorPoint: "Anchor-7" 628.653 -771.119 basechar 0
LayerCount: 2
Fore
SplineSet
704.557617188 -95.9609375 m 0,0,1
 947 -97 947 -97 1040.31640625 50.4208984375 c 0,2,3
 1072 101 1072 101 1066.52636719 182.3984375 c 0,4,5
 1026 782 1026 782 955.416015625 1414.65039062 c 1,6,-1
 1254 1596.92773438 l 2,7,8
 1317.25524884 1636.15830398 1317.25524884 1636.15830398 1320.17382812 1557 c 2,9,-1
 1353.09765625 664.033203125 l 2,10,11
 1359.00242109 494.930664062 1359.00242109 494.930664062 1512.734375 494.930664062 c 2,12,-1
 1535 494.930664062 l 2,13,14
 1560.34082031 495.000945244 1560.34082031 495.000945244 1560.34082031 303 c 2,15,-1
 1560.34082031 171 l 2,16,17
 1560 0 1560 0 1535 0 c 2,18,-1
 1512.52441406 0 l 2,19,20
 1416 0 1416 0 1342.36816406 55.7744140625 c 1,21,22
 1316.42935085 -275.283207111 1316.42935085 -275.283207111 1132.65917969 -428.263671875 c 0,23,24
 966 -567 966 -567 698.983398438 -567.462890625 c 4,25,26
 375.28461535 -566.579678212 375.28461535 -566.579678212 224.981445312 -405.92578125 c 0,27,28
 77 -248 77 -248 77.33203125 30.6279296875 c 0,29,30
 77 309 77 309 203.59765625 549.059570312 c 1,31,-1
 380.661132812 499.107421875 l 1,32,33
 329 326 329 326 328.901367188 207.822265625 c 0,34,35
 329 89 329 89 380.943359375 24.2216796875 c 0,36,37
 478 -95 478 -95 704.557617188 -95.9609375 c 0,0,1
EndSplineSet
EndChar

StartChar: uniFEDF
Encoding: 65247 65247 231
Width: 636
VWidth: 3713
GlyphClass: 2
Flags: W
AnchorPoint: "Anchor-10" 248.597 1648.49 basechar 0
AnchorPoint: "Anchor-7" 183.305 -220.229 basechar 0
LayerCount: 2
Fore
SplineSet
-4.6591796875 0 m 2,0,1
 -80 0 -80 0 -80 171 c 2,2,-1
 -80 303 l 2,3,4
 -80 494.930664062 -80 494.930664062 -4.6591796875 494.930664062 c 2,5,-1
 16.53515625 494.930664062 l 2,6,7
 196 495 196 495 191.420898438 592.771484375 c 0,8,9
 179 892 179 892 106.596679688 1413.1875 c 1,10,-1
 418.930664062 1595.91894531 l 2,11,12
 471.991966634 1626.99529511 471.991966634 1626.99529511 474.748046875 1563.45605469 c 2,13,-1
 515.860351562 615.64453125 l 2,14,15
 526 374 526 374 455.444335938 226.657226562 c 0,16,17
 346 0 346 0 10.892578125 0 c 2,18,-1
 -4.6591796875 0 l 2,0,1
EndSplineSet
EndChar

StartChar: uniFEE0
Encoding: 65248 65248 232
Width: 731
VWidth: 3713
GlyphClass: 2
Flags: W
AnchorPoint: "Anchor-10" 335.333 1658.48 basechar 0
AnchorPoint: "Anchor-7" 284.362 -216.796 basechar 0
LayerCount: 2
Fore
SplineSet
736 0 m 2,0,-1
 705.435546875 0 l 2,1,2
 484 0 484 0 384.360351562 170.094726562 c 1,3,4
 259 0 259 0 56.5390625 0 c 2,5,-1
 -4.6591796875 0 l 2,6,7
 -80 0 -80 0 -80 171 c 2,8,-1
 -80 303 l 2,9,10
 -80 494.930664062 -80 494.930664062 -4.6591796875 494.930664062 c 2,11,-1
 8.3955078125 494.930664062 l 2,12,13
 252 495 252 495 245.75390625 703.678710938 c 0,14,15
 234 1030 234 1030 188.541992188 1397.75976562 c 5,16,-1
 510.9296875 1600.37011719 l 6,17,18
 564.186523437 1634.28701878 564.186523437 1634.28701878 564.186523438 1560.38964844 c 6,19,-1
 564.186523438 727.0546875 l 2,20,21
 564 596 564 596 595.02734375 550.706054688 c 0,22,23
 634.048508294 494.930664062 634.048508294 494.930664062 715.870117188 494.930664062 c 2,24,-1
 736 494.930664062 l 2,25,26
 811.340820312 495.000315081 811.340820312 495.000315081 811.340820312 303 c 2,27,-1
 811.340820312 171 l 2,28,29
 811 0 811 0 736 0 c 2,0,-1
EndSplineSet
EndChar

StartChar: uniFEE2
Encoding: 65250 65250 234
Width: 1365
VWidth: 3789
GlyphClass: 2
Flags: W
AnchorPoint: "Anchor-10" 673.718 1202.23 basechar 0
AnchorPoint: "Anchor-7" 281.716 -791.776 basechar 0
LayerCount: 2
Fore
SplineSet
1352.15234375 494.930664062 m 2,0,-1
 1370.13769531 494.930664062 l 2,1,2
 1395.0001728 494.930664062 1395.0001728 494.930664062 1395.47851562 303 c 2,3,-1
 1395.47851562 171 l 2,4,5
 1395 0 1395 0 1370.13769531 0 c 2,6,-1
 1355.75195312 0 l 2,7,8
 1279 0 1279 0 1192.20214844 68.197265625 c 1,9,10
 1100.67276545 -193.079545542 1100.67276545 -193.079545542 882.147040608 -193.079545542 c 0,11,12
 659.807186718 -193.079545542 659.807186718 -193.079545542 580.741210938 10.6171875 c 0,13,14
 548.816605653 92.8625645248 548.816605653 92.8625645248 548.816605653 289.649334141 c 0,15,16
 548.816605653 337.831748994 548.816605653 337.831748994 550.73046875 392.880859375 c 1,17,18
 428 349 428 349 369.991210938 262.213867188 c 1,19,-1
 385.454101562 -279.473632812 l 2,20,21
 388 -378 388 -378 249.278320312 -529 c 0,22,23
 164 -623 164 -623 130 -624 c 0,24,25
 107.436970162 -624 107.436970162 -624 104.926757812 -543 c 2,26,-1
 90.63671875 -211.83203125 l 6,27,28
 85.6033472283 -103.159439617 85.6033472283 -103.159439617 85.6033472283 -4.28415916044 c 0,29,30
 85.6033472283 145.075586364 85.6033472283 145.075586364 97.0888671875 272.079101562 c 0,31,32
 124 562 124 562 343.427734375 701.580078125 c 0,33,34
 448 768 448 768 584.00390625 787.186523438 c 1,35,36
 605 881 605 881 622.21484375 910.362304688 c 0,37,38
 648.202217412 953.874487872 648.202217412 953.874487872 681.098330854 953.874487872 c 0,39,40
 702.200896735 953.874487872 702.200896735 953.874487872 726.146484375 935.96875 c 2,41,-1
 1232.74414062 557.151367188 l 2,42,43
 1315.85965226 495.00026917 1315.85965226 495.00026917 1352.15234375 494.930664062 c 2,0,-1
772.456054688 493.6171875 m 1,44,45
 769.906359038 441.083096152 769.906359038 441.083096152 769.906359038 397.415794813 c 0,46,47
 769.906359038 346.419176119 769.906359038 346.419176119 773.383789062 307.515625 c 0,48,49
 780.794921875 234.665039062 780.794921875 234.665039062 816.29296875 206.696289062 c 0,50,51
 844.661020561 184.167903 844.661020561 184.167903 898.411851783 184.167903 c 0,52,53
 1008.32225866 184.167903 1008.32225866 184.167903 1008.32225866 271.733976576 c 0,54,55
 1008.32225866 364.098744823 1008.32225866 364.098744823 772.456054688 493.6171875 c 1,44,45
EndSplineSet
EndChar

StartChar: uniFEE3
Encoding: 65251 65251 235
Width: 1045
VWidth: 3756
GlyphClass: 2
Flags: W
AnchorPoint: "Anchor-10" 543.686 1198.77 basechar 0
AnchorPoint: "Anchor-7" 529.424 -259.04 basechar 0
LayerCount: 2
Fore
SplineSet
-4.6591796875 0 m 2,0,1
 -60 0 -60 0 -60 171 c 6,2,-1
 -60 303 l 6,3,4
 -60 494.930664062 -60 494.930664062 -4.6591796875 494.930664062 c 2,5,-1
 31.248046875 494.930664062 l 2,6,7
 156 495 156 495 251.524414062 626.916015625 c 0,8,9
 379 802 379 802 461.264648438 877.395507812 c 0,10,11
 541 949 541 949 627.196289062 949.369140625 c 0,12,13
 693 949 693 949 758.620117188 908.706054688 c 0,14,15
 913.34807453 813.167616914 913.34807453 813.167616914 963.815429688 573.395507812 c 0,16,17
 982 487 982 487 982.239151048 411.146509931 c 0,18,19
 981.997986391 192.171665417 981.997986391 192.171665417 831.145507812 60.7763671875 c 0,20,21
 743 -16 743 -16 667.138467509 -16.2522498017 c 0,22,23
 529 -16 529 -16 302.1796875 178.619140625 c 1,24,25
 150 0 150 0 16.9853515625 0 c 2,26,-1
 -4.6591796875 0 l 2,0,1
498 557 m 1,27,28
 632.701085966 420.593836996 632.701085966 420.593836996 707.298825205 420.593836996 c 0,29,30
 755.277667856 420.593836996 755.277667856 420.593836996 755.277667856 478.657434427 c 0,31,32
 755.277667856 531.620085741 755.277667856 531.620085741 719.2578125 586.415039062 c 0,33,34
 668.87246013 663.831156367 668.87246013 663.831156367 618.800526904 663.831156367 c 0,35,36
 572.89194467 663.831156367 572.89194467 663.831156367 498 557 c 1,27,28
EndSplineSet
EndChar

StartChar: uniFEE4
Encoding: 65252 65252 236
Width: 1170
VWidth: 3756
GlyphClass: 2
Flags: W
AnchorPoint: "Anchor-10" 561.076 1181.23 basechar 0
AnchorPoint: "Anchor-7" 513.449 -269.66 basechar 0
LayerCount: 2
Fore
SplineSet
1175 0 m 6,0,-1
 1160.61425781 0 l 6,1,2
 1049 0 1049 0 910.921875 98.689453125 c 1,3,4
 864 28 864 28 788.967773438 -32.939453125 c 0,5,6
 726 -83 726 -83 652.80859375 -83.0947265625 c 0,7,8
 515 -83 515 -83 299.229492188 115.48046875 c 1,9,10
 188 0 188 0 16.5849609375 0 c 2,11,-1
 -4.6591796875 0 l 2,12,13
 -60 0 -60 0 -60 171 c 2,14,-1
 -60 303 l 2,15,16
 -60 494.930664062 -60 494.930664062 -4.6591796875 494.930664062 c 2,17,-1
 31.2392578125 494.930664062 l 2,18,19
 185 495 185 495 251.194335938 585.89453125 c 0,20,21
 365 742 365 742 452.650390625 813.330078125 c 0,22,23
 544 887 544 887 629.517529145 887.283333799 c 0,24,25
 698 887 698 887 762.477539062 840.6640625 c 0,26,27
 858 772 858 772 959.123046875 592.309570312 c 0,28,29
 1014.03910145 494.930664062 1014.03910145 494.930664062 1157.01464844 494.930664062 c 6,30,-1
 1175 494.930664062 l 6,31,32
 1200.34082031 495.000945244 1200.34082031 495.000945244 1200.34082031 303 c 6,33,-1
 1200.34082031 171 l 6,34,35
 1200 0 1200 0 1175 0 c 6,0,-1
487.591796875 499.536132812 m 1,36,37
 622.292882841 363.129969808 622.292882841 363.129969808 696.89062208 363.129969808 c 0,38,39
 744.869464731 363.129969808 744.869464731 363.129969808 744.869464731 421.193567239 c 0,40,41
 744.869464731 474.156218554 744.869464731 474.156218554 708.849609375 528.951171875 c 0,42,43
 658.464177503 606.367459013 658.464177503 606.367459013 608.392903921 606.367459013 c 0,44,45
 562.483860604 606.367459013 562.483860604 606.367459013 487.591796875 499.536132812 c 1,36,37
EndSplineSet
EndChar

StartChar: uniFEEA
Encoding: 65258 65258 242
Width: 1061
VWidth: 3740
GlyphClass: 2
Flags: W
AnchorPoint: "Anchor-10" 657.045 1523.82 basechar 0
AnchorPoint: "Anchor-7" 475.202 -208.468 basechar 0
LayerCount: 2
Fore
SplineSet
1066 0 m 2,0,-1
 1047.45507812 0 l 2,1,2
 799 0 799 0 690.700195312 261.125 c 1,3,-1
 542.912109375 123.607421875 l 1,4,5
 467 126 467 126 320 149.989257812 c 0,6,7
 162 176 162 176 117 228.5 c 128,-1,8
 72 281 72 281 72.1984023215 552.612043366 c 0,9,10
 72 684 72 684 97.173828125 761.551757812 c 0,11,12
 146 909 146 909 543.478515625 1094.71386719 c 1,13,-1
 526.415039062 1174.36523438 l 1,14,-1
 672.265625 1337.59179688 l 2,15,16
 695 1363 695 1363 712.309901327 1363.16703221 c 0,17,18
 738.670656136 1363.0020611 738.670656136 1363.0020611 750.974609375 1302.39160156 c 2,19,-1
 879.348632812 670.008789062 l 2,20,21
 915.014124553 494.930664062 915.014124553 494.930664062 1037.3125 494.930664062 c 2,22,-1
 1066 494.930664062 l 2,23,24
 1091.34082031 495.000945244 1091.34082031 495.000945244 1091.34082031 303 c 2,25,-1
 1091.34082031 171 l 2,26,27
 1091 0 1091 0 1066 0 c 2,0,-1
278.779296875 680.216796875 m 0,28,29
 305.973874456 626.327462142 305.973874456 626.327462142 573.326110755 626.327462142 c 0,30,31
 603.71795083 626.327462142 603.71795083 626.327462142 637.197265625 627.1796875 c 1,32,-1
 591.8828125 841.250976562 l 1,33,34
 335.200078836 760.012801142 335.200078836 760.012801142 284.734375 696.067382812 c 0,35,36
 276 685 276 685 278.779296875 680.216796875 c 0,28,29
EndSplineSet
EndChar

StartChar: uniFEEB
Encoding: 65259 65259 243
Width: 1282
VWidth: 3747
GlyphClass: 2
Flags: W
AnchorPoint: "Anchor-10" 526.316 1628.96 basechar 0
AnchorPoint: "Anchor-7" 573.812 -213.204 basechar 0
LayerCount: 2
Fore
SplineSet
-4.6591796875 0 m 2,0,1
 -60 0 -60 0 -60 171 c 6,2,-1
 -60 303 l 6,3,4
 -60 494.482637387 -60 494.482637387 -4.6591796875 494.930664062 c 2,5,-1
 171.213867188 496.354492188 l 1,6,7
 65 576 65 576 140.68359375 780.8203125 c 0,8,9
 210 968 210 968 321.134765625 1036.15917969 c 1,10,-1
 198.817382812 1097.56445312 l 1,11,-1
 293.091796875 1439.23339844 l 1,12,-1
 714.049804688 1201.86328125 l 2,13,14
 1339 850 1339 850 1165.26171875 381.922851562 c 0,15,16
 1120 260 1120 260 1059.40039062 184.331054688 c 0,17,18
 1000 109 1000 109 945.537109375 109.896484375 c 0,19,20
 766 113 766 113 505.904296875 209.791015625 c 1,21,22
 291 0 291 0 47.9052734375 0 c 2,23,-1
 -4.6591796875 0 l 2,0,1
783.901367188 745.45703125 m 1,24,25
 766.981445312 620.25 766.981445312 620.25 702.861328125 549.336914062 c 1,26,27
 846.688476562 488.083007812 846.688476562 488.083007812 924.009765625 473.90234375 c 1,28,29
 970.883789062 538.098632812 970.883789062 538.098632812 932.6796875 612.59765625 c 0,30,31
 896.830078125 683.098632812 896.830078125 683.098632812 783.901367188 745.45703125 c 1,24,25
530.109375 625.078125 m 1,32,33
 571 647 571 647 591.8984375 711.313476562 c 0,34,35
 616 787 616 787 604.544921875 821.779296875 c 0,36,37
 593.523722922 854.447614731 593.523722922 854.447614731 542.095703125 876.25390625 c 0,38,39
 446 917 446 917 374.991210938 825.09375 c 0,40,41
 332 769 332 769 351.623046875 732.775390625 c 0,42,43
 386 669 386 669 530.109375 625.078125 c 1,32,33
EndSplineSet
EndChar

StartChar: uniFEEC
Encoding: 65260 65260 244
Width: 1064
VWidth: 3775
GlyphClass: 2
Flags: W
AnchorPoint: "Anchor-7" 382.532 -662.585 basechar 0
AnchorPoint: "Anchor-10" 486.286 1372.17 basechar 0
LayerCount: 2
Fore
SplineSet
1050.18847656 0 m 6,0,1
 825 0 825 0 825.104492188 -228.966796875 c 0,2,3
 825 -330 825 -330 859.979492188 -431.274414062 c 1,4,-1
 640.0859375 -580.408203125 l 1,5,6
 270 -401 270 -401 144.111328125 0.009765625 c 1,7,-1
 -4.6591796875 0 l 2,8,9
 -60 0 -60 0 -60 171 c 2,10,-1
 -60 303 l 2,11,12
 -60 495.858129186 -60 495.858129186 -4.6591796875 494.930664062 c 2,13,-1
 134.723632812 492.594726562 l 1,14,15
 268 1033 268 1033 448 1117.12988281 c 0,16,17
 478 1131 478 1131 505.708007812 1131.97070312 c 0,18,19
 576 1132 576 1132 666.645507812 1037 c 0,20,21
 851 844 851 844 851.193359375 622.4140625 c 0,22,23
 851 482 851 482 782.752929688 357 c 0,24,25
 649 112 649 112 404.9375 6.0947265625 c 1,26,27
 481 -130 481 -130 593.400390625 -204.873046875 c 1,28,29
 756.9837923 494.930664062 756.9837923 494.930664062 1050.04589844 494.930664062 c 6,30,-1
 1068.73339844 494.930664062 l 6,31,32
 1094.07421875 495.000203669 1094.07421875 495.000203669 1094.07421875 303 c 6,33,-1
 1094.07421875 171 l 6,34,35
 1094 0 1094 0 1068.73339844 0 c 6,36,-1
 1050.18847656 0 l 6,0,1
375.690429688 498.797851562 m 1,37,38
 644 512 644 512 644.4609375 611.62890625 c 0,39,40
 644 668 644 668 500.176757812 804.81640625 c 1,41,42
 438 710 438 710 375.690429688 498.797851562 c 1,37,38
EndSplineSet
EndChar

StartChar: uniFEEE
Encoding: 65262 65262 246
Width: 937
VWidth: 3781
GlyphClass: 2
Flags: W
AnchorPoint: "Anchor-7" 361.246 -706.137 basechar 0
AnchorPoint: "Anchor-10" 409.69 1285.41 basechar 0
LayerCount: 2
Fore
SplineSet
623.155273438 486.203125 m 1,0,1
 602 541 602 541 577.75 576 c 0,2,3
 531 642 531 642 448 642.52734375 c 0,4,5
 372.95058818 641.871736551 372.95058818 641.871736551 348.184570312 577.583984375 c 0,6,7
 340.89742499 557.783128185 340.89742499 557.783128185 340.89742499 542.31045481 c 0,8,9
 340.89742499 497.939303018 340.89742499 497.939303018 400.825195312 489.162109375 c 0,10,11
 429.982347247 485.000664741 429.982347247 485.000664741 515.259271609 485.000664741 c 0,12,13
 561.099295364 485.000664741 561.099295364 485.000664741 623.155273438 486.203125 c 1,0,1
834.391601562 0 m 17,14,15
 823 -68 823 -68 805.93359375 -119.795898438 c 0,16,17
 722 -377 722 -377 574.569335938 -500 c 0,18,19
 540 -529 540 -529 491 -534.287109375 c 0,20,21
 458.002909514 -537.59586849 458.002909514 -537.59586849 419.091063136 -537.59586849 c 0,22,23
 237.615393898 -537.59586849 237.615393898 -537.59586849 41.767578125 -503.25390625 c 0,24,25
 -4.09572939106 -495.113041238 -4.09572939106 -495.113041238 -4.09572939106 -461.412129234 c 0,26,27
 -4.09572939106 -452.664727487 -4.09572939106 -452.664727487 -1.005859375 -442.1953125 c 0,28,29
 4 -425 4 -425 66.8935546875 -383.8828125 c 0,30,31
 428 -146 428 -146 548 0 c 9,32,-1
 505.700195312 0.4912109375 l 2,33,34
 290 3 290 3 204.194335938 102.387695312 c 0,35,36
 116.606880145 204.120573586 116.606880145 204.120573586 116.606880145 366.970689035 c 0,37,38
 116.606880145 485.234059984 116.606880145 485.234059984 162.798828125 635.729492188 c 0,39,40
 210 789 210 789 280.213867188 867.330078125 c 0,41,42
 366.88708017 964.107063105 366.88708017 964.107063105 484.626918751 964.107063105 c 0,43,44
 714.475354359 964.107063105 714.475354359 964.107063105 801.818359375 674.438476562 c 8,45,46
 827 590 827 590 829.861328125 494.930664062 c 1,47,-1
 942 494.930664062 l 2,48,49
 967.340820312 495.000945244 967.340820312 495.000945244 967.340820312 303 c 2,50,-1
 967.340820312 171 l 2,51,52
 967 0 967 0 942 0 c 2,53,-1
 834.391601562 0 l 17,14,15
EndSplineSet
EndChar

StartChar: uniFEF0
Encoding: 65264 65264 248
Width: 1549
VWidth: 3753
GlyphClass: 2
Flags: W
AnchorPoint: "Anchor-10" 725.938 989.34 basechar 0
AnchorPoint: "Anchor-7" 657.979 -801.205 basechar 0
LayerCount: 2
Fore
SplineSet
1554 0 m 2,0,-1
 1430.30859375 0 l 1,1,2
 1472 -84 1472 -84 1423.796875 -204.51953125 c 0,3,4
 1367 -347 1367 -347 1221.39941406 -451.995117188 c 0,5,6
 1018 -600 1018 -600 741.881835938 -602.138671875 c 4,7,8
 396 -605 396 -605 221.67578125 -422.489257812 c 4,9,10
 81 -275 81 -275 81.1005859375 9.599609375 c 4,11,12
 82 310 82 310 237.498046875 598.952148438 c 5,13,-1
 413.864257812 552.530273438 l 5,14,15
 335 330 335 330 335.872070312 188.798828125 c 4,16,17
 337 -143 337 -143 786.499023438 -142.346679688 c 4,18,19
 944 -142 944 -142 1044.52636719 -110.932617188 c 0,20,21
 1155 -76 1155 -76 1185.32617188 -34.1328125 c 8,22,23
 1202 -10 1202 -10 1187.484375 -2.98046875 c 0,24,25
 1129 23 1129 23 939.994140625 45.5673828125 c 0,26,27
 862 55 862 55 874.555664062 156.443359375 c 0,28,29
 917.991102659 494.930664062 917.991102659 494.930664062 1052.68164062 494.930664062 c 2,30,-1
 1554 494.930664062 l 2,31,32
 1629.34082031 495.000315081 1629.34082031 495.000315081 1629.34082031 303 c 2,33,-1
 1629.34082031 171 l 2,34,35
 1629 0 1629 0 1554 0 c 2,0,-1
EndSplineSet
EndChar

StartChar: uniFEFB
Encoding: 65275 65275 259
Width: 1397
VWidth: 3713
GlyphClass: 3
Flags: W
AnchorPoint: "Anchor-9" 1000.48 1659.56 baselig 0
AnchorPoint: "Anchor-6" 320.531 -226.328 baselig 1
AnchorPoint: "Anchor-6" 993.295 -179.265 baselig 0
AnchorPoint: "Anchor-9" 119.039 1661.26 baselig 1
LayerCount: 2
Fore
SplineSet
789.491210938 490.337890625 m 1,0,1
 938 554 938 554 938.063025162 708 c 0,2,3
 938 768 938 768 914.39453125 998.926757812 c 0,4,5
 893 1203 893 1203 870.665039062 1407.56640625 c 5,6,-1
 1190 1591 l 6,7,8
 1238.05729822 1619.03342396 1238.05729822 1619.03342396 1239.734375 1562.52246094 c 6,9,-1
 1262.10058594 808.868164062 l 2,10,11
 1275 387 1275 387 1053.32617188 166.876953125 c 0,12,13
 830 -53 830 -53 263 -53 c 1,14,15
 131 88 131 88 74.09375 242.270507812 c 0,16,17
 33.1055153777 352.715682697 33.1055153777 352.715682697 177.556640625 367.794921875 c 2,18,-1
 497.626953125 401.20703125 l 1,19,-1
 43 1238 l 1,20,-1
 324.69921875 1482.43261719 l 1,21,-1
 789.491210938 490.337890625 l 1,0,1
EndSplineSet
LCarets2: 1 0
Ligature2: "'rlig' Required Ligatures in Arabic lookup 16 subtable" uniFEDF uniFE8E
EndChar

StartChar: uniFEFC
Encoding: 65276 65276 260
Width: 1450
VWidth: 3713
GlyphClass: 3
Flags: W
AnchorPoint: "Anchor-9" 1011.15 1659.56 baselig 0
AnchorPoint: "Anchor-6" 1035.96 -192.064 baselig 0
AnchorPoint: "Anchor-6" 411.197 -232.729 baselig 1
AnchorPoint: "Anchor-9" 139.706 1631.26 baselig 1
LayerCount: 2
Fore
SplineSet
263 -53 m 1,0,1
 131 88 131 88 74.09375 242.270507812 c 0,2,3
 33.1055153777 352.715682697 33.1055153777 352.715682697 177.556640625 367.794921875 c 2,4,5
 497.626953125 401.20703125 l 1,6,-1
 43 1238 l 1,7,-1
 324.69921875 1482.43261719 l 1,8,-1
 789.491210938 490.337890625 l 1,9,10
 938 555 938 555 938.060857565 707 c 0,11,12
 938 766 938 766 914.39453125 998.926757812 c 0,13,14
 893 1203 893 1203 870.665039062 1407.56640625 c 5,15,-1
 1195 1594.03417969 l 6,16,17
 1238.10096327 1619.05861932 1238.10096327 1619.05861932 1239.83886719 1560.38964844 c 6,18,-1
 1262.10058594 808.868164062 l 2,19,20
 1268 608 1268 608 1288.51855469 561.552734375 c 0,21,22
 1319.03175616 494.930664062 1319.03175616 494.930664062 1425.94433594 494.930664062 c 2,23,-1
 1455 494.930664062 l 2,24,25
 1480.34082031 495.000945244 1480.34082031 495.000945244 1480.34082031 303 c 2,26,-1
 1480.34082031 171 l 2,27,28
 1480 0 1480 0 1455 0 c 2,29,-1
 1425.61132812 0 l 2,30,31
 1167 0 1167 0 1073.32617188 206.876953125 c 1,32,33
 840 -52 840 -52 263 -53 c 1,0,1
EndSplineSet
LCarets2: 1 0
Ligature2: "'rlig' Required Ligatures in Arabic lookup 16 subtable" uniFEE0 uniFE8E
EndChar

StartChar: arabic_dot
Encoding: 65536 -1 261
Width: 233
VWidth: 3240
GlyphClass: 2
Flags: W
LayerCount: 2
Fore
SplineSet
116.03125 327.671875 m 1,0,-1
 316.513671875 127.190429688 l 1,1,-1
 116.03125 -73.2939453125 l 1,2,-1
 -84.451171875 127.190429688 l 1,3,-1
 116.03125 327.671875 l 1,0,-1
EndSplineSet
EndChar

StartChar: arabic_2dots
Encoding: 65537 -1 262
Width: 612
VWidth: 3240
GlyphClass: 2
Flags: W
LayerCount: 2
Fore
SplineSet
486.857421875 315.198242188 m 1,0,-1
 679.502929688 122.552734375 l 1,1,-1
 486.857421875 -70.0947265625 l 1,2,-1
 306.591796875 110.171875 l 1,3,-1
 126.326171875 -70.0947265625 l 1,4,-1
 -66.3193359375 122.552734375 l 1,5,-1
 126.326171875 315.198242188 l 1,6,-1
 306.591796875 134.932617188 l 1,7,-1
 486.857421875 315.198242188 l 1,0,-1
EndSplineSet
EndChar

StartChar: arabic_3dots
Encoding: 65538 -1 263
Width: 590
VWidth: 3240
GlyphClass: 2
Flags: W
LayerCount: 2
Fore
SplineSet
-75.3916015625 96.439453125 m 5,0,-1
 109.548828125 281.381835938 l 5,1,-1
 294.489257812 96.439453125 l 5,2,-1
 109.548828125 -88.50390625 l 5,3,-1
 -75.3916015625 96.439453125 l 5,0,-1
296.873046875 96.439453125 m 5,4,-1
 481.813476562 281.381835938 l 5,5,-1
 666.752929688 96.439453125 l 5,6,-1
 481.813476562 -88.50390625 l 5,7,-1
 296.873046875 96.439453125 l 5,4,-1
110.782226562 375.466796875 m 5,8,-1
 295.639648438 560.323242188 l 5,9,-1
 480.495117188 375.466796875 l 5,10,-1
 295.639648438 190.608398438 l 5,11,-1
 110.782226562 375.466796875 l 5,8,-1
EndSplineSet
EndChar

StartChar: arabic_3dots_a
Encoding: 65539 -1 264
Width: 636
VWidth: 3240
GlyphClass: 2
Flags: W
LayerCount: 2
Fore
SplineSet
-54.0576171875 137.515625 m 1,0,-1
 130.8828125 322.458007812 l 1,1,-1
 315.822265625 137.515625 l 1,2,-1
 130.8828125 -47.4267578125 l 1,3,-1
 -54.0576171875 137.515625 l 1,0,-1
318.206054688 137.515625 m 1,4,-1
 503.146484375 322.458007812 l 1,5,-1
 688.0859375 137.515625 l 1,6,-1
 503.146484375 -47.4267578125 l 1,7,-1
 318.206054688 137.515625 l 1,4,-1
132.116210938 -141.51171875 m 1,8,-1
 316.97265625 43.3466796875 l 1,9,-1
 501.828125 -141.51171875 l 1,10,-1
 316.97265625 -326.369140625 l 1,11,-1
 132.116210938 -141.51171875 l 1,8,-1
EndSplineSet
EndChar

StartChar: uni066E.fina
Encoding: 65540 -1 265
Width: 1993
VWidth: 3753
GlyphClass: 2
Flags: W
AnchorPoint: "Anchor-10" 1060.57 1821.78 basechar 0
AnchorPoint: "Anchor-7" 991.416 -346.569 basechar 0
LayerCount: 2
Fore
SplineSet
1998 0 m 2,0,-1
 1980.61914062 0 l 2,1,2
 1652 0 1652 0 1579.01953125 235.4765625 c 1,3,4
 1337 0 1337 0 813.678710938 0 c 4,5,6
 490 0 490 0 302.755859375 102.430664062 c 4,7,8
 69 230 69 230 68.4517417509 537.642228227 c 4,9,10
 68 751 68 751 191.454101562 994.09375 c 5,11,-1
 345.512695312 938.196289062 l 5,12,13
 316 830 316 830 315.83335666 756.286267699 c 4,14,15
 316 687 316 687 341.935546875 647.479492188 c 4,16,17
 444 491 444 491 863.188476562 491.239257812 c 4,18,19
 1504.11269568 490.999957923 1504.11269568 490.999957923 1607.41015625 737.362304688 c 2,20,-1
 1618.95703125 764.901367188 l 1,21,-1
 1762.75878906 734.340820312 l 1,22,-1
 1755.37402344 692.580078125 l 2,23,24
 1752 673 1752 673 1751.66046609 652.79433811 c 0,25,26
 1752 548 1752 548 1866.60546875 509.4765625 c 0,27,28
 1910.20783943 494.930664062 1910.20783943 494.930664062 1972.6875 494.930664062 c 2,29,-1
 1998 494.930664062 l 2,30,31
 2023.34082031 495.000945244 2023.34082031 495.000945244 2023.34082031 303 c 2,32,-1
 2023.34082031 171 l 2,33,34
 2023 0 2023 0 1998 0 c 2,0,-1
EndSplineSet
EndChar

StartChar: uni06A1.fina
Encoding: 65543 -1 266
Width: 1971
VWidth: 3748
GlyphClass: 2
Flags: W
AnchorPoint: "Anchor-10" 766.929 2001.83 basechar 0
AnchorPoint: "Anchor-7" 954.113 -431.558 basechar 0
LayerCount: 2
Fore
SplineSet
866.18983816 491.237512289 m 4,0,1
 1070.27326308 491.237512289 1070.27326308 491.237512289 1243.52539062 523.555664062 c 1,2,3
 1144 635 1144 635 1143.6640625 757.09375 c 0,4,5
 1144 950 1144 950 1268.50683594 1088.45996094 c 0,6,7
 1367 1197 1367 1197 1502.39160156 1196.80175781 c 0,8,9
 1638 1197 1638 1197 1752.77246094 1031.80664062 c 0,10,11
 1830 921 1830 921 1829.55761719 773.401367188 c 0,12,13
 1830 639 1830 639 1714.27050781 516.568359375 c 1,14,15
 1807.29809807 494.930664062 1807.29809807 494.930664062 1935.19335938 494.930664062 c 2,16,-1
 1976 494.930664062 l 2,17,18
 2001.34082031 495.000945244 2001.34082031 495.000945244 2001.34082031 303 c 2,19,-1
 2001.34082031 171 l 2,20,21
 2001 0 2001 0 1976 0 c 2,22,-1
 1926.24804688 0 l 2,23,24
 1695 0 1695 0 1479.16308594 202.987304688 c 1,25,26
 1203 0 1203 0 813.678710938 0 c 0,27,28
 490 0 490 0 302.755859375 102.430664062 c 0,29,30
 68.4504984948 230.299883572 68.4504984948 230.299883572 68.4504984948 539.200106604 c 0,31,32
 68.4504984948 751.887077603 68.4504984948 751.887077603 191.454101562 994.09375 c 1,33,-1
 345.512695312 938.196289062 l 1,34,35
 316 830 316 830 315.833007812 756.286132812 c 0,36,37
 316 687 316 687 341.935546875 647.479492188 c 0,38,39
 443.756235977 491.373725322 443.756235977 491.373725322 866.18983816 491.237512289 c 4,0,1
1624.50496316 709.872420343 m 0,41,42
 1624.50496316 743.457318728 1624.50496316 743.457318728 1575.12890625 789.071289062 c 0,43,44
 1526 835 1526 835 1481.02441406 834.935546875 c 0,45,46
 1438 835 1438 835 1392.62988281 785.692382812 c 0,47,48
 1349.89693641 739.169383938 1349.89693641 739.169383938 1349.89693641 700.353985983 c 0,49,50
 1349.89693641 666.839581045 1349.89693641 666.839581045 1381.75488281 639.071289062 c 0,51,52
 1450 579 1450 579 1486.91894531 579.2890625 c 0,53,54
 1523 579 1523 579 1574.03515625 627.352539062 c 0,55,56
 1624.50496316 674.471436468 1624.50496316 674.471436468 1624.50496316 709.872420343 c 0,41,42
EndSplineSet
EndChar

StartChar: uni06A1.init
Encoding: 65544 -1 267
Width: 862
VWidth: 3781
GlyphClass: 2
Flags: W
AnchorPoint: "Anchor-10" 487.044 2063.37 basechar 0
AnchorPoint: "Anchor-7" 434.877 -342.91 basechar 0
LayerCount: 2
Fore
SplineSet
-14.6591796875 0 m 2,0,1
 -90 0 -90 0 -90 171 c 2,2,-1
 -90 303 l 2,3,4
 -90 495 -90 495 -14.6591796875 494.930664062 c 2,5,-1
 189.006835938 494.930664062 l 2,6,7
 371.76272766 494.930664062 371.76272766 494.930664062 470.157226562 523.68359375 c 0,8,9
 567 552 567 552 582.22265625 600.573242188 c 1,10,11
 480.967696727 586.277804525 480.967696727 586.277804525 402.875988265 586.277804525 c 0,12,13
 146.267230259 586.277804525 146.267230259 586.277804525 117.595703125 771.0546875 c 4,14,15
 112.520274998 804.477432372 112.520274998 804.477432372 112.520274998 844.418207298 c 0,16,17
 112.520274998 903.598556936 112.520274998 903.598556936 123.663085938 977.088867188 c 0,18,19
 181 1360 181 1360 443.73046875 1359.99121094 c 0,20,21
 567 1360 567 1360 643.272460938 1264.70898438 c 0,22,23
 792.603220686 1079.60598301 792.603220686 1079.60598301 792.603220686 696.203160599 c 0,24,25
 792.603220686 661.807279879 792.603220686 661.807279879 791.401367188 625.815429688 c 0,26,27
 780 283 780 283 635.626953125 142.466796875 c 0,28,29
 490 0 490 0 213.461914062 0 c 2,30,-1
 -14.6591796875 0 l 2,0,1
580.409179688 930.608398438 m 1,31,32
 520.089229322 1067.3750517 520.089229322 1067.3750517 421.688938136 1067.3750517 c 0,33,34
 347.019918444 1067.3750517 347.019918444 1067.3750517 321.448242188 1016.00292969 c 0,35,36
 308.131169383 988.918879446 308.131169383 988.918879446 308.131169383 969.991048132 c 0,37,38
 308.131169383 953.50384253 308.131169383 953.50384253 318.235351562 943.205078125 c 0,39,40
 340.137259956 920.784133822 340.137259956 920.784133822 438.605998632 920.784133822 c 0,41,42
 463.155381549 920.784133822 463.155381549 920.784133822 492.463867188 922.177734375 c 0,43,44
 546.129882812 924.793945312 546.129882812 924.793945312 580.409179688 930.608398438 c 1,31,32
EndSplineSet
EndChar

StartChar: uni06A1.medi
Encoding: 65545 -1 268
Width: 1007
VWidth: 3748
GlyphClass: 2
Flags: W
AnchorPoint: "Anchor-10" 758.142 1723.05 basechar 0
AnchorPoint: "Anchor-7" 697.662 -335.969 basechar 0
LayerCount: 2
Fore
SplineSet
1012 0 m 2,0,-1
 950.087890625 0 l 2,1,2
 728 0 728 0 515.146484375 203.452148438 c 1,3,4
 285 0 285 0 38.2158203125 0 c 2,5,-1
 -4.6591796875 0 l 2,6,7
 -60 0 -60 0 -60 171 c 2,8,-1
 -60 303 l 2,9,10
 -60 494.930664062 -60 494.930664062 -4.6591796875 494.930664062 c 2,11,-1
 37.458984375 494.930664062 l 2,12,13
 171 495 171 495 279.53125 523.555664062 c 1,14,15
 180 635 180 635 179.670898438 757.09375 c 0,16,17
 180 950 180 950 304.513671875 1088.45996094 c 0,18,19
 403 1197 403 1197 538.3984375 1196.80175781 c 0,20,21
 674 1197 674 1197 788.779296875 1031.80664062 c 4,22,23
 866 921 866 921 865.564453125 773.401367188 c 0,24,25
 866 639 866 639 750.27734375 516.568359375 c 1,26,27
 837.278787858 494.930664062 837.278787858 494.930664062 956.51171875 494.930664062 c 2,28,-1
 1012 494.930664062 l 2,29,30
 1037.34082031 495.000945244 1037.34082031 495.000945244 1037.34082031 303 c 2,31,-1
 1037.34082031 171 l 2,32,33
 1037 0 1037 0 1012 0 c 2,0,-1
660.505859375 709.200195312 m 0,34,35
 661 743 661 743 611.135742188 789.071289062 c 0,36,37
 562 835 562 835 517.03125 834.935546875 c 0,38,39
 474 835 474 835 428.63671875 785.692382812 c 0,40,41
 385.900372734 739.169676616 385.900372734 739.169676616 385.900372734 700.354474361 c 0,42,43
 385.900372734 666.839783367 385.900372734 666.839783367 417.76171875 639.071289062 c 0,44,45
 486 579 486 579 522.92578125 579.2890625 c 0,46,47
 559 579 559 579 610.041992188 627.352539062 c 0,48,49
 661 675 661 675 660.505859375 709.200195312 c 0,34,35
EndSplineSet
EndChar

StartChar: uni066F.fina
Encoding: 65546 -1 269
Width: 1483
VWidth: 3781
GlyphClass: 2
Flags: W
AnchorPoint: "Anchor-10" 480.781 784.357 basechar 0
AnchorPoint: "Anchor-7" 402.041 -854 basechar 0
LayerCount: 2
Fore
SplineSet
1170.04296875 491.293945312 m 1,0,1
 1148.88769531 546.090820312 1148.88769531 546.090820312 1124.63769531 581.090820312 c 0,2,3
 1078.87868491 647.649380897 1078.87868491 647.649380897 998.390214726 647.649380897 c 0,4,5
 920.102873491 647.649380897 920.102873491 647.649380897 895.072265625 582.674804688 c 0,6,7
 887.785120302 562.873948498 887.785120302 562.873948498 887.785120302 547.401275123 c 0,8,9
 887.785120302 503.03012333 887.785120302 503.03012333 947.712890625 494.252929688 c 0,10,11
 976.86979671 490.091468252 976.86979671 490.091468252 1062.14653424 490.091468252 c 0,12,13
 1107.98668526 490.091468252 1107.98668526 490.091468252 1170.04296875 491.293945312 c 1,0,1
1488 0 m 2,14,-1
 1366.15234375 0 l 1,15,16
 1360 -133 1360 -133 1329.328125 -209.473632812 c 0,17,18
 1185.21981433 -567.4539579 1185.21981433 -567.4539579 709.390851304 -567.4539579 c 0,19,20
 376.419110693 -567.4539579 376.419110693 -567.4539579 222.983398438 -401.260742188 c 0,21,22
 80.911620521 -247.743376475 80.911620521 -247.743376475 80.911620521 33.7113977059 c 0,23,24
 80.911620521 293.974596894 80.911620521 293.974596894 203.59765625 549.060546875 c 1,25,-1
 380.661132812 499.107421875 l 1,26,27
 328.901027129 326.788287946 328.901027129 326.788287946 328.901027129 208.155165028 c 0,28,29
 328.901027129 89.1990529862 328.901027129 89.1990529862 380.943359375 24.2216796875 c 0,30,31
 478.296167611 -97.3609757806 478.296167611 -97.3609757806 753.117196053 -97.3609757806 c 4,32,33
 1033.00423214 -97.3609757806 1033.00423214 -97.3609757806 1166.79980469 -0.05859375 c 1,34,-1
 1067.80078125 0.0498046875 l 2,35,36
 840 0 840 0 752.857421875 102.387695312 c 0,37,38
 665.921433094 204.264727221 665.921433094 204.264727221 665.921433094 367.432323045 c 0,39,40
 665.921433094 485.527706873 665.921433094 485.527706873 711.461914062 635.729492188 c 0,41,42
 758 789 758 789 828.877929688 867.330078125 c 0,43,44
 915.898869238 964.111858907 915.898869238 964.111858907 1033.40414347 964.111858907 c 0,45,46
 1253.52857708 964.111858907 1253.52857708 964.111858907 1338.97558594 690.866210938 c 0,47,48
 1372 586 1372 586 1375.32226562 494.930664062 c 1,49,-1
 1488 494.930664062 l 2,50,51
 1513.34082031 495.000945244 1513.34082031 495.000945244 1513.34082031 303 c 2,52,-1
 1513.34082031 171 l 2,53,54
 1513 0 1513 0 1488 0 c 2,14,-1
EndSplineSet
EndChar

StartChar: arabic_gaf_bar
Encoding: 65549 -1 270
Width: 788
VWidth: 3142
GlyphClass: 2
Flags: W
LayerCount: 2
Fore
SplineSet
782.442166169 2098 m 2,0,-1
 753.061523438 1951.98828125 l 1,1,-1
 -3.693359375 1703.41601562 l 1,2,-1
 33 1873 l 5,3,-1
 761 2116.22437107 l 2,4,5
 788.054168905 2125.26315296 788.054168905 2125.26315296 782.442166169 2098 c 2,0,-1
EndSplineSet
EndChar

StartChar: guillemotleft
Encoding: 171 171 279
Width: 1546
VWidth: 3386
Flags: W
LayerCount: 2
Fore
SplineSet
478.000976562 -5.10546875 m 6,0,1
 132.000271987 471.919395528 132.000271987 471.919395528 131.873046875 509.623046875 c 4,2,3
 132.001061965 557.396308869 132.001061965 557.396308869 477.9453125 1034.90234375 c 6,4,-1
 496.909179688 1061.078125 l 5,5,-1
 835.384765625 1061.078125 l 5,6,-1
 738.821289062 921.859375 l 6,7,8
 466 529 466 529 465.729492188 509.146484375 c 4,9,10
 466.009555297 499.676913683 466.009555297 499.676913683 738.700195312 108.1015625 c 6,11,-1
 835.745117188 -31.251953125 l 5,12,-1
 496.965820312 -31.251953125 l 5,13,-1
 478.000976562 -5.10546875 l 6,0,1
1058.48632812 -5.0283203125 m 6,14,15
 713 472.742014766 713 472.742014766 713 504.596679688 c 4,16,17
 713 556.45189679 713 556.45189679 1058.42871094 1034.82128906 c 6,18,-1
 1077.38867188 1061.078125 l 5,19,-1
 1415.92773438 1061.078125 l 5,20,-1
 1319.35449219 921.858398438 l 6,21,22
 1046 528 1046 528 1046.20507812 514.200195312 c 4,23,24
 1046.00796209 500.551317656 1046.00796209 500.551317656 1319.24609375 108.095703125 c 6,25,-1
 1416.26367188 -31.251953125 l 5,26,-1
 1077.44921875 -31.251953125 l 5,27,-1
 1058.48632812 -5.0283203125 l 6,14,15
EndSplineSet
EndChar

StartChar: guillemotright
Encoding: 187 187 280
Width: 1546
VWidth: 3386
Flags: W
LayerCount: 2
Fore
SplineSet
1068.13574219 -5.10546875 m 2,0,1
 1049.17089844 -31.251953125 l 1,2,-1
 710.391601562 -31.251953125 l 1,3,-1
 807.436523438 108.1015625 l 2,4,5
 1080 500 1080 500 1080.40722656 509.146484375 c 4,6,7
 1080.00589641 528.712532477 1080.00589641 528.712532477 807.315429688 921.859375 c 6,8,-1
 710.751953125 1061.078125 l 5,9,-1
 1049.22753906 1061.078125 l 5,10,-1
 1068.19140625 1034.90234375 l 6,11,12
 1414 558 1414 558 1414.26367188 509.623046875 c 4,13,14
 1414 472 1414 472 1068.13574219 -5.10546875 c 2,0,1
487.650390625 -5.0283203125 m 2,15,-1
 468.6875 -31.251953125 l 1,16,-1
 129.873046875 -31.251953125 l 1,17,-1
 226.890625 108.095703125 l 2,18,19
 500 500 500 500 499.931640625 514.200195312 c 4,20,21
 499.999942896 527.988472375 499.999942896 527.988472375 226.782226562 921.858398438 c 6,22,-1
 130.208984375 1061.078125 l 5,23,-1
 468.748046875 1061.078125 l 5,24,-1
 487.708007812 1034.82128906 l 6,25,26
 833 557 833 557 833.13671875 509.596679688 c 4,27,28
 833 473 833 473 487.650390625 -5.0283203125 c 2,15,-1
EndSplineSet
EndChar

StartChar: exclam
Encoding: 33 33 289
Width: 808
VWidth: 9
Flags: W
LayerCount: 2
Fore
SplineSet
170.532226562 233.598632812 m 128,-1,1
 170.532226562 330.665039062 170.532226562 330.665039062 238.797851562 398.930664062 c 128,-1,2
 307.064453125 467.197265625 307.064453125 467.197265625 404.130859375 467.197265625 c 128,-1,3
 501.196289062 467.197265625 501.196289062 467.197265625 569.462890625 398.930664062 c 128,-1,4
 637.729492188 330.665039062 637.729492188 330.665039062 637.729492188 233.598632812 c 128,-1,5
 637.729492188 136.532226562 637.729492188 136.532226562 569.462890625 68.2666015625 c 128,-1,6
 501.196289062 0 501.196289062 0 404.130859375 0 c 128,-1,7
 307.064453125 0 307.064453125 0 238.797851562 68.2666015625 c 128,-1,0
 170.532226562 136.532226562 170.532226562 136.532226562 170.532226562 233.598632812 c 128,-1,1
539.580078125 733.473632812 m 2,8,9
 529.662149662 644.888671875 529.662149662 644.888671875 476.819335938 644.888671875 c 2,10,-1
 338.153320312 644.888671875 l 2,11,12
 288.707872555 645.000661644 288.707872555 645.000661644 277.521484375 733.686523438 c 2,13,-1
 200.193359375 1346.74511719 l 6,14,15
 171.053078615 1581.57226562 171.053078615 1581.57226562 398.501953125 1581.57226562 c 6,16,-1
 427.46484375 1581.57226562 l 6,17,18
 634.580574215 1581.99913555 634.580574215 1581.99913555 608.35546875 1347.76171875 c 6,19,-1
 539.580078125 733.473632812 l 2,8,9
EndSplineSet
EndChar

StartChar: period
Encoding: 46 46 290
Width: 808
VWidth: 3395
Flags: W
LayerCount: 2
Fore
SplineSet
170.46484375 233.598632812 m 128,-1,1
 170.46484375 330.665039062 170.46484375 330.665039062 238.731445312 398.930664062 c 128,-1,2
 306.997070312 467.197265625 306.997070312 467.197265625 404.063476562 467.197265625 c 128,-1,3
 501.12890625 467.197265625 501.12890625 467.197265625 569.395507812 398.930664062 c 128,-1,4
 637.662109375 330.665039062 637.662109375 330.665039062 637.662109375 233.598632812 c 128,-1,5
 637.662109375 136.532226562 637.662109375 136.532226562 569.395507812 68.2666015625 c 128,-1,6
 501.12890625 0 501.12890625 0 404.063476562 0 c 128,-1,7
 306.997070312 0 306.997070312 0 238.731445312 68.2666015625 c 128,-1,0
 170.46484375 136.532226562 170.46484375 136.532226562 170.46484375 233.598632812 c 128,-1,1
EndSplineSet
EndChar

StartChar: colon
Encoding: 58 58 291
Width: 808
VWidth: 3395
Flags: W
LayerCount: 2
Fore
SplineSet
170.797851562 1076.25976562 m 132,-1,1
 170.797851562 1173.32617188 170.797851562 1173.32617188 239.064453125 1241.59179688 c 132,-1,2
 307.331054688 1309.85839844 307.331054688 1309.85839844 404.396484375 1309.85839844 c 132,-1,3
 501.462890625 1309.85839844 501.462890625 1309.85839844 569.728515625 1241.59179688 c 132,-1,4
 637.995117188 1173.32617188 637.995117188 1173.32617188 637.995117188 1076.25976562 c 132,-1,5
 637.995117188 979.194335938 637.995117188 979.194335938 569.728515625 910.927734375 c 132,-1,6
 501.462890625 842.661132812 501.462890625 842.661132812 404.396484375 842.661132812 c 132,-1,7
 307.331054688 842.661132812 307.331054688 842.661132812 239.064453125 910.927734375 c 132,-1,0
 170.797851562 979.194335938 170.797851562 979.194335938 170.797851562 1076.25976562 c 132,-1,1
170.797851562 233.598632812 m 132,-1,9
 170.797851562 330.665039062 170.797851562 330.665039062 239.064453125 398.930664062 c 132,-1,10
 307.331054688 467.197265625 307.331054688 467.197265625 404.396484375 467.197265625 c 132,-1,11
 501.462890625 467.197265625 501.462890625 467.197265625 569.728515625 398.930664062 c 132,-1,12
 637.995117188 330.665039062 637.995117188 330.665039062 637.995117188 233.598632812 c 132,-1,13
 637.995117188 136.532226562 637.995117188 136.532226562 569.728515625 68.2666015625 c 132,-1,14
 501.462890625 0 501.462890625 0 404.396484375 0 c 132,-1,15
 307.331054688 0 307.331054688 0 239.064453125 68.2666015625 c 132,-1,8
 170.797851562 136.532226562 170.797851562 136.532226562 170.797851562 233.598632812 c 132,-1,9
EndSplineSet
EndChar

StartChar: uniFDFC
Encoding: 65020 65020 292
Width: 2943
VWidth: 3741
Flags: W
LayerCount: 2
Fore
SplineSet
2089.89355469 -224.8828125 m 0,0,1
 2421 -14 2421 -14 2576 184.413085938 c 0,2,3
 2600 215 2600 215 2588.18554688 247 c 0,4,5
 2558 322 2558 322 2385 531.514648438 c 1,6,-1
 2584 815.514648438 l 1,7,8
 2717 688 2717 688 2775.10253906 495 c 0,9,10
 2808.6828233 383.796043282 2808.6828233 383.796043282 2808.62297311 272 c 0,11,12
 2808.4922998 27.9112304566 2808.4922998 27.9112304566 2648 -219 c 0,13,14
 2600 -294 2600 -294 2547.56933594 -341 c 0,15,16
 2515 -370 2515 -370 2464 -375.287109375 c 0,17,18
 2420 -380 2420 -380 2368 -378 c 0,19,20
 2227 -373 2227 -373 2064.76757812 -344.25390625 c 0,21,22
 2007 -334 2007 -334 2021.99414062 -283.1953125 c 0,23,24
 2027 -266 2027 -266 2089.89355469 -224.8828125 c 0,0,1
2053.78125 343.330078125 m 1,25,-1
 2224.44140625 172.669921875 l 1,26,-1
 2053.78125 2.0068359375 l 1,27,-1
 1895.01757812 160.7734375 l 1,28,-1
 1736.25292969 2.0068359375 l 1,29,-1
 1565.59277344 172.669921875 l 1,30,-1
 1736.25292969 343.330078125 l 1,31,-1
 1895.01757812 184.56640625 l 1,32,-1
 2053.78125 343.330078125 l 1,25,-1
2032.19824219 904.55078125 m 0,33,34
 2063 943 2063 943 2031.65332031 1009.79296875 c 0,35,36
 2007 1063 2007 1063 1981.37402344 1116.59960938 c 1,37,-1
 2142.74902344 1302.75195312 l 2,38,39
 2182 1348 2182 1348 2201.35351562 1308.83007812 c 0,40,41
 2295 1124 2295 1124 2295.37402344 934.73046875 c 0,42,43
 2297 687 2297 687 2173.91796875 560.921875 c 0,44,45
 2068.32421875 453.330078125 2068.32421875 453.330078125 1888.74414062 453.330078125 c 2,46,-1
 1820.55175781 453.330078125 l 2,47,48
 1597 453 1597 453 1500.23828125 553.057617188 c 0,49,50
 1391 667 1391 667 1397.39160156 1061.32714844 c 0,51,52
 1403 1407 1403 1407 1375.68164062 1519.97753906 c 1,53,-1
 1612 1700 l 2,54,55
 1657 1734 1657 1734 1666 1674 c 0,56,57
 1684 1558 1684 1558 1674.28808594 1277.8046875 c 0,58,59
 1663 959 1663 959 1711.34960938 910.616210938 c 0,60,61
 1748.40527344 873.594726562 1748.40527344 873.594726562 1831.109375 873.594726562 c 2,62,-1
 1885.78027344 873.594726562 l 2,63,64
 2007 874 2007 874 2032.19824219 904.55078125 c 0,33,34
1217.16699219 342.814453125 m 0,65,66
 1162.859375 -165.33203125 1162.859375 -165.33203125 651.185546875 -164.65625 c 0,67,68
 384.198242188 -164.265625 384.198242188 -164.265625 244.399414062 -11.0693359375 c 0,69,70
 120.732421875 123.732421875 120.732421875 123.732421875 120.3984375 372.264648438 c 0,71,72
 120.732421875 617.595703125 120.732421875 617.595703125 241.430664062 881.74609375 c 1,73,-1
 411.0546875 840.33203125 l 1,74,75
 296.731445312 477.86328125 296.731445312 477.86328125 407.17578125 345.802734375 c 0,76,77
 471.6640625 269.865234375 471.6640625 269.865234375 632.591796875 264.595703125 c 0,78,79
 830.061523438 258.131835938 830.061523438 258.131835938 908.994140625 332.797851562 c 0,80,81
 963.39453125 383.998046875 963.39453125 383.998046875 960.384765625 483.935546875 c 0,82,83
 937.793945312 1060.25976562 937.793945312 1060.25976562 879.14453125 1496.48144531 c 1,84,-1
 1103.76074219 1665.36425781 l 2,85,86
 1127.66015625 1685.32324219 1127.66015625 1685.32324219 1130.859375 1686.38964844 c 0,87,88
 1163.92578125 1694.92285156 1163.92578125 1694.92285156 1166.24902344 1643.19921875 c 2,89,-1
 1219.40429688 594.002929688 l 2,90,91
 1228.71875 410.137695312 1228.71875 410.137695312 1217.16699219 342.814453125 c 0,65,66
EndSplineSet
EndChar

StartChar: uniFD3E
Encoding: 64830 64830 294
Width: 1503
VWidth: 10
Flags: W
LayerCount: 2
Fore
SplineSet
766.446289062 724.634765625 m 1,0,1
 724.526367188 719.336914062 724.526367188 719.336914062 724.526367188 682.715820312 c 0,2,3
 724.526367188 654.381835938 724.526367188 654.381835938 750.321289062 643.67578125 c 0,4,5
 757.262695312 640.795898438 757.262695312 640.795898438 766.153320312 640.795898438 c 128,-1,6
 775.043945312 640.795898438 775.043945312 640.795898438 782.482421875 643.885742188 c 1,7,8
 808.366210938 661.455078125 808.366210938 661.455078125 808.366210938 674.375 c 0,9,10
 808.366210938 724.634765625 808.366210938 724.634765625 766.446289062 724.634765625 c 1,0,1
875.163085938 871.985351562 m 0,11,12
 984.364257812 808.235351562 984.364257812 808.235351562 984.364257812 686.0078125 c 0,13,14
 984.364257812 592.506835938 984.364257812 592.506835938 920.510742188 528.653320312 c 128,-1,15
 856.657226562 464.796875 856.657226562 464.796875 766.446289062 464.796875 c 128,-1,16
 676.236328125 464.796875 676.236328125 464.796875 612.380859375 528.650390625 c 128,-1,17
 548.52734375 592.506835938 548.52734375 592.506835938 548.52734375 682.715820312 c 128,-1,18
 548.52734375 772.879882812 548.52734375 772.879882812 612.381835938 836.78125 c 128,-1,19
 676.237304688 900.633789062 676.237304688 900.633789062 751.159179688 900.633789062 c 128,-1,20
 826.080078125 900.633789062 826.080078125 900.633789062 875.163085938 871.985351562 c 0,11,12
717.962890625 265.889648438 m 2,21,22
 735.87890625 247.974609375 735.87890625 247.974609375 742.708007812 218.033203125 c 0,23,24
 785.061523438 33.06640625 785.061523438 33.06640625 910.032226562 -129.623046875 c 1,25,26
 841.594726562 51.19921875 841.594726562 51.19921875 812.442382812 212.288085938 c 0,27,28
 804.31640625 256.767578125 804.31640625 256.767578125 836.950195312 289.401367188 c 2,29,-1
 878.416992188 330.869140625 l 2,30,31
 904.916015625 356.642578125 904.916015625 356.642578125 940.643554688 356.642578125 c 2,32,-1
 1100.04980469 356.642578125 l 1,33,-1
 1100.04980469 1025.34277344 l 1,34,-1
 940.643554688 1025.34277344 l 1,35,36
 903.4609375 1027.19335938 903.4609375 1027.19335938 891.604492188 1038.78320312 c 0,37,38
 878.927734375 1050.66015625 878.927734375 1050.66015625 878.416992188 1051.1171875 c 2,39,-1
 833.907226562 1095.62890625 l 2,40,41
 802.127929688 1127.45996094 802.127929688 1127.45996094 809.237304688 1171.74121094 c 0,42,43
 840.528320312 1370.65820312 840.528320312 1370.65820312 923.590820312 1578.96777344 c 1,44,45
 775.461914062 1396.2578125 775.461914062 1396.2578125 731.265625 1151.12695312 c 0,46,47
 726.455078125 1124.58886719 726.455078125 1124.58886719 707 1105.13378906 c 2,48,-1
 652.983398438 1051.11816406 l 2,49,50
 627.475585938 1025.34277344 627.475585938 1025.34277344 590.7578125 1025.34277344 c 2,51,-1
 431.3515625 1025.34277344 l 1,52,-1
 431.3515625 865.935546875 l 2,53,54
 430.920898438 829.053710938 430.920898438 829.053710938 405.576171875 803.709960938 c 2,55,-1
 292.858398438 690.9921875 l 1,56,-1
 405.575195312 578.276367188 l 2,57,58
 431.3515625 552.102539062 431.3515625 552.102539062 431.3515625 516.05078125 c 2,59,-1
 431.3515625 356.642578125 l 1,60,-1
 590.7578125 356.642578125 l 1,61,62
 630.823242188 353.026367188 630.823242188 353.026367188 652.981445312 330.869140625 c 2,63,-1
 717.962890625 265.889648438 l 2,21,22
575.790039062 159.161132812 m 1,64,-1
 554.307617188 180.643554688 l 1,65,-1
 342.954101562 180.643554688 l 1,66,67
 310.3984375 181.33203125 310.3984375 181.33203125 283.048828125 206.01953125 c 0,68,69
 255.352539062 230.033203125 255.352539062 230.033203125 255.352539062 268.643554688 c 2,70,-1
 255.352539062 479.6015625 l 1,71,-1
 106.18359375 628.765625 l 2,72,73
 43.947265625 690.981445312 43.947265625 690.981445312 106.184570312 753.217773438 c 2,74,-1
 255.352539062 902.384765625 l 1,75,-1
 255.352539062 1113.34179688 l 2,76,77
 254.931640625 1140.25976562 254.931640625 1140.25976562 278.73828125 1170.23535156 c 0,78,79
 302.076171875 1201.34179688 302.076171875 1201.34179688 343.3515625 1201.34179688 c 2,80,-1
 554.307617188 1201.34179688 l 1,81,-1
 563.57421875 1210.609375 l 1,82,83
 685.862304688 1809.05566406 685.862304688 1809.05566406 1190.51367188 1956.65625 c 0,84,85
 1233.05859375 1969.0546875 1233.05859375 1969.0546875 1261.08300781 1943.61816406 c 0,86,87
 1290.65820312 1915.72167969 1290.65820312 1915.72167969 1290.67675781 1884.18554688 c 0,88,89
 1290.65820312 1851.72167969 1290.65820312 1851.72167969 1283.69824219 1814.58886719 c 1,90,91
 1069.86035156 1620.25683594 1069.86035156 1620.25683594 992.828125 1201.34179688 c 1,92,-1
 1188.04882812 1201.34179688 l 2,93,94
 1235.19238281 1201.05957031 1235.19238281 1201.05957031 1263.1015625 1158.93066406 c 0,95,96
 1276.04785156 1138.68847656 1276.04785156 1138.68847656 1276.04785156 1113.34179688 c 2,97,-1
 1276.04785156 268.643554688 l 2,98,99
 1275.74511719 222.702148438 1275.74511719 222.702148438 1223.17382812 187.854492188 c 0,100,101
 1213.30957031 180.643554688 1213.30957031 180.643554688 1188.04882812 180.643554688 c 2,102,-1
 997.223632812 180.643554688 l 1,103,104
 1075.19335938 -210.131835938 1075.19335938 -210.131835938 1271.86035156 -369.205078125 c 0,105,106
 1330.125 -415.997070312 1330.125 -415.997070312 1273.48925781 -478.422851562 c 0,107,108
 1254.39257812 -499.197265625 1254.39257812 -499.197265625 1204.29882812 -525.844726562 c 1,109,-1
 1191.8515625 -522.182617188 l 2,110,111
 706.12890625 -379.731445312 706.12890625 -379.731445312 575.790039062 159.161132812 c 1,64,-1
EndSplineSet
EndChar

StartChar: uniFD3F
Encoding: 64831 64831 295
Width: 1506
VWidth: 10
Flags: W
LayerCount: 2
Fore
SplineSet
739.35546875 724.634765625 m 132,-1,1
 697.435546875 724.634765625 697.435546875 724.634765625 697.435546875 675.663085938 c 4,2,3
 697.435546875 654.377929688 697.435546875 654.377929688 723.229492188 643.67578125 c 4,4,5
 730.172851562 640.795898438 730.172851562 640.795898438 743.41796875 640.795898438 c 132,-1,6
 756.6640625 640.795898438 756.6640625 640.795898438 768.96875 653.1015625 c 132,-1,7
 781.275390625 665.407226562 781.275390625 665.407226562 781.275390625 682.715820312 c 4,8,0
 781.275390625 724.634765625 781.275390625 724.634765625 739.35546875 724.634765625 c 132,-1,1
521.436523438 682.715820312 m 132,-1,10
 521.436523438 772.926757812 521.436523438 772.926757812 585.291015625 836.78125 c 132,-1,11
 649.145507812 900.633789062 649.145507812 900.633789062 739.35546875 900.633789062 c 4,12,13
 869.884765625 900.633789062 869.884765625 900.633789062 932.0546875 785.328125 c 4,14,15
 957.274414062 738.548828125 957.274414062 738.548828125 957.274414062 688.303710938 c 4,16,17
 957.274414062 592.504882812 957.274414062 592.504882812 893.420898438 528.653320312 c 132,-1,18
 829.565429688 464.796875 829.565429688 464.796875 739.35546875 464.796875 c 132,-1,19
 649.145507812 464.796875 649.145507812 464.796875 585.291992188 528.650390625 c 132,-1,9
 521.436523438 592.505859375 521.436523438 592.505859375 521.436523438 682.715820312 c 132,-1,10
764.233398438 223.072265625 m 4,20,21
 770.022460938 248.073242188 770.022460938 248.073242188 787.841796875 265.893554688 c 6,22,-1
 852.817382812 330.869140625 l 6,23,24
 879.31640625 356.642578125 879.31640625 356.642578125 915.04296875 356.642578125 c 6,25,-1
 1074.44921875 356.642578125 l 5,26,-1
 1074.44921875 516.05078125 l 6,27,28
 1074.12988281 552.180664062 1074.12988281 552.180664062 1100.22558594 578.276367188 c 6,29,-1
 1212.94238281 690.9921875 l 5,30,-1
 1100.22363281 803.709960938 l 6,31,32
 1074.44921875 829.537109375 1074.44921875 829.537109375 1074.44921875 865.935546875 c 6,33,-1
 1074.44921875 1025.34277344 l 5,34,-1
 915.04296875 1025.34277344 l 6,35,36
 878.875 1025.06054688 878.875 1025.06054688 852.817382812 1051.1171875 c 6,37,-1
 798.799804688 1105.13476562 l 6,38,39
 779.728515625 1124.25976562 779.728515625 1124.25976562 769.21875 1179.47265625 c 4,40,41
 727.461914062 1399.45800781 727.461914062 1399.45800781 582.23828125 1578.93945312 c 5,42,43
 661.329101562 1380.2578125 661.329101562 1380.2578125 696.563476562 1171.74316406 c 4,44,45
 703.956054688 1127.69335938 703.956054688 1127.69335938 671.893554688 1095.62988281 c 6,46,-1
 627.383789062 1051.11816406 l 6,47,48
 601.875 1025.34277344 601.875 1025.34277344 565.158203125 1025.34277344 c 6,49,-1
 405.751953125 1025.34277344 l 5,50,-1
 405.751953125 356.642578125 l 5,51,-1
 565.158203125 356.642578125 l 6,52,53
 601.989257812 356.260742188 601.989257812 356.260742188 627.381835938 330.869140625 c 6,54,-1
 668.852539062 289.399414062 l 6,55,56
 700.795898438 257.065429688 700.795898438 257.065429688 695.389648438 224.126953125 c 4,57,58
 666.662109375 57.599609375 666.662109375 57.599609375 595.721679688 -129.747070312 c 5,59,60
 718.928710938 28.7998046875 718.928710938 28.7998046875 764.233398438 223.072265625 c 4,20,21
301.501953125 -525.84375 m 5,61,62
 179.19921875 -461.864257812 179.19921875 -461.864257812 214.209960938 -392.828125 c 4,63,64
 220.798828125 -379.731445312 220.798828125 -379.731445312 233.942382812 -369.205078125 c 4,65,66
 429.864257812 -210.131835938 429.864257812 -210.131835938 508.577148438 180.643554688 c 5,67,-1
 317.751953125 180.643554688 l 6,68,69
 270.61328125 180.287109375 270.61328125 180.287109375 236.204101562 237.171875 c 4,70,71
 229.752929688 246.834960938 229.752929688 246.834960938 229.752929688 268.643554688 c 6,72,-1
 229.752929688 1113.34179688 l 6,73,74
 229.33203125 1176.52636719 229.33203125 1176.52636719 286.280273438 1194.88964844 c 4,75,76
 308.155273438 1201.34179688 308.155273438 1201.34179688 317.751953125 1201.34179688 c 6,77,-1
 512.973632812 1201.34179688 l 5,78,79
 436.263671875 1620.25683594 436.263671875 1620.25683594 222.1015625 1814.58984375 c 5,80,81
 201.598632812 1923.1875 201.598632812 1923.1875 260.162109375 1954.33886719 c 4,82,83
 284.797851562 1966.92089844 284.797851562 1966.92089844 315.296875 1956.65332031 c 4,84,85
 820.26171875 1804.7890625 820.26171875 1804.7890625 942.2265625 1210.61035156 c 5,86,-1
 951.494140625 1201.34179688 l 5,87,-1
 1162.44921875 1201.34179688 l 6,88,89
 1236.24414062 1201.05078125 1236.24414062 1201.05078125 1247.41113281 1134.98632812 c 4,90,91
 1250.44824219 1114.62890625 1250.44824219 1114.62890625 1250.44824219 1113.34179688 c 6,92,-1
 1250.44824219 902.384765625 l 5,93,-1
 1399.61816406 753.217773438 l 6,94,95
 1434.65722656 717.862304688 1434.65722656 717.862304688 1425.76757812 681.5859375 c 4,96,97
 1416.64257812 645.791992188 1416.64257812 645.791992188 1399.61621094 628.765625 c 6,98,-1
 1250.44824219 479.6015625 l 5,99,-1
 1250.44824219 268.643554688 l 6,100,101
 1250.14746094 222.018554688 1250.14746094 222.018554688 1193.92089844 187.094726562 c 4,102,103
 1184.54296875 180.643554688 1184.54296875 180.643554688 1162.44921875 180.643554688 c 6,104,-1
 951.494140625 180.643554688 l 5,105,-1
 930.010742188 159.16015625 l 5,106,107
 800.13671875 -379.14453125 800.13671875 -379.14453125 313.951171875 -522.180664062 c 6,108,-1
 301.501953125 -525.84375 l 5,61,62
EndSplineSet
EndChar

StartChar: NameMe.303
Encoding: 65560 -1 296
Width: 626
VWidth: 3713
Flags: W
AnchorPoint: "Anchor-7" 210.877 -228.763 basechar 0
LayerCount: 2
Fore
SplineSet
-4.6591796875 494.930664062 m 2,0,-1
 26.53515625 494.930664062 l 2,1,2
 181 495 181 495 191.340820312 594.129882812 c 0,3,4
 196 639 196 639 186.975585938 765.553710938 c 0,5,6
 170 978 170 978 129.866210938 1315.05859375 c 5,7,-1
 425.331054688 1515.45703125 l 6,8,9
 474.158033336 1549.10891765 474.158033336 1549.10891765 477.376953125 1477.05664062 c 6,10,-1
 515.860351562 615.64453125 l 2,11,12
 527 369 527 369 457.577148438 226.657226562 c 0,13,14
 348 0 348 0 20.892578125 0 c 2,15,-1
 -4.6591796875 0 l 2,16,17
 -60 0 -60 0 -60 171 c 2,18,-1
 -60 303 l 2,19,20
 -60 495 -60 495 -4.6591796875 494.930664062 c 2,0,-1
EndSplineSet
EndChar

StartChar: NameMe.304
Encoding: 65561 -1 297
Width: 751
VWidth: 3713
Flags: W
LayerCount: 2
Fore
SplineSet
756 0 m 2,0,-1
 716.1015625 0 l 2,1,2
 474 0 474 0 373.693359375 170.094726562 c 1,3,4
 249 0 249 0 35.2060546875 0 c 2,5,-1
 -4.6591796875 0 l 2,6,7
 -60 0 -60 0 -60 171 c 6,8,-1
 -60 303 l 6,9,10
 -60 494.930664062 -60 494.930664062 -4.6591796875 494.930664062 c 2,11,-1
 39.3955078125 494.930664062 l 2,12,13
 254 495 254 495 245.75390625 693.678710938 c 0,14,15
 242 779 242 779 199.208007812 1148.42871094 c 1,16,-1
 506 1354.9381194 l 2,17,18
 553.51953125 1386.67906809 553.51953125 1386.67906809 553.51953125 1332 c 2,19,-1
 553.51953125 727.0546875 l 2,20,21
 554 596 554 596 585.427734375 547.505859375 c 0,22,23
 621.046974498 494.930664062 621.046974498 494.930664062 726.537109375 494.930664062 c 2,24,-1
 756 494.930664062 l 2,25,26
 781.340820312 495.000945244 781.340820312 495.000945244 781.340820312 303 c 2,27,-1
 781.340820312 171 l 2,28,29
 781 0 781 0 756 0 c 2,0,-1
EndSplineSet
EndChar

StartChar: NameMe.306
Encoding: 65563 -1 299
Width: 664
VWidth: 3713
Flags: W
LayerCount: 2
Fore
SplineSet
669 0 m 2,0,-1
 615.223632812 0 l 2,1,2
 373 0 373 0 295.986328125 67.1884765625 c 0,3,4
 149.969033895 193.026686696 149.969033895 193.026686696 152.405974359 568.647293288 c 2,5,6
 153.172779489 686.839679337 l 2,7,8
 155.989103435 1052.58490473 155.989103435 1052.58490473 100.54296875 1267.32519531 c 6,9,-1
 97.322265625 1279.79882812 l 5,10,-1
 405 1461.07910156 l 6,11,12
 422 1471 422 1471 434.584960938 1471.44824219 c 4,13,14
 457 1471 457 1471 459.012695312 1434.58203125 c 4,15,16
 475.786955322 1153.56905868 475.786955322 1153.56905868 472.967773438 1015.89453125 c 2,17,-1
 468.476767173 796.576590538 l 2,18,19
 465 606 465 606 509.68359375 540.286132812 c 0,20,21
 541.047947402 494.930664062 541.047947402 494.930664062 640.149414062 494.930664062 c 2,22,-1
 669 494.930664062 l 2,23,24
 694.340820312 495.000945244 694.340820312 495.000945244 694.340820312 303 c 2,25,-1
 694.340820312 171 l 2,26,27
 694 0 694 0 669 0 c 2,0,-1
EndSplineSet
EndChar

StartChar: uni06C1
Encoding: 1729 1729 301
Width: 1012
VWidth: 2424
Flags: W
AnchorPoint: "Anchor-7" 479.202 -199.801 basechar 0
AnchorPoint: "Anchor-10" 623.045 1189.49 basechar 0
LayerCount: 2
Fore
SplineSet
197 464 m 0,0,1
 399 855 399 855 680.095703125 825.981445312 c 0,2,3
 777 816 777 816 826.596679688 734.1171875 c 0,4,5
 869 665 869 665 881.745117188 564 c 0,6,7
 885 538 885 538 884.801757812 529.141601562 c 0,8,9
 885 510 885 510 894.3515625 503.544921875 c 0,10,11
 906.956907401 495.029112125 906.956907401 495.029112125 946.291992188 495.012695312 c 2,12,-1
 1042.2265625 494.97265625 l 5,13,-1
 1042.2265625 0 l 5,14,-1
 922.953125 0 l 2,15,16
 601 0 601 0 573 263.315429688 c 0,17,18
 569 301 569 301 570.150390625 320 c 0,19,20
 574 363 574 363 552 364.173828125 c 0,21,22
 537 365 537 365 524.237304688 338 c 0,23,24
 445 175 445 175 424.801757812 130.912109375 c 0,25,26
 362 -7 362 -7 298.522460938 -144.155273438 c 1,27,-1
 12.765625 4.259765625 l 1,28,29
 76 230 76 230 197 464 c 0,0,1
EndSplineSet
EndChar

StartChar: NameMe.65564
Encoding: 65564 -1 304
Width: 678
VWidth: 3745
Flags: W
LayerCount: 2
Fore
SplineSet
249.519516205 -34.3411985078 m 0,0,1
 395 -33 395 -33 450.605377501 34.3289956444 c 1,2,-1
 346.974152948 71.4620869111 l 1,3,4
 222 119 222 119 268.980047984 241.715874898 c 0,5,6
 332 406 332 406 459.206579901 457.370244785 c 0,7,8
 541 490 541 490 657.783011469 453.941446894 c 1,9,10
 652 388 652 388 627.07558916 285.689765813 c 1,11,-1
 590.719423298 288.72162838 l 2,12,13
 488 297 488 297 430.91801797 229.172899614 c 1,14,-1
 523.877335939 198.209566732 l 2,15,16
 628 164 628 164 597.529514811 22.5033489355 c 0,17,18
 583 -46 583 -46 551.65234375 -86.6318359375 c 0,19,20
 454 -215 454 -215 249.009765625 -214.874023438 c 0,21,22
 141 -215 141 -215 30.3125 -169.610351562 c 1,23,-1
 90.5068659642 6.45905189509 l 1,24,25
 176.168924983 -34.9984862791 176.168924983 -34.9984862791 249.519516205 -34.3411985078 c 0,0,1
EndSplineSet
EndChar
